<?xml version="1.0" encoding="UTF-8"?>
<svg version="1.1" xmlns="http://www.w3.org/2000/svg" width="502" height="388">
<path d="M0 0 C165.66 0 331.32 0 502 0 C502 128.04 502 256.08 502 388 C336.34 388 170.68 388 0 388 C0 259.96 0 131.92 0 0 Z " fill="#000000" transform="translate(0,0)"/>
<path d="M0 0 C0.99879684 0.30554306 1.99759369 0.61108612 3.0266571 0.92588806 C6.18934456 1.89397877 9.35058688 2.86668688 12.51171875 3.83984375 C15.69095703 4.81572101 18.87049082 5.79062222 22.05033875 6.76451111 C24.02179006 7.36860482 25.99284547 7.9739924 27.9634552 8.58082581 C28.85505844 8.85458542 29.74666168 9.12834503 30.6652832 9.41040039 C31.44643997 9.65085587 32.22759674 9.89131134 33.03242493 10.13905334 C35.07731763 10.74143433 37.12726299 11.27696628 39.19921875 11.77734375 C39.52921875 10.45734375 39.85921875 9.13734375 40.19921875 7.77734375 C42.01171875 7.15234375 42.01171875 7.15234375 44.19921875 6.77734375 C47.19921875 8.77734375 47.19921875 8.77734375 47.82421875 11.65234375 C49.44349086 15.33250763 50.26449062 15.59496269 53.82421875 17.15234375 C55.27454825 17.7150899 56.73078341 18.26369353 58.19921875 18.77734375 C58.19921875 20.42734375 58.19921875 22.07734375 58.19921875 23.77734375 C56.21921875 24.10734375 54.23921875 24.43734375 52.19921875 24.77734375 C52.35068359 25.33719971 52.50214844 25.89705566 52.65820312 26.47387695 C53.34241326 29.01150707 54.02087535 31.55063939 54.69921875 34.08984375 C55.05693359 35.41145508 55.05693359 35.41145508 55.421875 36.75976562 C55.76025391 38.03110352 55.76025391 38.03110352 56.10546875 39.328125 C56.31494141 40.10841064 56.52441406 40.88869629 56.74023438 41.69262695 C57.19921875 43.77734375 57.19921875 43.77734375 57.19921875 46.77734375 C57.79782715 46.94532471 58.39643555 47.11330566 59.01318359 47.28637695 C65.45219557 49.14826744 71.62465945 51.42532057 77.82421875 53.96484375 C78.73300781 54.33287109 79.64179688 54.70089844 80.578125 55.08007812 C82.78681434 55.97517854 84.99376923 56.87429725 87.19921875 57.77734375 C87.19921875 57.11734375 87.19921875 56.45734375 87.19921875 55.77734375 C89.66483404 54.54453611 91.4454593 54.5708576 94.203125 54.4609375 C95.24275391 54.41888184 96.28238281 54.37682617 97.35351562 54.33349609 C99.04057617 54.27476318 99.04057617 54.27476318 100.76171875 54.21484375 C101.91091797 54.17311035 103.06011719 54.13137695 104.24414062 54.08837891 C112.56237208 53.81072677 120.87649392 53.6724661 129.19921875 53.65234375 C130.27244385 53.64775146 131.34566895 53.64315918 132.45141602 53.63842773 C133.44069092 53.64044189 134.42996582 53.64245605 135.44921875 53.64453125 C136.320625 53.64565918 137.19203125 53.64678711 138.08984375 53.64794922 C140.19921875 53.77734375 140.19921875 53.77734375 142.19921875 54.77734375 C142.19921875 56.42734375 142.19921875 58.07734375 142.19921875 59.77734375 C139.98834313 60.88278156 138.66142845 60.9615979 136.20849609 61.07446289 C135.38779633 61.11442886 134.56709656 61.15439484 133.7215271 61.1955719 C132.39177353 61.25345131 132.39177353 61.25345131 131.03515625 61.3125 C129.67434433 61.37696571 129.67434433 61.37696571 128.28604126 61.44273376 C125.38227911 61.57932057 122.47827391 61.70965039 119.57421875 61.83984375 C117.60805376 61.93122934 115.64190759 62.02302102 113.67578125 62.11523438 C108.85046646 62.34065399 104.02492451 62.56046165 99.19921875 62.77734375 C99.52921875 63.10734375 99.85921875 63.43734375 100.19921875 63.77734375 C100.23985707 65.4435149 100.24193975 67.1112247 100.19921875 68.77734375 C97.14813064 70.12820719 95.94218485 69.69061276 92.703125 68.59765625 C91.38457072 68.04373094 90.07084182 67.47820434 88.76171875 66.90234375 C84.62475424 65.12064222 80.68650036 63.45173289 76.19921875 62.77734375 C76.19921875 62.11734375 76.19921875 61.45734375 76.19921875 60.77734375 C75.48378906 60.65488281 74.76835937 60.53242188 74.03125 60.40625 C71.14809162 59.76599 68.61329402 58.84182819 65.88671875 57.71484375 C65.00371094 57.35261719 64.12070313 56.99039063 63.2109375 56.6171875 C62.54707031 56.34003906 61.88320312 56.06289062 61.19921875 55.77734375 C60.86921875 58.08734375 60.53921875 60.39734375 60.19921875 62.77734375 C58.38671875 63.40234375 58.38671875 63.40234375 56.19921875 63.77734375 C52.6800872 61.43125605 52.71497434 60.77883439 51.82421875 56.83984375 C50.76094038 52.670102 50.76094038 52.670102 47.57421875 49.83984375 C46.39859375 49.31390625 46.39859375 49.31390625 45.19921875 48.77734375 C44.86921875 47.78734375 44.53921875 46.79734375 44.19921875 45.77734375 C44.99585938 45.27654297 44.99585938 45.27654297 45.80859375 44.765625 C47.60638157 42.68221095 47.60638157 42.68221095 46.65234375 39.1953125 C46.26895994 37.78025352 45.86710136 36.37010144 45.44921875 34.96484375 C45.05647022 33.56309325 44.66581069 32.16075559 44.27734375 30.7578125 C44.0959082 30.13801514 43.91447266 29.51821777 43.72753906 28.87963867 C43.05471078 26.20231687 42.64260724 23.50103039 42.19921875 20.77734375 C41.4755864 20.60437775 40.75195404 20.43141174 40.00639343 20.25320435 C32.54799765 18.43454744 25.22626135 16.32850622 17.90625 14.01953125 C16.79360275 13.67101105 15.68095551 13.32249084 14.53459167 12.96340942 C12.2089698 12.23397781 9.88388565 11.50282974 7.55932617 10.77001953 C3.98446152 9.64375634 0.40740392 8.52466819 -3.16992188 7.40625 C-5.43633088 6.69443363 -7.70261174 5.98220909 -9.96875 5.26953125 C-11.04150681 4.93412323 -12.11426361 4.59871521 -13.2195282 4.25314331 C-14.69290398 3.78728317 -14.69290398 3.78728317 -16.19604492 3.31201172 C-17.06363937 3.03904266 -17.93123383 2.76607361 -18.82511902 2.48483276 C-20.80078125 1.77734375 -20.80078125 1.77734375 -21.80078125 0.77734375 C-21.84141957 -0.8888274 -21.84350225 -2.5565372 -21.80078125 -4.22265625 C-16.19710744 -7.02449315 -5.68041872 -1.75579104 0 0 Z " fill="#0203EA" transform="translate(143.80078125,81.22265625)"/>
<path d="M0 0 C3 1 3 1 3.875 2.625 C4.18838388 8.57929368 -0.63852187 15.33066983 -3.375 20.5 C-4.01985352 21.7219104 -4.01985352 21.7219104 -4.67773438 22.96850586 C-9.22361488 31.51943606 -14.00360207 39.93542136 -18.79296875 48.3515625 C-21.83334399 53.6949188 -24.83189822 59.06061136 -27.8125 64.4375 C-28.45251953 65.59197632 -28.45251953 65.59197632 -29.10546875 66.76977539 C-30.07103804 68.51278187 -31.03564379 70.25632207 -32 72 C-33.65 72 -35.3 72 -37 72 C-38.14082916 67.30292212 -37.98077298 64.99567294 -35.60546875 60.796875 C-35.06728516 59.82613037 -34.52910156 58.85538574 -33.97460938 57.85522461 C-33.38486328 56.83050049 -32.79511719 55.80577637 -32.1875 54.75 C-31.58873047 53.67951416 -30.98996094 52.60902832 -30.37304688 51.50610352 C-29.15829428 49.3370182 -27.93682451 47.17168035 -26.70849609 45.01025391 C-24.83289315 41.7055691 -22.99595764 38.38119971 -21.1652832 35.05151367 C-19.5833695 32.18166436 -17.98141234 29.32323236 -16.37890625 26.46484375 C-15.36294509 24.6487772 -14.35043329 22.83077993 -13.33984375 21.01171875 C-11.56518505 17.8173331 -9.78321827 14.62711384 -8 11.4375 C-7.15308594 9.90887329 -7.15308594 9.90887329 -6.2890625 8.34936523 C-5.76054687 7.40778564 -5.23203125 6.46620605 -4.6875 5.49609375 C-4.21699219 4.65232178 -3.74648437 3.8085498 -3.26171875 2.93920898 C-2 1 -2 1 0 0 Z " fill="#0304E2" transform="translate(234,200)"/>
<path d="M0 0 C0.69933655 -0.00175232 1.3986731 -0.00350464 2.11920166 -0.00531006 C4.43626368 -0.0097197 6.75324967 -0.0067937 9.0703125 -0.00341797 C10.67692072 -0.00409126 12.28352885 -0.0050615 13.89013672 -0.00631714 C17.25944996 -0.00779291 20.62873671 -0.00564342 23.99804688 -0.00097656 C28.32264311 0.00472066 32.64717728 0.00144101 36.97177124 -0.00454903 C40.28996246 -0.00815789 43.60813891 -0.00701455 46.92633057 -0.00442123 C48.52117927 -0.00375287 50.11602931 -0.00457725 51.71087646 -0.00690079 C53.93749561 -0.00943263 56.16401343 -0.00557919 58.390625 0 C60.29352295 0.00119339 60.29352295 0.00119339 62.23486328 0.00241089 C65.1953125 0.12939453 65.1953125 0.12939453 67.1953125 1.12939453 C67.1953125 2.77939453 67.1953125 4.42939453 67.1953125 6.12939453 C64.26187847 7.59611155 61.6657634 7.25673508 58.390625 7.25878906 C57.34162018 7.26141754 57.34162018 7.26141754 56.27142334 7.26409912 C53.95436132 7.26850877 51.63737533 7.26558277 49.3203125 7.26220703 C47.71370428 7.26288033 46.10709615 7.26385057 44.50048828 7.2651062 C41.13117504 7.26658197 37.76188829 7.26443249 34.39257812 7.25976562 C30.06798189 7.25406841 25.74344772 7.25734805 21.41885376 7.26333809 C18.10066254 7.26694695 14.78248609 7.26580361 11.46429443 7.2632103 C9.86944573 7.26254193 8.27459569 7.26336631 6.67974854 7.26568985 C4.45312939 7.26822169 2.22661157 7.26436826 0 7.25878906 C-1.26859863 7.25799347 -2.53719727 7.25719788 -3.84423828 7.25637817 C-6.8046875 7.12939453 -6.8046875 7.12939453 -8.8046875 6.12939453 C-8.8046875 4.47939453 -8.8046875 2.82939453 -8.8046875 1.12939453 C-5.87125347 -0.33732248 -3.2751384 0.00205398 0 0 Z " fill="#0303E4" transform="translate(278.8046875,169.87060546875)"/>
<path d="M0 0 C2.2882707 0.08059805 4.57666259 0.15795185 6.86523438 0.22949219 C9.28835372 0.30716189 11.70977185 0.40238637 14.13183594 0.50732422 C15.9996875 0.58080078 15.9996875 0.58080078 17.90527344 0.65576172 C20.95034457 1.16466402 21.94196411 1.69073406 23.75683594 4.13232422 C23.42683594 5.12232422 23.09683594 6.11232422 22.75683594 7.13232422 C8.03875285 14.49136576 -29.85934183 7.80556564 -46.24316406 6.13232422 C-46.90316406 5.80232422 -47.56316406 5.47232422 -48.24316406 5.13232422 C-48.24316406 3.48232422 -48.24316406 1.83232422 -48.24316406 0.13232422 C-36.80848583 -5.5850149 -13.00200313 -0.46108272 0 0 Z " fill="#0303E5" transform="translate(170.2431640625,179.86767578125)"/>
<path d="M0 0 C4.60853797 0.72008406 8.67237409 2.31295939 13 4 C13 3.34 13 2.68 13 2 C15.46561529 0.76719236 17.24624055 0.79351385 20.00390625 0.68359375 C21.56334961 0.62051025 21.56334961 0.62051025 23.15429688 0.55615234 C24.84135742 0.49741943 24.84135742 0.49741943 26.5625 0.4375 C27.71169922 0.3957666 28.86089844 0.3540332 30.04492188 0.31103516 C38.36315333 0.03338302 46.67727517 -0.10487765 55 -0.125 C56.0732251 -0.12959229 57.1464502 -0.13418457 58.25219727 -0.13891602 C59.24147217 -0.13690186 60.23074707 -0.1348877 61.25 -0.1328125 C62.12140625 -0.13168457 62.9928125 -0.13055664 63.890625 -0.12939453 C66 0 66 0 68 1 C68 2.65 68 4.3 68 6 C67.01 5.505 67.01 5.505 66 5 C66.33 4.01 66.66 3.02 67 2 C50.17 2 33.34 2 16 2 C15.67 2.99 15.34 3.98 15 5 C11.37 4.67 7.74 4.34 4 4 C4 3.34 4 2.68 4 2 C2.68 1.67 1.36 1.34 0 1 C0 0.67 0 0.34 0 0 Z " fill="#0707C3" transform="translate(218,135)"/>
<path d="M0 0 C1.17369141 0.25716797 1.17369141 0.25716797 2.37109375 0.51953125 C4.5625 1.1875 4.5625 1.1875 7.5625 3.1875 C3.2725 2.8575 -1.0175 2.5275 -5.4375 2.1875 C-5.4375 2.8475 -5.4375 3.5075 -5.4375 4.1875 C-4.1175 4.1875 -2.7975 4.1875 -1.4375 4.1875 C-1.4375 4.8475 -1.4375 5.5075 -1.4375 6.1875 C-0.633125 6.166875 0.17125 6.14625 1 6.125 C3.5625 6.1875 3.5625 6.1875 4.5625 7.1875 C5.490625 7.27 6.41875 7.3525 7.375 7.4375 C13.11968589 8.14657211 18.32315136 10.85603287 23.5625 13.1875 C19.82923484 14.55913093 17.45278601 13.78667272 13.73828125 12.5703125 C12.62775391 12.21066406 11.51722656 11.85101563 10.37304688 11.48046875 C9.21869141 11.09503906 8.06433594 10.70960937 6.875 10.3125 C5.70904297 9.93480469 4.54308594 9.55710937 3.34179688 9.16796875 C-5.27862554 6.34637446 -5.27862554 6.34637446 -6.4375 5.1875 C-6.47813832 3.52132885 -6.480221 1.85361905 -6.4375 0.1875 C-3.85880631 -1.10184684 -2.77750765 -0.63394674 0 0 Z " fill="#0707C4" transform="translate(128.4375,76.8125)"/>
<path d="M0 0 C3.35736632 1.93048563 3.30688514 3.85815542 4.5 7.4375 C7.00995496 8.87673199 7.00995496 8.87673199 9.5 9.4375 C7.6875 10.0625 7.6875 10.0625 5.5 10.4375 C1.63892543 7.86345029 1.55680308 5.82729741 0.5 1.4375 C-0.82 1.4375 -2.14 1.4375 -3.5 1.4375 C-3.5 3.0875 -3.5 4.7375 -3.5 6.4375 C-9.03846154 6.80673077 -9.03846154 6.80673077 -11.375 4.9375 C-11.74625 4.4425 -12.1175 3.9475 -12.5 3.4375 C-10.19 3.7675 -7.88 4.0975 -5.5 4.4375 C-5.314375 3.4784375 -5.314375 3.4784375 -5.125 2.5 C-4.91875 1.819375 -4.7125 1.13875 -4.5 0.4375 C-2.5 -0.5625 -2.5 -0.5625 0 0 Z " fill="#0707C2" transform="translate(188.5,88.5625)"/>
<path d="M0 0 C1.84790538 3.31016094 2.74541487 6.57173491 3.625 10.25 C3.88539063 11.32765625 4.14578125 12.4053125 4.4140625 13.515625 C4.60742188 14.33546875 4.80078125 15.1553125 5 16 C4.01 16.33 3.02 16.66 2 17 C2 18.65 2 20.3 2 22 C1.34 22 0.68 22 0 22 C-0.04254356 20.00045254 -0.04080783 17.99958364 0 16 C0.33 15.67 0.66 15.34 1 15 C1.36760731 12.67182036 1.70241581 10.3381615 2 8 C1.34 8 0.68 8 0 8 C0 5.36 0 2.72 0 0 Z " fill="#000033" transform="translate(187,108)"/>
<path d="M0 0 C2.77141717 -0.08089542 5.54047819 -0.14044062 8.3125 -0.1875 C9.09818359 -0.21263672 9.88386719 -0.23777344 10.69335938 -0.26367188 C11.45068359 -0.27333984 12.20800781 -0.28300781 12.98828125 -0.29296875 C14.03302612 -0.31653442 14.03302612 -0.31653442 15.09887695 -0.34057617 C17.54489783 0.09761557 18.42702086 1.13437358 20 3 C19.67 3.99 19.34 4.98 19 6 C18.34 6 17.68 6 17 6 C17 4.68 17 3.36 17 2 C11.39 1.67 5.78 1.34 0 1 C0 0.67 0 0.34 0 0 Z " fill="#0909B3" transform="translate(174,181)"/>
<path d="M0 0 C0.33 0 0.66 0 1 0 C1 1.98 1 3.96 1 6 C-0.98 6.99 -0.98 6.99 -3 8 C-3 8.99 -3 9.98 -3 11 C-3.66 11 -4.32 11 -5 11 C-3.77782954 6.95743617 -2.37245704 3.50711041 0 0 Z " fill="#00002F" transform="translate(226,227)"/>
<path d="M0 0 C1.98 0.66 3.96 1.32 6 2 C5.01 2.33 4.02 2.66 3 3 C3 4.32 3 5.64 3 7 C2.01 7.33 1.02 7.66 0 8 C0 5.36 0 2.72 0 0 Z " fill="#020147" transform="translate(204,136)"/>
</svg>
