<?xml version="1.0" encoding="UTF-8"?>
<svg version="1.1" xmlns="http://www.w3.org/2000/svg" width="1280" height="720">
<path d="M0 0 C422.4 0 844.8 0 1280 0 C1280 237.6 1280 475.2 1280 720 C857.6 720 435.2 720 0 720 C0 482.4 0 244.8 0 0 Z " fill="#978D85" transform="translate(0,0)"/>
<path d="M0 0 C0.99 0.33 1.98 0.66 3 1 C3 1.66 3 2.32 3 3 C3.66 2.67 4.32 2.34 5 2 C8.62650802 1.73464575 12.24683946 1.55555884 15.87890625 1.39453125 C20.07362988 1.2895814 20.07362988 1.2895814 24 0 C24.99 0.33 25.98 0.66 27 1 C31.30051288 1.13652422 34.85097995 1.11704386 39 0 C39.99 0.495 39.99 0.495 41 1 C43.69013339 1.18704404 46.29686177 1.08581391 49 1 C49.33 0.67 49.66 0.34 50 0 C52.33297433 -0.04092937 54.66705225 -0.04241723 57 0 C57 0.66 57 1.32 57 2 C57.680625 1.8246875 58.36125 1.649375 59.0625 1.46875 C63.63668037 0.7388276 68.03635726 1.40862008 72.625 1.84375 C75.69590962 1.98592174 78.02439572 1.61991756 81 1 C84 2 84 2 85 3 C87.63575543 3.10024126 90.23954245 3.13875021 92.875 3.125 C93.60847656 3.12886719 94.34195313 3.13273438 95.09765625 3.13671875 C98.32433238 3.13084138 100.91843421 3.0271886 104 2 C105.67949557 2.46087517 107.35767462 2.92889579 109.02001953 3.44824219 C112.43764342 4.40062566 115.91842908 4.73856737 119.4375 5.125 C120.50581055 5.25455078 120.50581055 5.25455078 121.59570312 5.38671875 C125.20147235 5.79936809 128.71701006 6.03700005 132.34765625 5.9921875 C136 6 136 6 139 7 C140.45767916 7.04367578 141.91720995 7.03980314 143.375 7 C145.96943032 6.96233891 148.07729468 7.01656315 150.625 7.5625 C153.18653043 8.17810434 153.18653043 8.17810434 156.5 7.375 C160.68957611 6.92611685 161.54507601 7.80907259 165 10 C167.00249004 10.31259199 167.00249004 10.31259199 169.125 10.4375 C173 11 173 11 174.73828125 12.71875 C176.25165435 15.45500353 176.24965905 16.96296351 176.0625 20.0625 C175.87403995 26.45300881 176.72676154 32.57953565 178.49829102 38.72998047 C180.87917104 49.50244883 180.10939968 61.33215791 180 72.3125 C178.99824535 86.52739278 178.99824535 86.52739278 182 100 C182.02088709 102.31249952 181.9906225 104.62551638 181.9375 106.9375 C181.86082029 113.03319118 182.21443284 118.94896813 182.9375 125 C183.94402277 133.48140856 184.38316081 141.92993586 184.65795898 150.46484375 C184.09157181 161.42362834 184.09157181 161.42362834 187 171 C187.26205148 172.56199927 187.46761819 174.13355831 187.6484375 175.70703125 C187.76533936 176.68124023 187.88224121 177.65544922 188.00268555 178.65917969 C188.1869812 180.22007324 188.1869812 180.22007324 188.375 181.8125 C189.29993708 189.33941438 190.34476942 196.59520066 192.44921875 203.890625 C193 206 193 206 193 209 C193.66 209 194.32 209 195 209 C195.20496094 210.13179687 195.40992188 211.26359375 195.62109375 212.4296875 C195.89306972 213.91148761 196.16521387 215.39325685 196.4375 216.875 C196.57220703 217.62136719 196.70691406 218.36773437 196.84570312 219.13671875 C197.54536611 223.18533378 197.54536611 223.18533378 199 227 C199.23029956 229.37123246 199.41119942 231.74741943 199.5625 234.125 C199.68818359 236.04699219 199.68818359 236.04699219 199.81640625 238.0078125 C199.87699219 238.99523437 199.93757813 239.98265625 200 241 C200.99 241 201.98 241 203 241 C204.23862399 244.71587197 204.36593619 248.22077118 204.62109375 252.11328125 C204.90795526 255.04592263 204.90795526 255.04592263 205.99609375 257.88671875 C207.15986922 261.49578118 207.42063589 264.71547939 207.625 268.5 C207.66294678 269.18835938 207.70089355 269.87671875 207.73999023 270.5859375 C208.08350394 277.39078049 208.09579996 284.1875586 208 291 C207.195625 291.12375 206.39125 291.2475 205.5625 291.375 C204.716875 291.58125 203.87125 291.7875 203 292 C202.67 292.66 202.34 293.32 202 294 C200.02 294 198.04 294 196 294 C196 294.66 196 295.32 196 296 C193.81919007 296.56539517 191.64951657 297.06838701 189.4375 297.5 C186.87713149 297.97476438 186.87713149 297.97476438 184 299 C183.01 298.34 182.02 297.68 181 297 C181 296.34 181 295.68 181 295 C178.03 295.33 175.06 295.66 172 296 C172 296.66 172 297.32 172 298 C170.68 298.33 169.36 298.66 168 299 C168 298.01 168 297.02 168 296 C171.465 294.02 171.465 294.02 175 292 C175.33 292.33 175.66 292.66 176 293 C181.75912185 293.41776013 186.35368452 292.24226591 191.75 290.5 C199.65540541 288 199.65540541 288 203 288 C202.67 280.08 202.34 272.16 202 264 C201.34 263.67 200.68 263.34 200 263 C199.54296875 261.05078125 199.54296875 261.05078125 199.1875 258.3125 C198.26757279 252.19425392 196.96232615 246.21312931 195.5625 240.1875 C193.78440583 232.51078297 192.13254037 224.83236622 190.625 217.09765625 C189.87093235 213.36030844 188.97752246 209.68450775 188 206 C187.34 206 186.68 206 186 206 C185.87625 204.906875 185.7525 203.81375 185.625 202.6875 C185.21346106 199.34227633 184.64336872 196.05806754 184 192.75 C183.05989299 187.77987546 182.61920864 182.87199839 182.34375 177.82421875 C182.10170204 174.9638527 182.10170204 174.9638527 181.01367188 172.25634766 C179.92442222 168.75721184 179.62333611 165.73039587 179.4375 162.07421875 C179.40136093 161.41764282 179.36522186 160.76106689 179.32798767 160.08459473 C179.25135287 158.68014927 179.17832147 157.27550325 179.10861206 155.87069702 C178.92415046 152.16285825 178.71243286 148.45654979 178.50390625 144.75 C178.44222008 143.63530586 178.44222008 143.63530586 178.37928772 142.49809265 C177.99874145 135.71962669 177.49553436 128.95366659 176.9375 122.1875 C176.81858398 120.74346802 176.81858398 120.74346802 176.69726562 119.27026367 C176.62056641 118.34963135 176.54386719 117.42899902 176.46484375 116.48046875 C176.35148682 115.11559326 176.35148682 115.11559326 176.23583984 113.72314453 C176.08066905 111.93145191 175.91462066 110.14066246 175.73681641 108.35107422 C174.80244797 98.50134555 174.69083179 88.63580014 174.5 78.75 C174.19586129 63.11954415 173.75677966 47.54936894 172 32 C171.34 32 170.68 32 170 32 C169.67 27.05 169.34 22.1 169 17 C166.03 16.67 163.06 16.34 160 16 C160 15.34 160 14.68 160 14 C159.43152344 14.09539062 158.86304688 14.19078125 158.27734375 14.2890625 C152.87331825 15.06493261 149.27305643 14.6298538 144 13 C142.04192134 12.96841809 140.08237782 12.93883194 138.125 13 C135.00574317 13 131.96743387 12.55638004 128.8828125 12.12109375 C126.90934342 11.835454 126.90934342 11.835454 125 13 C124.34 12.67 123.68 12.34 123 12 C119.55934233 11.49416763 116.08890373 11.23844248 112.625 10.9375 C111.60092041 10.84662109 110.57684082 10.75574219 109.52172852 10.66210938 C101.82135809 10.03035719 94.19526416 9.84217332 86.47314453 10.07397461 C81.80148244 10.1766863 78.45347181 9.55871513 74 8 C70.44255 7.72312317 70.44255 7.72312317 66.8125 7.8125 C65.60207031 7.81894531 64.39164063 7.82539063 63.14453125 7.83203125 C59.97160688 7.86214508 59.97160688 7.86214508 57 9 C56.01 8.67 55.02 8.34 54 8 C51.32228714 7.90355695 48.67684323 7.8607108 46 7.875 C44.91332031 7.86919922 44.91332031 7.86919922 43.8046875 7.86328125 C40.60717121 7.86918073 38.05417393 7.98194202 35 9 C35 8.34 35 7.68 35 7 C27.5406783 7.62589099 27.5406783 7.62589099 20.125 8.625 C17.01134993 8.99863801 15.02322447 8.6802255 12 8 C7.34058991 7.69407876 7.34058991 7.69407876 3 9 C1.01994315 8.74450879 -0.96058227 8.48568205 -2.9296875 8.15625 C-5.00455338 7.88978519 -5.00455338 7.88978519 -6.984375 8.5 C-9.96891912 9.24035203 -12.58365019 8.62303672 -15.5859375 8.15625 C-18.53317662 7.96549019 -21.09074455 8.48867631 -24 9 C-26.73203012 9.22063254 -29.45193164 9.41258901 -32.1875 9.5625 C-32.93781494 9.60568359 -33.68812988 9.64886719 -34.46118164 9.69335938 C-38.62594129 9.91879583 -42.7652699 10.0417223 -46.9375 10 C-53.35026302 9.94161369 -59.70120218 10.21036065 -65.875 12.0625 C-69 13 -69 13 -73 13 C-73.33 13.66 -73.66 14.32 -74 15 C-74.99 14.835 -75.98 14.67 -77 14.5 C-81.02732942 13.91525483 -84.93474623 13.92867976 -89 14 C-89 14.66 -89 15.32 -89 16 C-90.45019531 15.98259766 -90.45019531 15.98259766 -91.9296875 15.96484375 C-104.28405137 15.23469579 -104.28405137 15.23469579 -116 18 C-118.55157655 18.0716735 -121.07472971 18.09308442 -123.625 18.0625 C-124.33140625 18.05798828 -125.0378125 18.05347656 -125.765625 18.04882812 C-127.51045275 18.03703875 -129.255237 18.01910324 -131 18 C-131.33 17.34 -131.66 16.68 -132 16 C-132.73863281 16.01160156 -133.47726563 16.02320313 -134.23828125 16.03515625 C-141.22748001 16.09732193 -148.05275514 15.73900261 -155 15 C-154.80083984 15.77021484 -154.60167969 16.54042969 -154.39648438 17.33398438 C-152.33372591 25.71049014 -151.22626577 33.91375321 -150.5 42.5 C-150.37950986 43.83977964 -150.25790573 45.1794595 -150.13525391 46.51904297 C-149.9458095 48.58873467 -149.75691374 50.65845521 -149.57119751 52.72848511 C-148.90022301 60.20032869 -148.14434496 67.6627329 -147.375 75.125 C-147.25189453 76.34509766 -147.12878906 77.56519531 -147.00195312 78.82226562 C-146.88529297 79.95599609 -146.76863281 81.08972656 -146.6484375 82.2578125 C-146.54708496 83.2492627 -146.44573242 84.24071289 -146.34130859 85.26220703 C-146.01504383 87.87932655 -145.51759847 90.41537037 -145 93 C-144.82053906 94.58856781 -144.66624558 96.1801486 -144.53515625 97.7734375 C-144.45821533 98.67360596 -144.38127441 99.57377441 -144.30200195 100.5012207 C-144.22296631 101.44956787 -144.14393066 102.39791504 -144.0625 103.375 C-143.49184142 110.05946453 -142.80935239 116.67804321 -141.8125 123.3125 C-141.02204803 128.83953626 -141.03635721 133.5072361 -142 139 C-141.34 139 -140.68 139 -140 139 C-138.32197238 145.77727661 -137.66341182 152.42679587 -137.34204102 159.37695312 C-137.16570138 163.02758747 -136.7179923 166.42587655 -136 170 C-135.63313118 173.32837656 -135.35333752 176.66423557 -135.0625 180 C-134.4339577 186.92223555 -133.63775168 193.75293621 -132.5078125 200.61328125 C-131.84971853 205.00226183 -131.35005815 209.40039743 -130.875 213.8125 C-130.78734375 214.60156738 -130.6996875 215.39063477 -130.609375 216.20361328 C-130.22810138 219.8495423 -129.95890306 223.42275205 -130.00390625 227.08984375 C-129.99993231 231.0677597 -129.61290234 234.81281535 -129.0625 238.75 C-128.88847656 240.02359375 -128.71445313 241.2971875 -128.53515625 242.609375 C-128.13494525 245.1450184 -127.62628936 247.52138023 -127 250 C-126.82357248 251.47583018 -126.6817052 252.95594963 -126.5625 254.4375 C-126.25352053 258.14525368 -125.91702015 261.8468556 -125.52734375 265.546875 C-124.13203677 279.0187143 -123.43473613 292.46486159 -123 306 C-123.99 306 -124.98 306 -126 306 C-127.36991713 301.54776932 -127.36939575 296.92903871 -127.60546875 292.3125 C-127.77044485 288.53096669 -127.77044485 288.53096669 -129 285 C-129 282.98305779 -128.99604895 280.96606683 -128.9765625 278.94921875 C-129.00512653 275.35491172 -129.16965124 271.77511401 -129.375 268.1875 C-129.47941406 266.29064453 -129.47941406 266.29064453 -129.5859375 264.35546875 C-129.93483294 259.90533639 -130.71835743 255.54754158 -131.47851562 251.15209961 C-132.32822756 246.0160365 -132.95023906 240.85644952 -133.5625 235.6875 C-133.69325928 234.59373047 -133.82401855 233.49996094 -133.95874023 232.37304688 C-134.76783096 225.44062206 -135.36412419 218.54647359 -135.75390625 211.578125 C-136.04915649 207.28528029 -136.5022984 203.02347766 -137 198.75 C-137.0832251 198.02167969 -137.1664502 197.29335938 -137.25219727 196.54296875 C-137.61218675 193.55239601 -138.0444592 190.8666224 -139 188 C-139.2688039 185.00475657 -139.44428549 182.00979111 -139.62109375 179.0078125 C-139.85978372 176.00250562 -139.85978372 176.00250562 -141.09765625 173.4296875 C-142.19918284 170.46367217 -141.63923113 169.05359331 -141 166 C-141.35873222 163.8189081 -141.81008201 161.65253963 -142.3125 159.5 C-144.02004291 151.52728125 -144.525827 143.56514581 -145 135.4375 C-145.51786551 126.69927621 -146.299968 118.53513758 -148.28125 110.015625 C-149.41331504 104.45553474 -149.6268444 98.7755856 -150 93.125 C-150.79500919 81.14779816 -152.013385 69.28871925 -153.56152344 57.38671875 C-153.95790385 54.32514357 -154.34316466 51.26234602 -154.72476196 48.19889832 C-155.06054614 45.5166335 -155.40354751 42.83532409 -155.74835205 40.15420532 C-155.99158271 38.25328371 -156.22904937 36.35162732 -156.46630859 34.44995117 C-157.35739045 27.65233557 -158.58182468 21.12639418 -160.4140625 14.5168457 C-161 12 -161 12 -161 8 C-157.32589215 6.82428549 -153.83070817 6.92633254 -150 7 C-150 7.66 -150 8.32 -150 9 C-149.360625 8.443125 -148.72125 7.88625 -148.0625 7.3125 C-144.07050616 5.6016455 -142.37673737 6.48999003 -138.4765625 8.04296875 C-132.94541923 10.18039793 -127.96951595 11.25417581 -122.03515625 11.265625 C-120.74029297 11.26820313 -119.44542969 11.27078125 -118.11132812 11.2734375 C-117.44560791 11.26924805 -116.7798877 11.26505859 -116.09399414 11.26074219 C-114.07082006 11.250044 -112.0485373 11.26066542 -110.02539062 11.2734375 C-102.02520636 11.25752465 -95.56974186 10.52324729 -88 8 C-85.09490848 7.96987312 -82.20430983 8.06600811 -79.30078125 8.16015625 C-76.10122853 8.00491168 -73.33626276 7.34222958 -70.25561523 6.51000977 C-65.85883146 5.5158674 -61.36087169 5.28559396 -56.875 4.9375 C-49.85671515 4.41601717 -49.85671515 4.41601717 -42.89453125 3.44140625 C-38.85580146 2.82551358 -34.88977034 2.93386423 -30.8125 3 C-29.21491207 3.02554097 -27.61724384 3.04656272 -26.01953125 3.0625 C-25.31932861 3.07410156 -24.61912598 3.08570313 -23.89770508 3.09765625 C-21.77410074 3.07306413 -21.77410074 3.07306413 -19 2 C-17 2 -15 2 -13 2 C-12.34 1.67 -11.68 1.34 -11 1 C-9.12137125 1.08744368 -7.24544819 1.24175542 -5.375 1.4375 C-4.37210938 1.53933594 -3.36921875 1.64117187 -2.3359375 1.74609375 C-1.56507813 1.82988281 -0.79421875 1.91367188 0 2 C0 1.34 0 0.68 0 0 Z " fill="#6F706F" transform="translate(304,161)"/>
<path d="M0 0 C2.67873359 4.57616989 3.29865322 7.72379314 3 13 C3 13.99 3 14.98 3 16 C2.29550321 23.70449679 2.29550321 23.70449679 1 25 C0.62350582 27.43838806 0.29318455 29.86395093 0 32.3125 C-0.88551649 39.58342052 -0.88551649 39.58342052 -1.52514648 41.91088867 C-2.08012378 44.35250342 -2.11263444 46.55906809 -2.09765625 49.0625 C-2.09443359 50.02414063 -2.09121094 50.98578125 -2.08789062 51.9765625 C-2.07951172 52.97429687 -2.07113281 53.97203125 -2.0625 55 C-2.05798828 55.99773437 -2.05347656 56.99546875 -2.04882812 58.0234375 C-2.04012279 59.87891835 -2.02936148 61.73439153 -2.01586914 63.58984375 C-1.99061779 67.42494137 -2.04123071 71.22489939 -2.25952148 75.05297852 C-2.31635605 76.05825089 -2.37319061 77.06352325 -2.43174744 78.09925842 C-2.49423172 79.18154221 -2.556716 80.26382599 -2.62109375 81.37890625 C-2.68531021 82.50135239 -2.74952667 83.62379852 -2.81568909 84.78025818 C-2.95213721 87.15830832 -3.08919226 89.5363237 -3.22680664 91.91430664 C-3.43528403 95.52413012 -3.64060815 99.1341236 -3.84570312 102.74414062 C-3.97897332 105.05990697 -4.11243099 107.37566253 -4.24609375 109.69140625 C-4.3065538 110.75952042 -4.36701385 111.82763458 -4.42930603 112.92811584 C-4.77228547 118.80200949 -5.21174845 124.6528797 -5.79478455 130.50805664 C-6.14954378 134.81591899 -6.14480043 139.11770668 -6.125 143.4375 C-6.12886719 144.30826172 -6.13273438 145.17902344 -6.13671875 146.07617188 C-6.13542969 146.91599609 -6.13414062 147.75582031 -6.1328125 148.62109375 C-6.13168457 149.3680249 -6.13055664 150.11495605 -6.12939453 150.88452148 C-5.99764432 153.03851322 -5.54833765 154.91847786 -5 157 C-4.95644427 158.72861802 -4.9600876 160.45879402 -5 162.1875 C-5.04631211 166.5292602 -4.77201817 170.68232951 -4.22265625 174.984375 C-3.9268179 177.66249059 -3.93100184 180.30907195 -4 183 C-3.01 183 -2.02 183 -1 183 C1.7300764 183.15745034 4.45865588 183.32363802 7.1875 183.5 C7.93708984 183.54769531 8.68667969 183.59539062 9.45898438 183.64453125 C11.30604344 183.76217832 13.15302904 183.88097771 15 184 C14.67 184.66 14.34 185.32 14 186 C12.824375 185.979375 11.64875 185.95875 10.4375 185.9375 C6.54365098 185.94442856 2.82740399 186.21889714 -1 187 C-1.495 187.99 -1.495 187.99 -2 189 C-0.68 188.67 0.64 188.34 2 188 C1 190 1 190 -3 192 C-2.34 197.28 -1.68 202.56 -1 208 C-0.67 208 -0.34 208 0 208 C-0.01160156 208.83144531 -0.02320313 209.66289062 -0.03515625 210.51953125 C-0.04417969 211.60621094 -0.05320312 212.69289063 -0.0625 213.8125 C-0.07410156 214.89144531 -0.08570313 215.97039062 -0.09765625 217.08203125 C-0.13624766 220.06512169 -0.13624766 220.06512169 1 223 C1.13431423 224.43297355 1.22353579 225.87049689 1.28125 227.30859375 C1.31863281 228.13810547 1.35601563 228.96761719 1.39453125 229.82226562 C1.44673828 231.11680664 1.44673828 231.11680664 1.5 232.4375 C1.56915839 234.14468764 1.64194788 235.8517329 1.71875 237.55859375 C1.74904297 238.31454834 1.77933594 239.07050293 1.81054688 239.84936523 C1.93224327 241.9698104 1.93224327 241.9698104 2.50708008 243.83886719 C3.20840779 246.91373241 3.14918229 249.86764759 3.16796875 253.01953125 C3.17211288 253.70637497 3.17625702 254.39321869 3.18052673 255.10087585 C3.19022178 257.33813801 3.19017874 259.57522 3.1875 261.8125 C3.18756042 262.57643066 3.18762085 263.34036133 3.18768311 264.12744141 C3.1729808 277.17761929 2.47343261 290.02835422 1 303 C0.80638505 304.800684 0.61367296 306.60146531 0.421875 308.40234375 C-0.03093728 312.60418707 -0.50742602 316.80264088 -1 321 C-1.66 321 -2.32 321 -3 321 C-2.97679687 322.19496094 -2.95359375 323.38992188 -2.9296875 324.62109375 C-2.7189054 340.30130573 -2.7189054 340.30130573 -5 348 C-5.99 347.67 -6.98 347.34 -8 347 C-8.50537855 335.87303287 -6.95816609 325.00844778 -5.5625 314 C-5.10209482 310.31291382 -4.64552507 306.62536551 -4.19140625 302.9375 C-4.08316528 302.0588327 -3.97492432 301.18016541 -3.86340332 300.27487183 C-2.09196915 285.72175504 -1.65947914 271.448154 -2.375 256.8125 C-2.40577637 256.11302246 -2.43655273 255.41354492 -2.46826172 254.69287109 C-2.70527452 250.44139243 -3.25093713 246.32827989 -3.984375 242.1328125 C-4.972773 236.44481946 -5.49165795 230.81850575 -5.875 225.0625 C-6.700558 213.78458303 -7.84062332 202.5532988 -9.0625 191.3125 C-9.15053894 190.49637238 -9.23857788 189.68024475 -9.32928467 188.83938599 C-9.58301941 186.49291593 -9.83965283 184.14678546 -10.09765625 181.80078125 C-10.21164009 180.7521994 -10.21164009 180.7521994 -10.32792664 179.68243408 C-10.65611869 176.7380658 -11.03070514 173.82784985 -11.55102539 170.91064453 C-12.036428 167.76384199 -12.10960647 164.81284634 -12.0859375 161.62890625 C-12.0765918 160.30906738 -12.06724609 158.98922852 -12.05761719 157.62939453 C-12.03923587 156.08625298 -12.01996783 154.54312184 -12 153 C-11.98972778 152.12752625 -11.97945557 151.25505249 -11.96887207 150.35614014 C-11.89474602 144.28426714 -11.79577804 138.21311092 -11.68261719 132.1418457 C-11.64443211 130.01820545 -11.60956129 127.89450283 -11.578125 125.77075195 C-11.3978817 113.65220613 -10.90014136 101.67770878 -9.68852234 89.61651611 C-8.95200412 82.10765884 -8.79140794 74.73558989 -8.9375 67.1875 C-8.97169536 64.86854833 -9.00188897 62.54953284 -9.02734375 60.23046875 C-9.05429321 58.75163208 -9.05429321 58.75163208 -9.08178711 57.24291992 C-9 55 -9 55 -8 54 C-7.95334266 51.66713319 -7.96237049 49.33302989 -8 47 C-8.03762951 44.66697011 -8.04665734 42.33286681 -8 40 C-7.505 39.505 -7.505 39.505 -7 39 C-6.78297587 37.21765166 -6.62830148 35.42764137 -6.5 33.63671875 C-6.4175 32.52103516 -6.335 31.40535156 -6.25 30.25585938 C-6.1675 29.07830078 -6.085 27.90074219 -6 26.6875 C-5.75092207 23.26073254 -5.50073241 19.83407391 -5.24609375 16.40771484 C-5.07993132 14.10682673 -4.92659387 11.80498163 -4.78515625 9.50244141 C-4.71167969 8.41495605 -4.63820313 7.3274707 -4.5625 6.20703125 C-4.50191406 5.22839111 -4.44132813 4.24975098 -4.37890625 3.24145508 C-4.25386719 2.5017749 -4.12882813 1.76209473 -4 1 C-2 0 -2 0 0 0 Z " fill="#7D7362" transform="translate(893,136)"/>
<path d="M0 0 C-0.99 0.99 -1.98 1.98 -3 3 C1.78478822 3.09764874 6.27685687 2.77112541 11 2 C11.99 3.485 11.99 3.485 13 5 C-3.3830218 6.07555594 -3.3830218 6.07555594 -9.9375 6 C-16.35026302 5.94161369 -22.70120218 6.21036065 -28.875 8.0625 C-32 9 -32 9 -36 9 C-36.33 9.66 -36.66 10.32 -37 11 C-37.99 10.835 -38.98 10.67 -40 10.5 C-44.02732942 9.91525483 -47.93474623 9.92867976 -52 10 C-52 10.66 -52 11.32 -52 12 C-53.45019531 11.98259766 -53.45019531 11.98259766 -54.9296875 11.96484375 C-67.28405137 11.23469579 -67.28405137 11.23469579 -79 14 C-81.55157655 14.0716735 -84.07472971 14.09308442 -86.625 14.0625 C-87.33140625 14.05798828 -88.0378125 14.05347656 -88.765625 14.04882812 C-90.51045275 14.03703875 -92.255237 14.01910324 -94 14 C-94.33 13.34 -94.66 12.68 -95 12 C-95.73863281 12.01160156 -96.47726563 12.02320313 -97.23828125 12.03515625 C-104.22748001 12.09732193 -111.05275514 11.73900261 -118 11 C-117.80083984 11.77021484 -117.60167969 12.54042969 -117.39648438 13.33398438 C-115.33372591 21.71049014 -114.22626577 29.91375321 -113.5 38.5 C-113.37950986 39.83977964 -113.25790573 41.1794595 -113.13525391 42.51904297 C-112.9458095 44.58873467 -112.75691374 46.65845521 -112.57119751 48.72848511 C-111.90022301 56.20032869 -111.14434496 63.6627329 -110.375 71.125 C-110.25189453 72.34509766 -110.12878906 73.56519531 -110.00195312 74.82226562 C-109.88529297 75.95599609 -109.76863281 77.08972656 -109.6484375 78.2578125 C-109.54708496 79.2492627 -109.44573242 80.24071289 -109.34130859 81.26220703 C-109.01504383 83.87932655 -108.51759847 86.41537037 -108 89 C-107.82053906 90.58856781 -107.66624558 92.1801486 -107.53515625 93.7734375 C-107.45821533 94.67360596 -107.38127441 95.57377441 -107.30200195 96.5012207 C-107.22296631 97.44956787 -107.14393066 98.39791504 -107.0625 99.375 C-106.49184142 106.05946453 -105.80935239 112.67804321 -104.8125 119.3125 C-104.02204803 124.83953626 -104.03635721 129.5072361 -105 135 C-104.34 135 -103.68 135 -103 135 C-101.32197238 141.77727661 -100.66341182 148.42679587 -100.34204102 155.37695312 C-100.16570138 159.02758747 -99.7179923 162.42587655 -99 166 C-98.63313118 169.32837656 -98.35333752 172.66423557 -98.0625 176 C-97.4339577 182.92223555 -96.63775168 189.75293621 -95.5078125 196.61328125 C-94.84971853 201.00226183 -94.35005815 205.40039743 -93.875 209.8125 C-93.78734375 210.60156738 -93.6996875 211.39063477 -93.609375 212.20361328 C-93.22810138 215.8495423 -92.95890306 219.42275205 -93.00390625 223.08984375 C-92.99993231 227.0677597 -92.61290234 230.81281535 -92.0625 234.75 C-91.88847656 236.02359375 -91.71445313 237.2971875 -91.53515625 238.609375 C-91.13494525 241.1450184 -90.62628936 243.52138023 -90 246 C-89.82357248 247.47583018 -89.6817052 248.95594963 -89.5625 250.4375 C-89.25352053 254.14525368 -88.91702015 257.8468556 -88.52734375 261.546875 C-87.13203677 275.0187143 -86.43473613 288.46486159 -86 302 C-86.99 302 -87.98 302 -89 302 C-90.36991713 297.54776932 -90.36939575 292.92903871 -90.60546875 288.3125 C-90.77044485 284.53096669 -90.77044485 284.53096669 -92 281 C-92 278.98305779 -91.99604895 276.96606683 -91.9765625 274.94921875 C-92.00512653 271.35491172 -92.16965124 267.77511401 -92.375 264.1875 C-92.47941406 262.29064453 -92.47941406 262.29064453 -92.5859375 260.35546875 C-92.93483294 255.90533639 -93.71835743 251.54754158 -94.47851562 247.15209961 C-95.32822756 242.0160365 -95.95023906 236.85644952 -96.5625 231.6875 C-96.69325928 230.59373047 -96.82401855 229.49996094 -96.95874023 228.37304688 C-97.76783096 221.44062206 -98.36412419 214.54647359 -98.75390625 207.578125 C-99.04915649 203.28528029 -99.5022984 199.02347766 -100 194.75 C-100.0832251 194.02167969 -100.1664502 193.29335938 -100.25219727 192.54296875 C-100.61218675 189.55239601 -101.0444592 186.8666224 -102 184 C-102.2688039 181.00475657 -102.44428549 178.00979111 -102.62109375 175.0078125 C-102.85978372 172.00250562 -102.85978372 172.00250562 -104.09765625 169.4296875 C-105.19918284 166.46367217 -104.63923113 165.05359331 -104 162 C-104.35873222 159.8189081 -104.81008201 157.65253963 -105.3125 155.5 C-107.02004291 147.52728125 -107.525827 139.56514581 -108 131.4375 C-108.51786551 122.69927621 -109.299968 114.53513758 -111.28125 106.015625 C-112.41331504 100.45553474 -112.6268444 94.7755856 -113 89.125 C-113.79500919 77.14779816 -115.013385 65.28871925 -116.56152344 53.38671875 C-116.95790385 50.32514357 -117.34316466 47.26234602 -117.72476196 44.19889832 C-118.06054614 41.5166335 -118.40354751 38.83532409 -118.74835205 36.15420532 C-118.99158271 34.25328371 -119.22904937 32.35162732 -119.46630859 30.44995117 C-120.35739045 23.65233557 -121.58182468 17.12639418 -123.4140625 10.5168457 C-124 8 -124 8 -124 4 C-120.32589215 2.82428549 -116.83070817 2.92633254 -113 3 C-113 3.66 -113 4.32 -113 5 C-112.360625 4.443125 -111.72125 3.88625 -111.0625 3.3125 C-107.07050616 1.6016455 -105.37673737 2.48999003 -101.4765625 4.04296875 C-95.94541923 6.18039793 -90.96951595 7.25417581 -85.03515625 7.265625 C-83.74029297 7.26820313 -82.44542969 7.27078125 -81.11132812 7.2734375 C-80.44560791 7.26924805 -79.7798877 7.26505859 -79.09399414 7.26074219 C-77.07082006 7.250044 -75.0485373 7.26066542 -73.02539062 7.2734375 C-65.02520636 7.25752465 -58.56974186 6.52324729 -51 4 C-48.09490848 3.96987312 -45.20430983 4.06600811 -42.30078125 4.16015625 C-39.10334883 4.00501456 -36.34274433 3.34200349 -33.2644043 2.51000977 C-28.82445 1.51000281 -24.27930209 1.28567496 -19.75 0.9375 C-17.80705994 0.78283175 -15.86433828 0.62538887 -13.921875 0.46484375 C-13.07206055 0.399021 -12.22224609 0.33319824 -11.34667969 0.26538086 C-9.01538487 0.05789448 -9.01538487 0.05789448 -6.86425781 -0.55639648 C-4.37054223 -1.14978061 -2.45670406 -0.61417601 0 0 Z " fill="#7B736D" transform="translate(267,165)"/>
<path d="M0 0 C0.99 0.33 1.98 0.66 3 1 C3 1.66 3 2.32 3 3 C3.66 2.67 4.32 2.34 5 2 C8.62650802 1.73464575 12.24683946 1.55555884 15.87890625 1.39453125 C20.07362988 1.2895814 20.07362988 1.2895814 24 0 C24.99 0.33 25.98 0.66 27 1 C31.30051288 1.13652422 34.85097995 1.11704386 39 0 C39.99 0.495 39.99 0.495 41 1 C43.69013339 1.18704404 46.29686177 1.08581391 49 1 C49.33 0.67 49.66 0.34 50 0 C52.33297433 -0.04092937 54.66705225 -0.04241723 57 0 C57 0.66 57 1.32 57 2 C57.680625 1.8246875 58.36125 1.649375 59.0625 1.46875 C63.63668037 0.7388276 68.03635726 1.40862008 72.625 1.84375 C75.69590962 1.98592174 78.02439572 1.61991756 81 1 C84 2 84 2 85 3 C87.63575543 3.10024126 90.23954245 3.13875021 92.875 3.125 C93.60847656 3.12886719 94.34195313 3.13273438 95.09765625 3.13671875 C98.32433238 3.13084138 100.91843421 3.0271886 104 2 C105.67949557 2.46087517 107.35767462 2.92889579 109.02001953 3.44824219 C112.43764342 4.40062566 115.91842908 4.73856737 119.4375 5.125 C120.14970703 5.21136719 120.86191406 5.29773438 121.59570312 5.38671875 C125.20147235 5.79936809 128.71701006 6.03700005 132.34765625 5.9921875 C136 6 136 6 139 7 C140.45767916 7.04367578 141.91720995 7.03980314 143.375 7 C145.96943032 6.96233891 148.07729468 7.01656315 150.625 7.5625 C153.18653043 8.17810434 153.18653043 8.17810434 156.5 7.375 C160.68957611 6.92611685 161.54507601 7.80907259 165 10 C167.00249004 10.31259199 167.00249004 10.31259199 169.125 10.4375 C173 11 173 11 174.73828125 12.71875 C176.25165435 15.45500353 176.24965905 16.96296351 176.0625 20.0625 C175.86856176 26.63876927 176.86365536 32.83589496 178.59375 39.17578125 C179.08927342 41.40087201 178.68989211 42.853669 178 45 C177.67 45 177.34 45 177 45 C176.51770668 42.50056796 176.03910574 40.00051757 175.5625 37.5 C175.36043945 36.45585937 175.36043945 36.45585937 175.15429688 35.390625 C174.24628981 30.60697802 173.56103287 25.8368659 173 21 C172.34 21 171.68 21 171 21 C171.33 22.175625 171.66 23.35125 172 24.5625 C172.9969533 28.5011676 173.16869203 31.95139129 173 36 C172.67 34.68 172.34 33.36 172 32 C171.34 32 170.68 32 170 32 C169.67 27.05 169.34 22.1 169 17 C166.03 16.67 163.06 16.34 160 16 C160 15.34 160 14.68 160 14 C159.43152344 14.09539062 158.86304688 14.19078125 158.27734375 14.2890625 C152.87331825 15.06493261 149.27305643 14.6298538 144 13 C142.04192134 12.96841809 140.08237782 12.93883194 138.125 13 C135.00574317 13 131.96743387 12.55638004 128.8828125 12.12109375 C126.90934342 11.835454 126.90934342 11.835454 125 13 C124.01 12.505 124.01 12.505 123 12 C119.55934233 11.49416763 116.08890373 11.23844248 112.625 10.9375 C111.60092041 10.84662109 110.57684082 10.75574219 109.52172852 10.66210938 C101.82135809 10.03035719 94.19526416 9.84217332 86.47314453 10.07397461 C81.80148244 10.1766863 78.45347181 9.55871513 74 8 C70.44255 7.72312317 70.44255 7.72312317 66.8125 7.8125 C65.60207031 7.81894531 64.39164062 7.82539063 63.14453125 7.83203125 C59.97160688 7.86214508 59.97160688 7.86214508 57 9 C56.01 8.67 55.02 8.34 54 8 C51.32228714 7.90355695 48.67684323 7.8607108 46 7.875 C44.91332031 7.86919922 44.91332031 7.86919922 43.8046875 7.86328125 C40.60717121 7.86918073 38.05417393 7.98194202 35 9 C35 8.34 35 7.68 35 7 C27.5406783 7.62589099 27.5406783 7.62589099 20.125 8.625 C17.01134993 8.99863801 15.02322447 8.6802255 12 8 C7.34058991 7.69407876 7.34058991 7.69407876 3 9 C1.01994315 8.74450879 -0.96058227 8.48568205 -2.9296875 8.15625 C-5.00396344 7.88967593 -5.00396344 7.88967593 -6.98046875 8.5 C-9.34482787 9.08537325 -11.03866497 8.86585352 -13.4375 8.5 C-16.20479983 8.13314028 -17.98651302 7.9972413 -20.75 8.5625 C-23 9 -23 9 -25.1875 8 C-28.90420641 6.67850439 -31.83295594 7.20613102 -35.6953125 7.7109375 C-38 8 -38 8 -41 8 C-40.67 7.01 -40.34 6.02 -40 5 C-34.94469116 2.88985993 -29.34165128 2.80491402 -23.9453125 3.02734375 C-21.78061708 3.09512955 -21.78061708 3.09512955 -19 2 C-17 2 -15 2 -13 2 C-12.34 1.67 -11.68 1.34 -11 1 C-9.12137125 1.08744368 -7.24544819 1.24175542 -5.375 1.4375 C-4.37210937 1.53933594 -3.36921875 1.64117187 -2.3359375 1.74609375 C-1.56507813 1.82988281 -0.79421875 1.91367188 0 2 C0 1.34 0 0.68 0 0 Z " fill="#75716B" transform="translate(304,161)"/>
<path d="M0 0 C0.33 0 0.66 0 1 0 C1.0501123 0.58789307 1.10022461 1.17578613 1.15185547 1.78149414 C1.38929128 4.54215653 1.63134765 7.3023792 1.875 10.0625 C1.96305908 11.06369873 2.05111816 12.06489746 2.1418457 13.09643555 C2.66547792 18.86935337 3.32770518 24.58053456 4.1875 30.3125 C4.97795197 35.83953626 4.96364279 40.5072361 4 46 C4.66 46 5.32 46 6 46 C7.67802762 52.77727661 8.33658818 59.42679587 8.65795898 66.37695312 C8.83429862 70.02758747 9.2820077 73.42587655 10 77 C10.36686882 80.32837656 10.64666248 83.66423557 10.9375 87 C11.5660423 93.92223555 12.36224832 100.75293621 13.4921875 107.61328125 C14.15028147 112.00226183 14.64994185 116.40039743 15.125 120.8125 C15.21265625 121.60156738 15.3003125 122.39063477 15.390625 123.20361328 C15.77189862 126.8495423 16.04109694 130.42275205 15.99609375 134.08984375 C16.00006769 138.0677597 16.38709766 141.81281535 16.9375 145.75 C17.11152344 147.02359375 17.28554687 148.2971875 17.46484375 149.609375 C17.86505475 152.1450184 18.37371064 154.52138023 19 157 C19.17642752 158.47583018 19.3182948 159.95594963 19.4375 161.4375 C19.74647947 165.14525368 20.08297985 168.8468556 20.47265625 172.546875 C21.86796323 186.0187143 22.56526387 199.46486159 23 213 C22.01 213 21.02 213 20 213 C18.63008287 208.54776932 18.63060425 203.92903871 18.39453125 199.3125 C18.22955515 195.53096669 18.22955515 195.53096669 17 192 C17 189.98305779 17.00395105 187.96606683 17.0234375 185.94921875 C16.99487347 182.35491172 16.83034876 178.77511401 16.625 175.1875 C16.55539063 173.92292969 16.48578125 172.65835938 16.4140625 171.35546875 C16.06516706 166.90533639 15.28164257 162.54754158 14.52148438 158.15209961 C13.67177244 153.0160365 13.04976094 147.85644952 12.4375 142.6875 C12.30674072 141.59373047 12.17598145 140.49996094 12.04125977 139.37304688 C11.23216904 132.44062206 10.63587581 125.54647359 10.24609375 118.578125 C9.95084351 114.28528029 9.4977016 110.02347766 9 105.75 C8.87516235 104.65751953 8.87516235 104.65751953 8.74780273 103.54296875 C8.38781325 100.55239601 7.9555408 97.8666224 7 95 C6.7311961 92.00475657 6.55571451 89.00979111 6.37890625 86.0078125 C6.14021628 83.00250562 6.14021628 83.00250562 4.90234375 80.4296875 C3.80081716 77.46367217 4.36076887 76.05359331 5 73 C4.64126778 70.8189081 4.18991799 68.65253963 3.6875 66.5 C1.97997647 58.52737173 1.4735897 50.56512732 1 42.4375 C0.47095062 33.41385499 -0.34086477 24.92249972 -2.40234375 16.1171875 C-3.36766328 11.08238368 -3.25655578 6.10260938 -3 1 C-2.34 1.66 -1.68 2.32 -1 3 C-0.67 2.01 -0.34 1.02 0 0 Z " fill="#807D7B" transform="translate(158,254)"/>
<path d="M0 0 C1.78108218 3.31926955 2.19911262 5.40059815 2.0625 9.1875 C1.97542152 13.54142424 2.22646257 17.67043221 2.77734375 21.984375 C3.0731821 24.66249059 3.06899816 27.30907195 3 30 C3.99 30 4.98 30 6 30 C8.7300764 30.15745034 11.45865588 30.32363802 14.1875 30.5 C15.31188477 30.57154297 15.31188477 30.57154297 16.45898438 30.64453125 C18.30604344 30.76217832 20.15302904 30.88097771 22 31 C21.67 31.66 21.34 32.32 21 33 C19.824375 32.979375 18.64875 32.95875 17.4375 32.9375 C13.54365098 32.94442856 9.82740399 33.21889714 6 34 C5.67 34.66 5.34 35.32 5 36 C6.98 35.505 6.98 35.505 9 35 C8 37 8 37 4 39 C4.66 44.28 5.32 49.56 6 55 C6.33 55 6.66 55 7 55 C6.98839844 55.83144531 6.97679687 56.66289062 6.96484375 57.51953125 C6.95582031 58.60621094 6.94679688 59.69289063 6.9375 60.8125 C6.92589844 61.89144531 6.91429687 62.97039062 6.90234375 64.08203125 C6.86375234 67.06512169 6.86375234 67.06512169 8 70 C8.13431423 71.43297355 8.22353579 72.87049689 8.28125 74.30859375 C8.31863281 75.13810547 8.35601563 75.96761719 8.39453125 76.82226562 C8.42933594 77.68529297 8.46414063 78.54832031 8.5 79.4375 C8.56915839 81.14468764 8.64194788 82.8517329 8.71875 84.55859375 C8.74904297 85.31454834 8.77933594 86.07050293 8.81054688 86.84936523 C8.93224327 88.9698104 8.93224327 88.9698104 9.50708008 90.83886719 C10.20840779 93.91373241 10.14918229 96.86764759 10.16796875 100.01953125 C10.17211288 100.70637497 10.17625702 101.39321869 10.18052673 102.10087585 C10.19022178 104.33813801 10.19017874 106.57522 10.1875 108.8125 C10.18756042 109.57643066 10.18762085 110.34036133 10.18768311 111.12744141 C10.1729808 124.17761929 9.47343261 137.02835422 8 150 C7.80638505 151.800684 7.61367296 153.60146531 7.421875 155.40234375 C6.96906272 159.60418707 6.49257398 163.80264088 6 168 C5.34 168 4.68 168 4 168 C4.02320313 169.19496094 4.04640625 170.38992188 4.0703125 171.62109375 C4.2810946 187.30130573 4.2810946 187.30130573 2 195 C1.01 194.67 0.02 194.34 -1 194 C-1.50537855 182.87303287 0.04183391 172.00844778 1.4375 161 C3.51776382 144.34051775 5.16258305 128.05639831 5.0625 111.25 C5.05746985 109.76302236 5.05290965 108.27604305 5.04882812 106.7890625 C5.03795432 103.19267294 5.0207752 99.59634763 5 96 C5.33 96.99 5.66 97.98 6 99 C6.66 99 7.32 99 8 99 C7.84966309 97.61723877 7.84966309 97.61723877 7.69628906 96.20654297 C7.55416992 94.89830566 7.41205078 93.59006836 7.265625 92.2421875 C7.18759644 91.52424515 7.10956787 90.8063028 7.0291748 90.06660461 C6.58716931 85.99563973 6.14762985 81.92442634 5.71191406 77.8527832 C4.87426956 70.03360833 4.03099311 62.21574049 3.12927246 54.40365601 C1.03181457 36.20110216 -0.65967224 18.36087748 0 0 Z " fill="#6A6967" transform="translate(886,289)"/>
<path d="M0 0 C0.33 0 0.66 0 1 0 C0.99111755 0.85522247 0.98223511 1.71044495 0.9730835 2.59158325 C0.00370877 56.00191085 0.00370877 56.00191085 4.46533203 109.140625 C5.39720696 115.86714501 6.06210438 122.6199584 6.75 129.375 C6.87737549 130.54788574 7.00475098 131.72077148 7.13598633 132.92919922 C7.74412221 138.65769431 8.1401605 144.23940348 8 150 C7.34 150 6.68 150 6 150 C3.64722934 144.33083242 2.43650805 139.36650813 1.9375 133.26953125 C1.86102737 132.44851929 1.78455475 131.62750732 1.70576477 130.78161621 C1.46045574 128.12605107 1.23030902 125.46940384 1 122.8125 C0.83222881 120.97473847 0.66319194 119.13709206 0.49291992 117.29956055 C0.15193321 113.6141197 -0.18464624 109.92832014 -0.51806641 106.2421875 C-1.18476059 98.92641682 -1.92875771 91.61920729 -2.6875 84.3125 C-2.86635742 82.55353394 -2.86635742 82.55353394 -3.04882812 80.7590332 C-3.16033203 79.67968506 -3.27183594 78.60033691 -3.38671875 77.48828125 C-3.48170654 76.56571533 -3.57669434 75.64314941 -3.67456055 74.69262695 C-3.90175873 72.81283043 -4.19317786 70.94017776 -4.53271484 69.07739258 C-6.20810027 58.04383287 -4.9435405 46.12445537 -4.62768555 34.96972656 C-4.56121788 32.57888214 -4.50226277 30.18791642 -4.44335938 27.796875 C-4.4014956 26.27342496 -4.35919534 24.74998683 -4.31640625 23.2265625 C-4.29969376 22.51319733 -4.28298126 21.79983215 -4.26576233 21.06484985 C-4.11437795 16.11437795 -4.11437795 16.11437795 -3 15 C-2.71450351 11.96376745 -2.55131186 8.92742215 -2.37890625 5.8828125 C-2 3 -2 3 0 0 Z " fill="#746F66" transform="translate(886,238)"/>
<path d="M0 0 C0.66 0 1.32 0 2 0 C2.67364661 2.08108685 3.33866798 4.1649671 4 6.25 C4.37125 7.41015625 4.7425 8.5703125 5.125 9.765625 C6 13 6 13 6 17 C6.99 17 7.98 17 9 17 C10.23862399 20.71587197 10.36593619 24.22077118 10.62109375 28.11328125 C10.90795526 31.04592263 10.90795526 31.04592263 11.99609375 33.88671875 C13.15986922 37.49578118 13.42063589 40.71547939 13.625 44.5 C13.68192017 45.53253906 13.68192017 45.53253906 13.73999023 46.5859375 C14.08350394 53.39078049 14.09579996 60.1875586 14 67 C13.195625 67.12375 12.39125 67.2475 11.5625 67.375 C10.2940625 67.684375 10.2940625 67.684375 9 68 C8.67 68.66 8.34 69.32 8 70 C6.02 70 4.04 70 2 70 C2 70.66 2 71.32 2 72 C-0.18080993 72.56539517 -2.35048343 73.06838701 -4.5625 73.5 C-7.12286851 73.97476438 -7.12286851 73.97476438 -10 75 C-11.485 74.01 -11.485 74.01 -13 73 C-13 72.34 -13 71.68 -13 71 C-17.455 71.495 -17.455 71.495 -22 72 C-22 72.66 -22 73.32 -22 74 C-23.98 74.495 -23.98 74.495 -26 75 C-26 74.01 -26 73.02 -26 72 C-23.69 70.68 -21.38 69.36 -19 68 C-18.67 68.33 -18.34 68.66 -18 69 C-12.24087815 69.41776013 -7.64631548 68.24226591 -2.25 66.5 C5.65540541 64 5.65540541 64 9 64 C8.67 56.08 8.34 48.16 8 40 C7.01 39.505 7.01 39.505 6 39 C5.5078125 36.91015625 5.5078125 36.91015625 5.125 34.0625 C4.19737565 27.80851649 2.84570127 21.71540331 1.32080078 15.58422852 C0.06967144 10.27610218 -0.16185967 5.45467091 0 0 Z " fill="#6C6D6F" transform="translate(498,385)"/>
<path d="M0 0 C0.66 0 1.32 0 2 0 C2.67466072 2.87333181 3.3399234 5.74831482 4 8.625 C4.28617187 9.83736328 4.28617187 9.83736328 4.578125 11.07421875 C5.57925543 15.47204169 6.2353082 19.45561039 6 24 C6.66 24 7.32 24 8 24 C9.07209865 33.02549116 9.08817037 41.9903989 9 51.0625 C7.98167415 65.4049206 7.98167415 65.4049206 11 79 C11.01657426 81.48390378 10.97314268 83.93393671 10.87890625 86.4140625 C10.85529526 87.14370209 10.83168427 87.87334167 10.80735779 88.62509155 C10.73070246 90.95859139 10.64668657 93.29176089 10.5625 95.625 C10.50928115 97.20571293 10.45654074 98.78644205 10.40429688 100.3671875 C10.27508487 104.24500138 10.13927041 108.12253486 10 112 C9.34 111.67 8.68 111.34 8 111 C8 109.35 8 107.7 8 106 C7.34 106 6.68 106 6 106 C5.97494385 105.40050537 5.9498877 104.80101074 5.92407227 104.18334961 C5.80714227 101.43456676 5.68486053 98.68604625 5.5625 95.9375 C5.52318359 94.99455078 5.48386719 94.05160156 5.44335938 93.08007812 C5.40146484 92.15517578 5.35957031 91.23027344 5.31640625 90.27734375 C5.27974854 89.43421631 5.24309082 88.59108887 5.20532227 87.72241211 C5.0272258 84.89655423 5.0272258 84.89655423 4.49560547 81.7097168 C3.94247401 77.56940522 3.81010138 73.53794777 3.75390625 69.3671875 C3.72230135 67.66934668 3.69038801 65.97151157 3.65820312 64.27368164 C3.64281494 63.3916507 3.62742676 62.50961975 3.61157227 61.6008606 C3.3619396 47.73429378 2.96746467 33.8989359 2 20.0625 C1.91693604 18.8564209 1.83387207 17.6503418 1.74829102 16.40771484 C1.5559119 11.03243278 1.5559119 11.03243278 0 6 C-0.039992 4.00039988 -0.04346799 1.99952758 0 0 Z " fill="#5E5D5A" transform="translate(475,182)"/>
<path d="M0 0 C0 0.99 0 1.98 0 3 C-1 4 -1 4 -3.5625 4.0625 C-4.7690625 4.0315625 -4.7690625 4.0315625 -6 4 C-6 4.66 -6 5.32 -6 6 C-6.7425 6.144375 -7.485 6.28875 -8.25 6.4375 C-9.79458886 6.75343863 -11.33664967 7.08680903 -12.86328125 7.48046875 C-15.20859192 8.05071796 -17.56048373 8.45746556 -19.9375 8.875 C-23.89701285 9.64135732 -26.57687319 10.84832029 -30 13 C-32.8125 13.1875 -32.8125 13.1875 -35 13 C-35 12.34 -35 11.68 -35 11 C-35.515625 11.45375 -36.03125 11.9075 -36.5625 12.375 C-39.62966227 14.41977484 -42.40506672 15.22965715 -46 16 C-47.33981486 15.6937566 -48.67511887 15.36548445 -50 15 C-52.06669397 15.90833725 -52.06669397 15.90833725 -54 17 C-54.99 17 -55.98 17 -57 17 C-59.27911984 17.74291752 -61.50600058 18.5885789 -63.74609375 19.44140625 C-66.24333446 20.06030646 -67.59569841 19.82699212 -70 19 C-69.38722388 16.03824877 -68.74627478 14.61941217 -67 12 C-63.91796875 11.33984375 -63.91796875 11.33984375 -60.1875 10.9375 C-55.73238752 10.44457396 -52.11119433 9.76096157 -48 8 C-46.44716925 7.62418886 -44.88346751 7.29082374 -43.3125 7 C-42.013125 6.75443359 -42.013125 6.75443359 -40.6875 6.50390625 C-39.3571875 6.25447266 -39.3571875 6.25447266 -38 6 C-36.270511 5.64741073 -34.54133511 5.29328162 -32.8125 4.9375 C-21.75776627 2.74741124 -21.75776627 2.74741124 -18 4 C-18 3.34 -18 2.68 -18 2 C-17.15695312 1.86722656 -16.31390625 1.73445313 -15.4453125 1.59765625 C-14.34960938 1.42105469 -13.25390625 1.24445313 -12.125 1.0625 C-10.48917969 0.80146484 -10.48917969 0.80146484 -8.8203125 0.53515625 C-2.32466063 -0.69739819 -2.32466063 -0.69739819 0 0 Z " fill="#717373" transform="translate(590,305)"/>
<path d="M0 0 C2 2 2 2 2.265625 4.6328125 C2.22656412 13.36291877 1.64490162 21.96764289 0.85473633 30.66088867 C-0.14661082 41.96678647 -0.72354654 53.29189722 -1.30224609 64.62573242 C-1.67272585 71.77906781 -2.08607233 78.89077502 -3 86 C-5.60622672 82.09065991 -5.29615896 78.83209306 -5.24609375 74.296875 C-5.24056992 73.38468201 -5.23504608 72.47248901 -5.22935486 71.53265381 C-5.05990685 58.44741947 -4.09892331 45.39048263 -3.20404053 32.33905029 C-3.01244213 29.51117689 -2.82960932 26.68276192 -2.6467371 23.8543129 C-2.42687418 20.47025637 -2.19957952 17.08671563 -1.97265625 13.703125 C-1.89032242 12.43986389 -1.80798859 11.17660278 -1.72315979 9.87506104 C-1.64315231 8.72165222 -1.56314484 7.56824341 -1.48071289 6.37988281 C-1.41187393 5.36178528 -1.34303497 4.34368774 -1.27210999 3.29473877 C-1 1 -1 1 0 0 Z " fill="#655B4A" transform="translate(891,139)"/>
<path d="M0 0 C0.66 0 1.32 0 2 0 C3.23862399 3.71587197 3.36593619 7.22077118 3.62109375 11.11328125 C3.90795526 14.04592263 3.90795526 14.04592263 4.99609375 16.88671875 C6.15986922 20.49578118 6.42063589 23.71547939 6.625 27.5 C6.66294678 28.18835938 6.70089355 28.87671875 6.73999023 29.5859375 C7.08350394 36.39078049 7.09579996 43.1875586 7 50 C6.195625 50.12375 5.39125 50.2475 4.5625 50.375 C3.716875 50.58125 2.87125 50.7875 2 51 C1.505 51.99 1.505 51.99 1 53 C-0.98 53 -2.96 53 -5 53 C-5 53.66 -5 54.32 -5 55 C-7.18080993 55.56539517 -9.35048343 56.06838701 -11.5625 56.5 C-14.12286851 56.97476438 -14.12286851 56.97476438 -17 58 C-17.99 57.34 -18.98 56.68 -20 56 C-20 55.34 -20 54.68 -20 54 C-24.455 54.495 -24.455 54.495 -29 55 C-29 55.66 -29 56.32 -29 57 C-30.98 57.495 -30.98 57.495 -33 58 C-33 57.01 -33 56.02 -33 55 C-30.69 53.68 -28.38 52.36 -26 51 C-25.67 51.33 -25.34 51.66 -25 52 C-19.24087815 52.41776013 -14.64631548 51.24226591 -9.25 49.5 C-1.34459459 47 -1.34459459 47 2 47 C2 47.66 2 48.32 2 49 C2.99 48.67 3.98 48.34 5 48 C4.91782813 43.91592173 4.80511389 39.83319912 4.6875 35.75 C4.65366211 34.04070312 4.65366211 34.04070312 4.61914062 32.296875 C4.40543534 25.45830582 3.58418662 19.28672008 1.69921875 12.703125 C0.6173195 8.5205871 0.27596624 4.30126685 0 0 Z " fill="#747677" transform="translate(505,402)"/>
<path d="M0 0 C0.33 0 0.66 0 1 0 C2.34754612 12.62534755 3.69183222 25.25103472 5.03071594 37.87730408 C5.60727795 43.31188016 6.18664293 48.7461291 6.77229309 54.17973328 C6.9912075 56.21512534 7.20832024 58.25069922 7.42456055 60.28637695 C7.67540675 62.64723593 7.92926997 65.00777715 8.18676758 67.36791992 C8.77469521 72.94999733 9.12833676 78.38695553 9 84 C8.34 84 7.68 84 7 84 C6.86722656 83.11957031 6.73445312 82.23914063 6.59765625 81.33203125 C6.42105469 80.17058594 6.24445312 79.00914062 6.0625 77.8125 C5.88847656 76.66394531 5.71445312 75.51539063 5.53515625 74.33203125 C5.22685247 72.41244641 4.89386271 70.49575834 4.4934082 68.59326172 C4.01980467 66.10408968 3.7548357 63.70134885 3.5703125 61.17578125 C3.4986084 60.24233887 3.4269043 59.30889648 3.35302734 58.34716797 C3.27777832 57.34572754 3.2025293 56.34428711 3.125 55.3125 C2.42243165 46.30105624 1.47845734 37.34565115 0.375 28.375 C-2.4650291 4.9300582 -2.4650291 4.9300582 0 0 Z " fill="#605D57" transform="translate(885,304)"/>
<path d="M0 0 C1.78108218 3.31926955 2.19911262 5.40059815 2.0625 9.1875 C1.97542152 13.54142424 2.22646257 17.67043221 2.77734375 21.984375 C3.0731821 24.66249059 3.06899816 27.30907195 3 30 C3.99 30 4.98 30 6 30 C8.7300764 30.15745034 11.45865588 30.32363802 14.1875 30.5 C15.31188477 30.57154297 15.31188477 30.57154297 16.45898438 30.64453125 C18.30604344 30.76217832 20.15302904 30.88097771 22 31 C21.67 31.66 21.34 32.32 21 33 C19.824375 32.979375 18.64875 32.95875 17.4375 32.9375 C13.54365098 32.94442856 9.82740399 33.21889714 6 34 C5.67 34.66 5.34 35.32 5 36 C6.98 35.505 6.98 35.505 9 35 C8 37 8 37 4 39 C4.66 44.28 5.32 49.56 6 55 C6.33 55 6.66 55 7 55 C6.98839844 55.83144531 6.97679687 56.66289062 6.96484375 57.51953125 C6.95582031 58.60621094 6.94679688 59.69289063 6.9375 60.8125 C6.92589844 61.89144531 6.91429687 62.97039062 6.90234375 64.08203125 C6.86375234 67.06512169 6.86375234 67.06512169 8 70 C8.13431423 71.43297355 8.22353579 72.87049689 8.28125 74.30859375 C8.31863281 75.13810547 8.35601563 75.96761719 8.39453125 76.82226562 C8.42933594 77.68529297 8.46414063 78.54832031 8.5 79.4375 C8.56915839 81.14468764 8.64194788 82.8517329 8.71875 84.55859375 C8.74904297 85.31454834 8.77933594 86.07050293 8.81054688 86.84936523 C8.99953094 88.99467529 9.471252 90.91698128 10 93 C10.06790675 95.24907152 10.08499984 97.50001605 10.0625 99.75 C10.05347656 100.92046875 10.04445313 102.0909375 10.03515625 103.296875 C10.02355469 104.18890625 10.01195312 105.0809375 10 106 C9.67 106 9.34 106 9 106 C7.47544046 94.20070353 5.95842885 82.40479031 4.84472656 70.55859375 C4.36825679 65.54107536 3.83891145 60.53247037 3.2620697 55.52563477 C1.12094797 36.9351183 -0.67352906 18.7465588 0 0 Z " fill="#77746C" transform="translate(886,289)"/>
<path d="M0 0 C0.33 0 0.66 0 1 0 C0.87965583 5.36711776 0.75533447 10.73412521 0.62768555 16.10107422 C0.58498638 17.91810754 0.54328239 19.73516459 0.50268555 21.55224609 C0.28862794 31.10291499 0.03138795 40.65213565 -0.41015625 50.1953125 C-0.43887314 50.95544647 -0.46759003 51.71558044 -0.49717712 52.49874878 C-0.76808195 57.76808195 -0.76808195 57.76808195 -3 60 C-3.02492457 53.81103806 -3.04296528 47.62210606 -3.05493164 41.43310547 C-3.05992614 39.33251435 -3.06672404 37.23192664 -3.07543945 35.13134766 C-3.19804591 4.79706886 -3.19804591 4.79706886 0 0 Z " fill="#665E53" transform="translate(886,238)"/>
<path d="M0 0 C0.66 0 1.32 0 2 0 C2.64783124 2.87456281 3.29332518 5.74961759 3.9375 8.625 C4.11990234 9.43324219 4.30230469 10.24148437 4.49023438 11.07421875 C4.66748047 11.86699219 4.84472656 12.65976563 5.02734375 13.4765625 C5.18968506 14.19924316 5.35202637 14.92192383 5.51928711 15.66650391 C6.6537625 21.17352053 7.1383596 26.40256357 7.09765625 32.0234375 C7.0962413 32.76961334 7.09482635 33.51578918 7.09336853 34.28457642 C7.08780874 36.64809318 7.07526389 39.01151227 7.0625 41.375 C7.0574798 42.98567571 7.0529178 44.59635291 7.04882812 46.20703125 C7.03785251 50.13805799 7.02061596 54.06901248 7 58 C6.34 57.67 5.68 57.34 5 57 C5.01571045 55.85168701 5.01571045 55.85168701 5.03173828 54.68017578 C5.07369304 51.16181818 5.09945063 47.64351348 5.125 44.125 C5.14175781 42.92101562 5.15851563 41.71703125 5.17578125 40.4765625 C5.21449978 33.35235218 4.64199947 26.92008046 3 20 C2.46284275 16.82620817 1.96076055 13.6491751 1.46484375 10.46875 C1.11828308 8.00824425 1.11828308 8.00824425 0 6 C-0.039992 4.00039988 -0.04346799 1.99952758 0 0 Z " fill="#5D5B56" transform="translate(475,182)"/>
<path d="M0 0 C6.31830569 2.44161655 11.72423732 3.2310762 18.4140625 3.08203125 C19.19330078 3.07300781 19.97253906 3.06398437 20.77539062 3.0546875 C22.67591697 3.03136816 24.57628258 2.99550711 26.4765625 2.95703125 C26.1465625 3.61703125 25.8165625 4.27703125 25.4765625 4.95703125 C22.5703125 5.3359375 22.5703125 5.3359375 18.9765625 5.51953125 C14.90657483 5.37502594 14.90657483 5.37502594 11.4765625 6.95703125 C13.7865625 7.28703125 16.0965625 7.61703125 18.4765625 7.95703125 C18.1465625 8.61703125 17.8165625 9.27703125 17.4765625 9.95703125 C14.1765625 9.95703125 10.8765625 9.95703125 7.4765625 9.95703125 C7.1465625 9.29703125 6.8165625 8.63703125 6.4765625 7.95703125 C5.4865625 7.29703125 4.4965625 6.63703125 3.4765625 5.95703125 C4.1365625 5.62703125 4.7965625 5.29703125 5.4765625 4.95703125 C-0.17639713 1.84322606 -4.10062359 0.53874072 -10.50390625 1.66015625 C-13.02157982 2.03025914 -15.09253314 1.66277768 -17.5234375 0.95703125 C-17.5234375 0.62703125 -17.5234375 0.29703125 -17.5234375 -0.04296875 C-15.5434375 -0.37296875 -13.5634375 -0.70296875 -11.5234375 -1.04296875 C-11.5234375 -0.38296875 -11.5234375 0.27703125 -11.5234375 0.95703125 C-10.8840625 0.40015625 -10.2446875 -0.15671875 -9.5859375 -0.73046875 C-5.59394366 -2.44132325 -3.90017487 -1.55297872 0 0 Z " fill="#837C76" transform="translate(165.5234375,169.04296875)"/>
<path d="M0 0 C0.33 0 0.66 0 1 0 C2.71470076 13.39609967 3.24179823 26.49959855 3 40 C2.67 40 2.34 40 2 40 C1.34 33.4 0.68 26.8 0 20 C0 30.89 0 41.78 0 53 C-0.33 53 -0.66 53 -1 53 C-1.28842841 48.46530711 -1.57310992 43.93039925 -1.85449219 39.39526367 C-1.95049623 37.8561384 -2.04748038 36.3170739 -2.14550781 34.77807617 C-2.65000624 26.84766976 -3.14473353 18.95129812 -3 11 C-2.67 11 -2.34 11 -2 11 C-1.67 12.65 -1.34 14.3 -1 16 C-0.67 10.72 -0.34 5.44 0 0 Z " fill="#737371" transform="translate(485,277)"/>
<path d="M0 0 C0.33 0 0.66 0 1 0 C1.13277344 0.90363281 1.26554687 1.80726563 1.40234375 2.73828125 C1.66724609 4.50751953 1.66724609 4.50751953 1.9375 6.3125 C2.11152344 7.48425781 2.28554688 8.65601563 2.46484375 9.86328125 C2.92093031 13.01641403 2.92093031 13.01641403 4 16 C4.08799471 17.76408128 4.11764257 19.53133766 4.11352539 21.29760742 C4.11344986 22.37850143 4.11337433 23.45939545 4.11329651 24.57304382 C4.10813522 25.73874405 4.10297394 26.90444427 4.09765625 28.10546875 C4.0962413 29.29981033 4.09482635 30.49415192 4.09336853 31.72468567 C4.0877635 35.54564908 4.07521011 39.36655425 4.0625 43.1875 C4.05748565 45.77538978 4.05292263 48.36328048 4.04882812 50.95117188 C4.03779243 57.30080118 4.02104936 63.65039643 4 70 C3.67 70 3.34 70 3 70 C2.12844873 64.67939122 1.81095391 59.50753022 1.71875 54.12109375 C1.69161171 52.85833618 1.69161171 52.85833618 1.66392517 51.57006836 C1.62563095 49.78021763 1.58908622 47.99032873 1.5541687 46.20040894 C1.46360812 41.58130918 1.35940181 36.96252968 1.25390625 32.34375 C1.223218 30.99185829 1.223218 30.99185829 1.19190979 29.61265564 C0.95968917 19.73350195 0.53738198 9.86724779 0 0 Z " fill="#71706C" transform="translate(477,197)"/>
<path d="M0 0 C0.66 0 1.32 0 2 0 C2.33 2.97 2.66 5.94 3 9 C3.33 9 3.66 9 4 9 C3.98839844 9.77085937 3.97679687 10.54171875 3.96484375 11.3359375 C3.95582031 12.33882812 3.94679687 13.34171875 3.9375 14.375 C3.92589844 15.37273437 3.91429687 16.37046875 3.90234375 17.3984375 C3.81993398 19.98432453 3.81993398 19.98432453 5 22 C5 24.33333333 5 26.66666667 5 29 C5.33 29.99 5.66 30.98 6 32 C6.20359805 34.43469338 6.36487704 36.87304805 6.5 39.3125 C6.75864718 43.9542932 7.19845284 48.42256953 8 53 C8.03622333 54.66627298 8.04899842 56.33405374 8 58 C7.34 57.67 6.68 57.34 6 57 C5.63696289 55.24780273 5.63696289 55.24780273 5.47265625 52.93359375 C5.37005493 51.6338562 5.37005493 51.6338562 5.26538086 50.30786133 C5.16495483 48.88703247 5.16495483 48.88703247 5.0625 47.4375 C4.31211623 38.04722704 3.28031395 28.72591282 2.05297852 19.38647461 C1.21252857 12.93450758 0.54301329 6.48384662 0 0 Z " fill="#8B847F" transform="translate(154,219)"/>
<path d="M0 0 C0.33 0 0.66 0 1 0 C2.21086752 11.35349319 3.38178283 22.56772513 3 34 C2.01 34 1.02 34 0 34 C-1.43405348 8.31507781 -1.43405348 8.31507781 -1 1 C-0.67 0.67 -0.34 0.34 0 0 Z " fill="#626260" transform="translate(485,296)"/>
<path d="M0 0 C0.33 0 0.66 0 1 0 C1.33 2.64 1.66 5.28 2 8 C2.33 8 2.66 8 3 8 C2.98839844 8.83144531 2.97679687 9.66289062 2.96484375 10.51953125 C2.95582031 11.60621094 2.94679688 12.69289063 2.9375 13.8125 C2.92589844 14.89144531 2.91429687 15.97039062 2.90234375 17.08203125 C2.86375234 20.06512169 2.86375234 20.06512169 4 23 C4.13431423 24.43297355 4.22353579 25.87049689 4.28125 27.30859375 C4.33732422 28.55286133 4.33732422 28.55286133 4.39453125 29.82226562 C4.42933594 30.68529297 4.46414063 31.54832031 4.5 32.4375 C4.56915839 34.14468764 4.64194788 35.8517329 4.71875 37.55859375 C4.74904297 38.31454834 4.77933594 39.07050293 4.81054688 39.84936523 C4.99953094 41.99467529 5.471252 43.91698128 6 46 C6.06790675 48.24907152 6.08499984 50.50001605 6.0625 52.75 C6.05347656 53.92046875 6.04445313 55.0909375 6.03515625 56.296875 C6.02355469 57.18890625 6.01195312 58.0809375 6 59 C5.67 59 5.34 59 5 59 C-0.4572026 16.76409531 -0.4572026 16.76409531 0 0 Z " fill="#7B7974" transform="translate(890,336)"/>
<path d="M0 0 C-0.33 0.66 -0.66 1.32 -1 2 C-4.21035804 2.54006023 -7.39192306 2.89020889 -10.62890625 3.2109375 C-12.42729276 3.41191326 -14.21549257 3.69980249 -16 4 C-16.33 4.66 -16.66 5.32 -17 6 C-16.34 6.33 -15.68 6.66 -15 7 C-16 8 -16 8 -19.375 8.375 C-20.57125 8.25125 -21.7675 8.1275 -23 8 C-24.9375 5.5 -24.9375 5.5 -26 3 C-21.375 0.875 -21.375 0.875 -18 2 C-16.05274513 1.75553943 -14.11467485 1.43339025 -12.1875 1.0625 C-8.04472457 0.26964944 -4.22069538 -0.10725235 0 0 Z " fill="#848586" transform="translate(293,467)"/>
<path d="M0 0 C0.33 0 0.66 0 1 0 C2.07209865 9.02549116 2.08817037 17.9903989 2 27.0625 C0.98167415 41.4049206 0.98167415 41.4049206 4 55 C3.91348369 56.54613014 3.75997364 58.08909387 3.5625 59.625 C3.46066406 60.44226563 3.35882813 61.25953125 3.25390625 62.1015625 C3.17011719 62.72804688 3.08632813 63.35453125 3 64 C2.67 64 2.34 64 2 64 C0.13931741 49.72183086 -0.24795206 35.69905068 -0.125 21.3125 C-0.11493485 19.23112417 -0.10581534 17.14974355 -0.09765625 15.06835938 C-0.07595792 10.04545105 -0.04162968 5.02278103 0 0 Z " fill="#75746F" transform="translate(482,206)"/>
<path d="M0 0 C0.33 0.99 0.66 1.98 1 3 C1.66 3 2.32 3 3 3 C3.33 2.34 3.66 1.68 4 1 C4.88021369 7.71162938 5.11381955 14.23405981 5 21 C4.67 21 4.34 21 4 21 C3.67 17.7 3.34 14.4 3 11 C2.67 17.6 2.34 24.2 2 31 C1.67 31 1.34 31 1 31 C0.08012389 20.63496744 -0.1132812 10.39669641 0 0 Z " fill="#6F6D69" transform="translate(891,385)"/>
<path d="M0 0 C0.33 0 0.66 0 1 0 C1 7.92 1 15.84 1 24 C0.34 23.67 -0.32 23.34 -1 23 C-1 21.35 -1 19.7 -1 18 C-1.66 18 -2.32 18 -3 18 C-3.33 12.72 -3.66 7.44 -4 2 C-3.34 2 -2.68 2 -2 2 C-1.67 2.99 -1.34 3.98 -1 5 C-0.67 3.35 -0.34 1.7 0 0 Z " fill="#676765" transform="translate(484,270)"/>
<path d="M0 0 C0.9583374 0.00523682 1.9166748 0.01047363 2.90405273 0.01586914 C4.45576172 0.02070313 4.45576172 0.02070313 6.03881836 0.02563477 C7.12743164 0.03401367 8.21604492 0.04239258 9.33764648 0.05102539 C10.97636719 0.05779297 10.97636719 0.05779297 12.64819336 0.06469727 C15.35723144 0.07652713 18.06616248 0.09300996 20.77514648 0.11352539 C20.77514648 1.10352539 20.77514648 2.09352539 20.77514648 3.11352539 C17.15021314 3.17140323 13.52539791 3.20707959 9.90014648 3.23852539 C8.86760742 3.2552832 7.83506836 3.27204102 6.77124023 3.28930664 C5.78510742 3.29575195 4.79897461 3.30219727 3.78295898 3.30883789 C2.4161499 3.32454834 2.4161499 3.32454834 1.02172852 3.34057617 C-1.22485352 3.11352539 -1.22485352 3.11352539 -3.22485352 1.11352539 C-2.22485352 0.11352539 -2.22485352 0.11352539 0 0 Z " fill="#706D65" transform="translate(309.224853515625,163.886474609375)"/>
<path d="M0 0 C4.46484337 4.46484337 3.11319976 13.75232533 3.1328125 19.7734375 C2.99842183 22.0264575 2.80927079 23.88845437 2 26 C1.01 26.33 0.02 26.66 -1 27 C-0.67 18.09 -0.34 9.18 0 0 Z " fill="#63615E" transform="translate(893,394)"/>
<path d="M0 0 C1.134375 0.020625 2.26875 0.04125 3.4375 0.0625 C4.0975 1.3825 4.7575 2.7025 5.4375 4.0625 C4.839375 3.7325 4.24125 3.4025 3.625 3.0625 C1.38363529 1.85462012 1.38363529 1.85462012 -1.5625 2.0625 C-0.9025 2.7225 -0.2425 3.3825 0.4375 4.0625 C0.5625 7.1875 0.5625 7.1875 0.4375 10.0625 C0.1075 8.7425 -0.2225 7.4225 -0.5625 6.0625 C-3.5325 5.7325 -6.5025 5.4025 -9.5625 5.0625 C-9.5625 4.4025 -9.5625 3.7425 -9.5625 3.0625 C-10.18898438 3.14628906 -10.81546875 3.23007813 -11.4609375 3.31640625 C-12.27820313 3.41824219 -13.09546875 3.52007812 -13.9375 3.625 C-14.74960937 3.72941406 -15.56171875 3.83382812 -16.3984375 3.94140625 C-18.5625 4.0625 -18.5625 4.0625 -20.5625 3.0625 C-15.77380485 1.0462073 -11.73443066 0.91458609 -6.63671875 1.08984375 C-3.57261911 1.04945072 -3.620045 0.06350956 0 0 Z " fill="#787671" transform="translate(473.5625,171.9375)"/>
<path d="M0 0 C-3.465 1.485 -3.465 1.485 -7 3 C-6.01 4.485 -6.01 4.485 -5 6 C-5.99 6.33 -6.98 6.66 -8 7 C-8.99 6.34 -9.98 5.68 -11 5 C-11 4.34 -11 3.68 -11 3 C-15.455 3.495 -15.455 3.495 -20 4 C-20 4.66 -20 5.32 -20 6 C-21.32 6.33 -22.64 6.66 -24 7 C-24 6.01 -24 5.02 -24 4 C-21.69 2.68 -19.38 1.36 -17 0 C-16.67 0.33 -16.34 0.66 -16 1 C-10.49349353 1.32391215 -4.95272489 -1.6509083 0 0 Z " fill="#7B7C7E" transform="translate(496,453)"/>
<path d="M0 0 C1.43655854 -0.08131463 2.8744483 -0.13933559 4.3125 -0.1875 C5.51326172 -0.23970703 5.51326172 -0.23970703 6.73828125 -0.29296875 C9 0 9 0 10.78125 1.3125 C12.59219053 3.81995612 12.20005332 5.99920026 12 9 C9.07606119 8.37344168 6.55170871 7.5838192 4 6 C3.67 5.01 3.34 4.02 3 3 C1.50014391 1.33289654 1.50014391 1.33289654 0 0 Z " fill="#81817F" transform="translate(740,288)"/>
<path d="M0 0 C0.33 0 0.66 0 1 0 C1.70776992 7.35575165 2.14715692 14.6094524 2 22 C0.68 22.33 -0.64 22.66 -2 23 C-1.86183041 19.35383329 -1.71318466 15.70816926 -1.5625 12.0625 C-1.50352539 10.50112305 -1.50352539 10.50112305 -1.44335938 8.90820312 C-1.40146484 7.91884766 -1.35957031 6.92949219 -1.31640625 5.91015625 C-1.27974854 4.99371338 -1.24309082 4.07727051 -1.20532227 3.13305664 C-1 1 -1 1 0 0 Z " fill="#5D5F61" transform="translate(509,428)"/>
<path d="M0 0 C-3.5463782 1.97021011 -6.92231424 3 -11 3 C-11.33 3.66 -11.66 4.32 -12 5 C-12.99 4.835 -13.98 4.67 -15 4.5 C-19.02732942 3.91525483 -22.93474623 3.92867976 -27 4 C-27 4.66 -27 5.32 -27 6 C-29.31 6 -31.62 6 -34 6 C-34 5.01 -34 4.02 -34 3 C-33.29391602 2.94465088 -32.58783203 2.88930176 -31.86035156 2.83227539 C-28.65661463 2.57916858 -25.45331489 2.32089096 -22.25 2.0625 C-21.13882813 1.97548828 -20.02765625 1.88847656 -18.8828125 1.79882812 C-17.81289062 1.71181641 -16.74296875 1.62480469 -15.640625 1.53515625 C-14.65610352 1.456604 -13.67158203 1.37805176 -12.65722656 1.29711914 C-0.87819717 -0.01995903 -0.87819717 -0.01995903 0 0 Z " fill="#847C77" transform="translate(242,171)"/>
<path d="M0 0 C0.7734375 0.2165625 0.7734375 0.2165625 1.5625 0.4375 C5.77303521 1.40916197 10.18875171 1.47664429 14.375 0.375 C14.91125 0.25125 15.4475 0.1275 16 0 C16.66 0.66 17.32 1.32 18 2 C17 3 17 3 13.67358398 3.11352539 C12.19774444 3.11336629 10.72189931 3.10767314 9.24609375 3.09765625 C8.47064713 3.0962413 7.6952005 3.09482635 6.89625549 3.09336853 C4.40996506 3.08775345 1.9237634 3.07519846 -0.5625 3.0625 C-2.24413933 3.05748694 -3.92578006 3.0529237 -5.60742188 3.04882812 C-9.73831566 3.03777913 -13.86914276 3.02050445 -18 3 C-18 2.67 -18 2.34 -18 2 C-16.17662109 1.90912109 -16.17662109 1.90912109 -14.31640625 1.81640625 C-12.73175772 1.73201668 -11.14712298 1.6473679 -9.5625 1.5625 C-8.76005859 1.52318359 -7.95761719 1.48386719 -7.13085938 1.44335938 C-3.24760439 1.5945704 -3.24760439 1.5945704 0 0 Z " fill="#807D76" transform="translate(327,161)"/>
<path d="M0 0 C1.44096586 0.42594588 2.87768712 0.86626633 4.3125 1.3125 C5.11300781 1.55613281 5.91351563 1.79976562 6.73828125 2.05078125 C9.09964573 3.04182023 10.33879993 4.08074943 12 6 C8.44646071 7.1845131 5.72986522 7.26641894 2 7 C0 5.75 0 5.75 -1 4 C-0.5625 1.890625 -0.5625 1.890625 0 0 Z " fill="#6F6861" transform="translate(160,169)"/>
<path d="M0 0 C0.66 0.33 1.32 0.66 2 1 C1.67 1.99 1.34 2.98 1 4 C0.77812508 6.65356567 0.60157693 9.29119208 0.46484375 11.94921875 C0.42186661 12.72183548 0.37888947 13.49445221 0.33460999 14.29048157 C0.19836 16.75595972 0.06785996 19.22170409 -0.0625 21.6875 C-0.1539181 23.36004679 -0.24571047 25.03257316 -0.33789062 26.70507812 C-0.56293579 30.80316129 -0.78282494 34.90149253 -1 39 C-1.33 39 -1.66 39 -2 39 C-2.02953391 35.08334973 -2.04697503 31.16672887 -2.0625 27.25 C-2.07087891 26.15816406 -2.07925781 25.06632812 -2.08789062 23.94140625 C-2.14602482 4.29204963 -2.14602482 4.29204963 0 0 Z " fill="#7F7567" transform="translate(890,202)"/>
<path d="M0 0 C0.33 0 0.66 0 1 0 C0.97679687 0.66644531 0.95359375 1.33289063 0.9296875 2.01953125 C0.78038353 9.64469809 1.58339975 16.80890565 3.59375 24.17578125 C4.08927342 26.40087201 3.68989211 27.853669 3 30 C2.67 30 2.34 30 2 30 C1.49061655 27.50159546 0.99236886 25.00176612 0.5 22.5 C0.35691406 21.80390625 0.21382813 21.1078125 0.06640625 20.390625 C-1.28531688 13.43890604 -1.39940091 6.99700453 0 0 Z " fill="#78756E" transform="translate(479,176)"/>
<path d="M0 0 C1.134375 0.020625 2.26875 0.04125 3.4375 0.0625 C3.4375 0.7225 3.4375 1.3825 3.4375 2.0625 C4.05625 1.876875 4.675 1.69125 5.3125 1.5 C9.7698206 0.87597512 13.99236111 1.50146305 18.4375 2.0625 C18.4375 2.3925 18.4375 2.7225 18.4375 3.0625 C9.5275 3.0625 0.6175 3.0625 -8.5625 3.0625 C-7.2425 2.4025 -5.9225 1.7425 -4.5625 1.0625 C-3.5625 0.0625 -3.5625 0.0625 0 0 Z " fill="#817D77" transform="translate(357.5625,160.9375)"/>
<path d="M0 0 C-3.44485966 0.99984951 -6.80320613 1.30023542 -10.375 1.5625 C-12.02628906 1.68818359 -12.02628906 1.68818359 -13.7109375 1.81640625 C-16.81596436 1.98972723 -19.89099407 2.03287469 -23 2 C-23 1.34 -23 0.68 -23 0 C-22.04738281 -0.06058594 -21.09476562 -0.12117187 -20.11328125 -0.18359375 C-18.23189453 -0.30927734 -18.23189453 -0.30927734 -16.3125 -0.4375 C-15.07113281 -0.51871094 -13.82976562 -0.59992188 -12.55078125 -0.68359375 C-9.10413774 -0.91979702 -9.10413774 -0.91979702 -6.1875 -1.59375 C-3.46062069 -2.10017044 -2.3031095 -1.45010598 0 0 Z " fill="#807973" transform="translate(280,169)"/>
<path d="M0 0 C3.96 0 7.92 0 12 0 C12 0.99 12 1.98 12 3 C7.54187984 4.14637376 4.15590845 4.07795422 0 2 C0 1.34 0 0.68 0 0 Z " fill="#6E6D68" transform="translate(378,165)"/>
<path d="M0 0 C0.33 0 0.66 0 1 0 C0.88573491 2.41760876 0.75900339 4.83347218 0.625 7.25 C0.5940625 7.93191406 0.563125 8.61382812 0.53125 9.31640625 C0.31740626 12.98739038 -0.01077055 15.86251616 -2 19 C-3.2207243 12.4894704 -3.67487679 5.87980287 0 0 Z " fill="#62605F" transform="translate(891,442)"/>
<path d="M0 0 C0.33 0 0.66 0 1 0 C1.20190089 6.35987804 0.6277833 11.85221129 -1 18 C-1.99 17.67 -2.98 17.34 -4 17 C-4 13.04 -4 9.08 -4 5 C-3.67 5 -3.34 5 -3 5 C-3 8.3 -3 11.6 -3 15 C-2.34 15 -1.68 15 -1 15 C-0.67 10.05 -0.34 5.1 0 0 Z " fill="#777777" transform="translate(889,466)"/>
<path d="M0 0 C0.33 0 0.66 0 1 0 C1 1.65 1 3.3 1 5 C1.66 5.33 2.32 5.66 3 6 C2.34 6.66 1.68 7.32 1 8 C0.85958141 10.51875841 1.00470091 12.97342528 1.125 15.4921875 C0.98968532 18.20693823 0.27058052 19.63954653 -1 22 C-1.02895225 18.70835171 -1.0467823 15.41673601 -1.0625 12.125 C-1.07506836 10.71927734 -1.07506836 10.71927734 -1.08789062 9.28515625 C-1.09111328 8.38925781 -1.09433594 7.49335938 -1.09765625 6.5703125 C-1.10289307 5.74289551 -1.10812988 4.91547852 -1.11352539 4.06298828 C-1 2 -1 2 0 0 Z " fill="#817867" transform="translate(891,178)"/>
<path d="M0 0 C0.33 0 0.66 0 1 0 C1.02705729 1.77074917 1.04642195 3.54161711 1.0625 5.3125 C1.07410156 6.29863281 1.08570313 7.28476563 1.09765625 8.30078125 C1 11 1 11 0 14 C-0.99 14.33 -1.98 14.66 -3 15 C-3.125 11.625 -3.125 11.625 -3 8 C-2.34 7.34 -1.68 6.68 -1 6 C-0.60235737 4.01178687 -0.26224651 2.01055661 0 0 Z " fill="#6A6351" transform="translate(889,193)"/>
<path d="M0 0 C0.66 0 1.32 0 2 0 C3.00496852 3.01490557 3.10335303 5.04181692 3.0625 8.1875 C3.05347656 9.08855469 3.04445313 9.98960937 3.03515625 10.91796875 C3.02355469 11.60503906 3.01195312 12.29210937 3 13 C2.34 13 1.68 13 1 13 C0.1276588 10.00519083 -0.10829766 7.36424089 -0.0625 4.25 C-0.05347656 3.45078125 -0.04445313 2.6515625 -0.03515625 1.828125 C-0.02355469 1.22484375 -0.01195312 0.6215625 0 0 Z " fill="#646563" transform="translate(488,339)"/>
<path d="M0 0 C1.85772162 0.08984301 3.71247985 0.24611861 5.5625 0.4375 C7.08037109 0.59025391 7.08037109 0.59025391 8.62890625 0.74609375 C9.80259766 0.87177734 9.80259766 0.87177734 11 1 C10.01 2.485 10.01 2.485 9 4 C8.278125 3.814375 7.55625 3.62875 6.8125 3.4375 C3.87173027 2.98004693 1.85896942 3.26483643 -1 4 C-1 1 -1 1 0 0 Z " fill="#888A8A" transform="translate(410,456)"/>
<path d="M0 0 C-0.99 1.485 -0.99 1.485 -2 3 C-5.2578125 3.29296875 -5.2578125 3.29296875 -9.125 3.1875 C-11.04699219 3.14689453 -11.04699219 3.14689453 -13.0078125 3.10546875 C-13.99523437 3.07066406 -14.98265625 3.03585937 -16 3 C-15.67 2.34 -15.34 1.68 -15 1 C-10.03901518 -0.24024621 -5.07558808 -0.10151176 0 0 Z " fill="#807972" transform="translate(926,318)"/>
<path d="M0 0 C1.5625 1.8125 1.5625 1.8125 3 4 C2.67 4.99 2.34 5.98 2 7 C2.09406754 9.29453495 2.09406754 9.29453495 2.4375 11.6875 C2.53933594 12.49574219 2.64117187 13.30398438 2.74609375 14.13671875 C2.82988281 14.75160156 2.91367188 15.36648438 3 16 C2.34 16 1.68 16 1 16 C-0.12862175 10.63904667 -0.09688221 5.44693314 0 0 Z " fill="#918E90" transform="translate(178,427)"/>
<path d="M0 0 C0.33 0.66 0.66 1.32 1 2 C-1.22771342 2.50643553 -3.45724076 3.0048962 -5.6875 3.5 C-7.54955078 3.91765625 -7.54955078 3.91765625 -9.44921875 4.34375 C-12.42398218 4.89354126 -14.99368602 5.13795705 -18 5 C-14.42504638 1.57400278 -10.70778904 1.42388139 -6 1 C-3.99810127 0.67826628 -1.99723547 0.34951621 0 0 Z " fill="#7A7C7B" transform="translate(568,308)"/>
<path d="M0 0 C0.33 0 0.66 0 1 0 C1 4.29 1 8.58 1 13 C0.34 11.68 -0.32 10.36 -1 9 C-1.66 9.66 -2.32 10.32 -3 11 C-3.125 8.625 -3.125 8.625 -3 6 C-2.34 5.34 -1.68 4.68 -1 4 C-0.3574765 1.93125966 -0.3574765 1.93125966 0 0 Z " fill="#6F6659" transform="translate(887,230)"/>
<path d="M0 0 C0.91007812 0.19464844 1.82015625 0.38929688 2.7578125 0.58984375 C3.45648438 0.74582031 4.15515625 0.90179688 4.875 1.0625 C4.875 2.0525 4.875 3.0425 4.875 4.0625 C-1.065 3.0725 -1.065 3.0725 -7.125 2.0625 C-7.125 1.4025 -7.125 0.7425 -7.125 0.0625 C-4.4030754 -1.2984623 -2.9418043 -0.64116248 0 0 Z " fill="#7B7A73" transform="translate(425.125,169.9375)"/>
<path d="M0 0 C2.1991413 4.39828259 2.51855059 7.18550592 3 12 C2.67 11.01 2.34 10.02 2 9 C1.34 9 0.68 9 0 9 C0 10.65 0 12.3 0 14 C-0.33 14 -0.66 14 -1 14 C-0.67 9.38 -0.34 4.76 0 0 Z " fill="#6C6B69" transform="translate(887,454)"/>
<path d="M0 0 C-3.96204403 1.15559618 -7.89402683 1.66887313 -12 2 C-12.66 1.34 -13.32 0.68 -14 0 C-8.40693931 -2.05459372 -5.59306069 -2.05459372 0 0 Z " fill="#907C67" transform="translate(1168,317)"/>
<path d="M0 0 C2.31 0.33 4.62 0.66 7 1 C7 2.65 7 4.3 7 6 C6.401875 5.690625 5.80375 5.38125 5.1875 5.0625 C2.91043228 3.89790296 2.91043228 3.89790296 0 3 C0 2.01 0 1.02 0 0 Z " fill="#737371" transform="translate(744,291)"/>
<path d="M0 0 C1.98 0 3.96 0 6 0 C6 2 6 2 4.125 4.125 C2 6 2 6 0 6 C0 4.02 0 2.04 0 0 Z " fill="#706760" transform="translate(146,171)"/>
<path d="M0 0 C0 1.32 0 2.64 0 4 C-2.31 4.33 -4.62 4.66 -7 5 C-6.67 3.68 -6.34 2.36 -6 1 C-3.92446352 0.4465236 -2.15634036 0 0 0 Z " fill="#6D6F6F" transform="translate(535,316)"/>
<path d="M0 0 C0.33 0 0.66 0 1 0 C1.19620767 2.06168985 1.38160753 4.12440998 1.5625 6.1875 C1.66691406 7.33605469 1.77132812 8.48460937 1.87890625 9.66796875 C1.98859985 12.68631199 1.74002389 15.08923936 1 18 C0.34 17.34 -0.32 16.68 -1 16 C-0.98252073 13.24410223 -0.86136729 10.61213324 -0.625 7.875 C-0.56828125 7.12089844 -0.5115625 6.36679687 -0.453125 5.58984375 C-0.3115535 3.72581904 -0.15700041 1.86278863 0 0 Z " fill="#A78D83" transform="translate(1013,700)"/>
<path d="M0 0 C2.26171875 0.14453125 2.26171875 0.14453125 4.6875 0.8125 C5.49574219 1.02519531 6.30398438 1.23789063 7.13671875 1.45703125 C8.05904297 1.72580078 8.05904297 1.72580078 9 2 C9 2.33 9 2.66 9 3 C5.04 3 1.08 3 -3 3 C-2.01 2.01 -1.02 1.02 0 0 Z " fill="#7F7D78" transform="translate(406,163)"/>
<path d="M0 0 C0.99 0.495 0.99 0.495 2 1 C2.75 3.875 2.75 3.875 3 7 C2.34 7.99 1.68 8.98 1 10 C0 9 0 9 -0.09765625 6.93359375 C-0.08605469 6.10988281 -0.07445312 5.28617187 -0.0625 4.4375 C-0.05347656 3.61121094 -0.04445312 2.78492188 -0.03515625 1.93359375 C-0.02355469 1.29550781 -0.01195312 0.65742188 0 0 Z " fill="#959493" transform="translate(176,401)"/>
<path d="M0 0 C0.33 0.66 0.66 1.32 1 2 C1.66 2 2.32 2 3 2 C3 5.3 3 8.6 3 12 C0.8008587 7.60171741 0.48144941 4.81449408 0 0 Z " fill="#7E7F7F" transform="translate(502,390)"/>
<path d="M0 0 C1.65 0 3.3 0 5 0 C2 1.5 2 1.5 -1 3 C-0.67 2.01 -0.34 1.02 0 0 Z M-2 3 C-1.67 3.99 -1.34 4.98 -1 6 C-0.34 6 0.32 6 1 6 C1 6.66 1 7.32 1 8 C-0.32 7.67 -1.64 7.34 -3 7 C-2.67 5.68 -2.34 4.36 -2 3 Z " fill="#7C7E7D" transform="translate(523,317)"/>
<path d="M0 0 C2.60334924 2.71182212 2.99456691 3.89133813 3.1875 7.75 C3.0946875 9.35875 3.0946875 9.35875 3 11 C2.67 9.68 2.34 8.36 2 7 C1.34 7 0.68 7 0 7 C0 4.69 0 2.38 0 0 Z " fill="#75746E" transform="translate(474,186)"/>
<path d="M0 0 C2.31 0 4.62 0 7 0 C6.01 1.485 6.01 1.485 5 3 C2.03 2.505 2.03 2.505 -1 2 C-0.67 1.34 -0.34 0.68 0 0 Z " fill="#746D65" transform="translate(281,165)"/>
<path d="M0 0 C0.33 0 0.66 0 1 0 C1 3.63 1 7.26 1 11 C-1.12508244 7.81237635 -1.5020163 5.73487777 -2 2 C-1.34 2 -0.68 2 0 2 C0 1.34 0 0.68 0 0 Z " fill="#9C8479" transform="translate(1012,699)"/>
<path d="M0 0 C0.66 0 1.32 0 2 0 C2.33 2.31 2.66 4.62 3 7 C2.34 7 1.68 7 1 7 C0.67 4.69 0.34 2.38 0 0 Z " fill="#646566" transform="translate(498,385)"/>
<path d="M0 0 C0.53625 0.515625 1.0725 1.03125 1.625 1.5625 C-4.4296875 1.7578125 -4.4296875 1.7578125 -6.375 1.5625 C-7.035 0.9025 -7.695 0.2425 -8.375 -0.4375 C-2.95961538 -1.79134615 -2.95961538 -1.79134615 0 0 Z " fill="#7A7872" transform="translate(465.375,169.4375)"/>
<path d="M0 0 C1.98 0 3.96 0 6 0 C6 0.99 6 1.98 6 3 C4.02 3 2.04 3 0 3 C0 2.01 0 1.02 0 0 Z " fill="#807D75" transform="translate(381,162)"/>
</svg>
