<?xml version="1.0" encoding="UTF-8"?>
<svg version="1.1" xmlns="http://www.w3.org/2000/svg" width="1280" height="720">
<path d="M0 0 C422.4 0 844.8 0 1280 0 C1280 237.6 1280 475.2 1280 720 C857.6 720 435.2 720 0 720 C0 482.4 0 244.8 0 0 Z " fill="#000000" transform="translate(0,0)"/>
<path d="M0 0 C0.92554688 0.18433594 1.85109375 0.36867188 2.8046875 0.55859375 C4.37863281 0.86603516 4.37863281 0.86603516 5.984375 1.1796875 C12.90198694 2.70799712 19.79734693 4.31628077 26.6796875 5.99609375 C27.0096875 4.67609375 27.3396875 3.35609375 27.6796875 1.99609375 C29.7734375 1.23046875 29.7734375 1.23046875 32.6796875 0.99609375 C35.01479377 2.32875541 37.03520655 3.65833569 39.1796875 5.24609375 C45.80907889 9.86961919 51.61823201 11.83106613 59.6796875 12.99609375 C59.4940625 12.37734375 59.3084375 11.75859375 59.1171875 11.12109375 C58.6796875 8.99609375 58.6796875 8.99609375 59.6796875 6.99609375 C61.3296875 6.99609375 62.9796875 6.99609375 64.6796875 6.99609375 C65.43527961 8.45153756 66.18375175 9.91067738 66.9296875 11.37109375 C67.34734375 12.18320313 67.765 12.9953125 68.1953125 13.83203125 C69.6796875 16.99609375 69.6796875 16.99609375 70.32446289 19.30004883 C72.90916568 27.74416537 78.17996947 30.71080388 85.6171875 34.93359375 C86.70193359 35.57876953 87.78667969 36.22394531 88.90429688 36.88867188 C90.91965264 38.08401196 92.94165553 39.26827148 94.97241211 40.43725586 C96.77985943 41.4779765 98.57226524 42.54525931 100.34863281 43.63818359 C103.01649202 45.19229262 105.50438522 45.92764378 108.4921875 46.68359375 C109.95591797 47.06064453 109.95591797 47.06064453 111.44921875 47.4453125 C112.18527344 47.62707031 112.92132812 47.80882812 113.6796875 47.99609375 C113.6796875 47.33609375 113.6796875 46.67609375 113.6796875 45.99609375 C115.234375 45.265625 115.234375 45.265625 117.6796875 44.99609375 C120.17771486 46.13343091 122.44476052 47.30901694 124.8046875 48.68359375 C129.24976296 51.18108182 133.56780713 53.47940679 138.3671875 55.24609375 C141.93145894 56.57454101 144.27222069 57.93204508 146.6796875 60.99609375 C146.6796875 59.34609375 146.6796875 57.69609375 146.6796875 55.99609375 C149.40988536 54.93080627 150.47267562 54.91611189 153.2578125 55.9921875 C154.13953125 56.46785156 155.02125 56.94351563 155.9296875 57.43359375 C156.82171875 57.90667969 157.71375 58.37976563 158.6328125 58.8671875 C159.30828125 59.23972656 159.98375 59.61226562 160.6796875 59.99609375 C160.61910156 59.42689209 160.55851563 58.85769043 160.49609375 58.27124023 C160.2202072 55.6590721 159.94991005 53.04635364 159.6796875 50.43359375 C159.53660156 49.09071289 159.53660156 49.09071289 159.390625 47.72070312 C158.01645612 34.32255652 158.01645612 34.32255652 159.6796875 30.99609375 C161.3296875 30.99609375 162.9796875 30.99609375 164.6796875 30.99609375 C164.6796875 31.65609375 164.6796875 32.31609375 164.6796875 32.99609375 C165.3396875 32.99609375 165.9996875 32.99609375 166.6796875 32.99609375 C166.62506348 33.8775708 166.57043945 34.75904785 166.51416016 35.66723633 C165.19822228 51.96655267 165.19822228 51.96655267 170.77246094 66.47949219 C176.77625786 70.85145303 183.63800235 72.89682353 190.6796875 74.99609375 C198.61009469 77.80936003 205.9912506 81.58827178 213.4296875 85.49609375 C214.59749756 86.10541748 215.76530762 86.71474121 216.96850586 87.3425293 C227.33759733 92.76431621 237.61933447 98.34577998 247.86157227 104.00317383 C252.30283196 106.42866103 255.81004331 105.94575098 260.83203125 105.73828125 C263.6796875 105.99609375 263.6796875 105.99609375 265.55859375 107.50390625 C265.92855469 107.99632812 266.29851562 108.48875 266.6796875 108.99609375 C266.0196875 110.64609375 265.3596875 112.29609375 264.6796875 113.99609375 C265.6284375 114.24359375 266.5771875 114.49109375 267.5546875 114.74609375 C270.6796875 115.99609375 270.6796875 115.99609375 272.1171875 117.93359375 C272.6796875 119.99609375 272.6796875 119.99609375 271.6796875 122.99609375 C272.00639653 124.99718653 272.33945964 126.99725506 272.6796875 128.99609375 C272.3496875 129.65609375 272.0196875 130.31609375 271.6796875 130.99609375 C271.0196875 130.99609375 270.3596875 130.99609375 269.6796875 130.99609375 C270.0303125 131.94484375 270.3809375 132.89359375 270.7421875 133.87109375 C271.6796875 136.99609375 271.6796875 136.99609375 270.6796875 138.99609375 C270.0196875 138.99609375 269.3596875 138.99609375 268.6796875 138.99609375 C268.6796875 140.31609375 268.6796875 141.63609375 268.6796875 142.99609375 C269.6696875 143.32609375 270.6596875 143.65609375 271.6796875 143.99609375 C272.0096875 144.98609375 272.3396875 145.97609375 272.6796875 146.99609375 C272.17566406 147.39828125 271.67164063 147.80046875 271.15234375 148.21484375 C269.45139581 149.88787122 269.45139581 149.88787122 269.67578125 152.15234375 C269.82144531 152.92578125 269.96710938 153.69921875 270.1171875 154.49609375 C270.89103779 158.67906831 270.89103779 158.67906831 268.6796875 161.99609375 C266.2421875 161.62109375 266.2421875 161.62109375 263.6796875 160.99609375 C263.3496875 160.33609375 263.0196875 159.67609375 262.6796875 158.99609375 C260.48995677 158.12169297 258.26103747 157.34481885 256.01953125 156.61328125 C255.35506485 156.3941507 254.69059845 156.17502014 254.0059967 155.94924927 C251.87863251 155.24947342 249.74803055 154.56019501 247.6171875 153.87109375 C246.17620732 153.39912381 244.73544893 152.92647613 243.29492188 152.453125 C239.75905238 151.29289956 236.2202056 150.14206617 232.6796875 148.99609375 C238.52307285 156.21572476 238.52307285 156.21572476 244.52734375 163.30078125 C245.25824219 164.14898437 245.98914063 164.9971875 246.7421875 165.87109375 C247.49628906 166.73476562 248.25039063 167.5984375 249.02734375 168.48828125 C250.87590395 171.29389744 251.05105067 172.70687708 250.6796875 175.99609375 C250.0196875 175.99609375 249.3596875 175.99609375 248.6796875 175.99609375 C248.68492432 176.81770996 248.69016113 177.63932617 248.69555664 178.48583984 C248.78130597 194.19642021 248.77559108 209.90809198 248.41622925 225.61553955 C248.38359004 227.11669924 248.35600503 228.61797751 248.33352661 230.11932373 C248.30051463 232.22209073 248.24857868 234.32355064 248.19140625 236.42578125 C248.16522217 237.62444824 248.13903809 238.82311523 248.11206055 240.05810547 C247.6796875 242.99609375 247.6796875 242.99609375 246.14770508 244.90673828 C245.66325928 245.26622559 245.17881348 245.62571289 244.6796875 245.99609375 C243.6896875 245.66609375 242.6996875 245.33609375 241.6796875 244.99609375 C240.26878914 242.17429702 240.54989588 239.8202344 240.546875 236.6640625 C240.54609955 236.01248672 240.5453241 235.36091095 240.54452515 234.68959045 C240.5441293 233.26876701 240.54620085 231.84794127 240.55041504 230.42712402 C240.55473005 228.16125227 240.54514209 225.8957275 240.53417969 223.62988281 C240.51743808 215.38818289 240.7458492 207.22163552 241.328125 199 C241.47831034 196.5437853 241.62387208 194.08733731 241.76812744 191.63076782 C241.874459 190.0612827 242.00356192 188.49314746 242.15716553 186.92758179 C242.95922259 178.71064548 243.03210395 172.78688636 237.64202881 166.16412354 C235.59202574 163.8893256 233.45349541 161.73103053 231.25434875 159.60092163 C229.09086641 157.3959923 227.21245301 155.00898457 225.32447815 152.56761169 C220.6563732 146.56050552 215.94967612 142.56661033 208.6796875 139.99609375 C208.8653125 139.04734375 209.0509375 138.09859375 209.2421875 137.12109375 C209.30270717 132.85877999 207.14058661 130.93284065 204.3046875 127.93359375 C203.49257813 127.13824219 202.68046875 126.34289062 201.84375 125.5234375 C199.47716762 122.75957686 198.60167842 120.48648793 197.6796875 116.99609375 C198.9296875 115.49609375 198.9296875 115.49609375 200.6796875 113.99609375 C201.9996875 113.99609375 203.3196875 113.99609375 204.6796875 113.99609375 C205.1128125 113.50109375 205.5459375 113.00609375 205.9921875 112.49609375 C207.6796875 110.99609375 207.6796875 110.99609375 211.0546875 110.68359375 C214.46327833 110.97743779 216.56746438 111.71928426 219.6796875 112.99609375 C222.88838983 113.16367132 222.88838983 113.16367132 225.6796875 112.99609375 C225.6796875 112.33609375 225.6796875 111.67609375 225.6796875 110.99609375 C225.1640625 110.89296875 224.6484375 110.78984375 224.1171875 110.68359375 C217.78779089 108.89837932 211.96613372 105.68392702 206.1796875 102.62109375 C205.37668213 102.19771729 204.57367676 101.77434082 203.74633789 101.33813477 C193.95950401 96.13844223 184.33688973 90.64415059 174.71655273 85.14428711 C173.38870769 84.39577276 172.04304987 83.67777493 170.6796875 82.99609375 C170.0196875 85.63609375 169.3596875 88.27609375 168.6796875 90.99609375 C167.0296875 90.99609375 165.3796875 90.99609375 163.6796875 90.99609375 C161.38355994 81.58607097 161.38355994 81.58607097 161.6796875 76.99609375 C160.91269531 76.79628906 160.14570312 76.59648437 159.35546875 76.390625 C155.19824539 74.81344249 151.64591698 72.71984047 147.83422852 70.44995117 C137.37825734 64.22523699 127.57274814 59.59819964 115.6796875 56.99609375 C115.6796875 57.65609375 115.6796875 58.31609375 115.6796875 58.99609375 C113.546875 59.7265625 113.546875 59.7265625 110.6796875 59.99609375 C107.875 58.484375 107.875 58.484375 104.8046875 56.30859375 C97.82309541 51.6071022 90.88099301 49.72029629 82.6796875 47.99609375 C83.05222656 48.888125 83.42476562 49.78015625 83.80859375 50.69921875 C84.28167969 51.8696875 84.75476563 53.04015625 85.2421875 54.24609375 C85.71785156 55.40625 86.19351563 56.56640625 86.68359375 57.76171875 C88.07320602 62.27387153 88.07320602 62.27387153 86.6796875 64.99609375 C85.1946875 65.49109375 85.1946875 65.49109375 83.6796875 65.99609375 C80.09254823 62.8911323 78.82983313 60.25519257 77.4375 55.75390625 C72.02830695 39.77635388 67.11651329 29.71607191 51.53515625 21.4296875 C44.8375209 18.39868329 37.82030648 16.65031948 30.6796875 14.99609375 C29.6840831 14.76495377 29.6840831 14.76495377 28.66836548 14.52914429 C23.25548178 13.28348179 17.83030802 12.09478861 12.40209961 10.91796875 C10.37511543 10.47718578 8.3496313 10.02997161 6.32421875 9.58203125 C5.14190674 9.32470215 3.95959473 9.06737305 2.74145508 8.80224609 C0.08746499 8.10346009 -2.03679744 7.50489917 -4.3203125 5.99609375 C-4.6503125 5.00609375 -4.9803125 4.01609375 -5.3203125 2.99609375 C-3.59117449 0.74592408 -2.90572686 -0.0048918 0 0 Z " fill="#0202EF" transform="translate(585.3203125,85.00390625)"/>
<path d="M0 0 C0.75990234 0.09853271 1.51980469 0.19706543 2.30273438 0.29858398 C2.98583984 1.95043945 2.98583984 1.95043945 3.30273438 4.29858398 C2.14697266 6.92407227 2.14697266 6.92407227 0.37304688 9.86889648 C-0.25730469 10.92979492 -0.88765625 11.99069336 -1.53710938 13.08374023 C-2.54451172 14.73696289 -2.54451172 14.73696289 -3.57226562 16.42358398 C-4.88223274 18.61364551 -6.19213205 20.8037476 -7.50195312 22.99389648 C-8.38343018 24.44820068 -8.38343018 24.44820068 -9.28271484 25.93188477 C-10.68295261 28.20745745 -10.68295261 28.20745745 -11.69726562 30.29858398 C-11.03726563 30.29858398 -10.37726563 30.29858398 -9.69726562 30.29858398 C-9.69726562 29.63858398 -9.69726562 28.97858398 -9.69726562 28.29858398 C-8.04726563 28.29858398 -6.39726562 28.29858398 -4.69726562 28.29858398 C-4.36726562 29.28858398 -4.03726563 30.27858398 -3.69726562 31.29858398 C-4.35726562 32.28858398 -5.01726562 33.27858398 -5.69726562 34.29858398 C-6.35726562 34.29858398 -7.01726562 34.29858398 -7.69726562 34.29858398 C-7.69726562 34.95858398 -7.69726562 35.61858398 -7.69726562 36.29858398 C-9.16601563 37.77905273 -9.16601563 37.77905273 -11.19726562 39.48608398 C-11.92816406 40.11514648 -12.6590625 40.74420898 -13.41210938 41.39233398 C-14.84153978 42.58474772 -16.28966656 43.75548301 -17.76367188 44.89233398 C-25.36941427 50.96502067 -29.30251604 58.84031819 -32.95898438 67.67358398 C-33.54691772 69.0926001 -33.54691772 69.0926001 -34.14672852 70.5402832 C-34.92146129 72.44051042 -35.67767948 74.34840724 -36.41381836 76.26391602 C-36.76774658 77.14418457 -37.1216748 78.02445312 -37.48632812 78.93139648 C-37.7926416 79.72433105 -38.09895508 80.51726562 -38.41455078 81.33422852 C-40.10231437 83.91887751 -41.84809647 84.28312418 -44.69726562 85.29858398 C-45.58419866 87.33964038 -45.58419866 87.33964038 -45.69726562 89.29858398 C-43.71726562 89.79358398 -43.71726562 89.79358398 -41.69726562 90.29858398 C-40.61334636 93.52754133 -40.7252299 95.13644288 -42.12158203 98.22387695 C-42.4605249 98.98864349 -42.79946777 99.75341003 -43.14868164 100.54135132 C-43.71800415 101.7785643 -43.71800415 101.7785643 -44.29882812 103.04077148 C-44.68723877 103.9093277 -45.07564941 104.77788391 -45.47583008 105.67276001 C-46.74762856 108.51114574 -48.03501845 111.34217568 -49.32226562 114.17358398 C-50.19646083 116.11895889 -51.06933934 118.064926 -51.94091797 120.01147461 C-53.69185755 123.92106508 -55.44713286 127.82866267 -57.20507812 131.73510742 C-60.35810275 138.75668323 -63.43805611 145.80920207 -66.49090576 152.87481689 C-67.30852017 154.766777 -68.12892353 156.65750868 -68.94970703 158.5480957 C-71.4948811 164.35714138 -71.4948811 164.35714138 -73.69726562 170.29858398 C-72.37726563 170.62858398 -71.05726563 170.95858398 -69.69726562 171.29858398 C-69.00976562 172.98608398 -69.00976562 172.98608398 -68.69726562 175.29858398 C-70.13476562 178.04858398 -70.13476562 178.04858398 -71.69726562 180.29858398 C-70.37726563 180.62858398 -69.05726563 180.95858398 -67.69726562 181.29858398 C-67.57226562 187.04858398 -67.57226562 187.04858398 -68.69726562 189.29858398 C-69.24476605 195.07681922 -67.18676543 199.22449466 -64.7421875 204.26342773 C-63.5502015 206.83811749 -62.67006046 208.79899819 -62.82617188 211.66577148 C-63.69726562 213.29858398 -63.69726562 213.29858398 -66.69726562 214.29858398 C-68.71289062 214.02905273 -68.71289062 214.02905273 -70.94726562 213.48608398 C-71.73488281 213.2965918 -72.5225 213.10709961 -73.33398438 212.91186523 C-76.47408226 212.09699686 -79.58810414 211.22471719 -82.69726562 210.29858398 C-82.97691162 211.03455811 -83.25655762 211.77053223 -83.54467773 212.52880859 C-84.5915648 215.04457511 -85.74974452 217.27611748 -87.13867188 219.61499023 C-87.63101318 220.44699951 -88.12335449 221.27900879 -88.63061523 222.13623047 C-89.16823486 223.03543213 -89.70585449 223.93463379 -90.25976562 224.86108398 C-90.82767822 225.81635986 -91.39559082 226.77163574 -91.98071289 227.75585938 C-99.46922023 240.32050275 -107.08457646 252.80895969 -114.69726562 265.29858398 C-117.48129904 269.86651192 -117.48129904 269.86651192 -120.26391602 274.43530273 C-121.41382116 276.32120507 -122.56658397 278.20536841 -123.72241211 280.08764648 C-126.57115953 284.73893273 -129.34733572 289.41554801 -132.02148438 294.16967773 C-132.55668701 295.10618164 -133.09188965 296.04268555 -133.64331055 297.00756836 C-134.65321672 298.78081445 -135.64538206 300.56432464 -136.61645508 302.35913086 C-137.86251207 304.53007081 -138.99547626 306.46272508 -140.69726562 308.29858398 C-144.04101562 308.83374023 -144.04101562 308.83374023 -146.69726562 308.29858398 C-147.59369091 305.32634809 -147.91772522 303.81576111 -146.6809082 300.91430664 C-146.15650146 300.10525879 -145.63209473 299.29621094 -145.09179688 298.46264648 C-144.23424805 297.11299805 -144.23424805 297.11299805 -143.359375 295.73608398 C-142.74900391 294.80795898 -142.13863281 293.87983398 -141.50976562 292.92358398 C-140.32784494 291.08303573 -139.1468358 289.24190177 -137.96679688 287.40014648 C-137.40041504 286.52132813 -136.8340332 285.64250977 -136.25048828 284.73706055 C-133.24816501 280.02357347 -130.70697756 275.32181043 -128.5224762 270.16690063 C-127.20217947 267.17768499 -125.6728973 264.30985674 -124.14257812 261.42358398 C-123.80444595 260.78505997 -123.46631378 260.14653595 -123.11793518 259.48866272 C-122.02260738 257.4235689 -120.92269029 255.36096573 -119.82226562 253.29858398 C-119.44687653 252.59248993 -119.07148743 251.88639587 -118.6847229 251.15890503 C-113.22440652 240.89111883 -107.64420436 230.70521696 -101.80908203 220.64428711 C-98.74488075 215.32529621 -96.06508465 209.9633662 -93.69726562 204.29858398 C-94.68726563 204.29858398 -95.67726563 204.29858398 -96.69726562 204.29858398 C-97.00664062 205.08233398 -97.31601562 205.86608398 -97.63476562 206.67358398 C-99.46627429 211.19848774 -99.46627429 211.19848774 -101.57226562 212.11108398 C-103.69726562 212.29858398 -103.69726562 212.29858398 -105.50976562 211.11108398 C-106.69726562 209.29858398 -106.69726562 209.29858398 -106.44726562 207.42358398 C-106.19976562 206.72233398 -105.95226562 206.02108398 -105.69726562 205.29858398 C-105.3515961 203.63443211 -105.01681394 201.96794846 -104.69726562 200.29858398 C-105.68907837 199.89748413 -105.68907837 199.89748413 -106.70092773 199.48828125 C-109.67994211 198.28183418 -112.65736714 197.0715131 -115.63476562 195.86108398 C-116.67568359 195.44020508 -117.71660156 195.01932617 -118.7890625 194.58569336 C-120.2730957 193.98144531 -120.2730957 193.98144531 -121.78710938 193.36499023 C-122.70355225 192.99317627 -123.61999512 192.6213623 -124.56420898 192.23828125 C-126.69726562 191.29858398 -126.69726562 191.29858398 -127.69726562 190.29858398 C-127.73790395 188.63241283 -127.73998663 186.96470304 -127.69726562 185.29858398 C-124.04323601 183.95783579 -122.10986949 184.647592 -118.59960938 186.16967773 C-117.15038086 186.78359375 -117.15038086 186.78359375 -115.671875 187.40991211 C-114.66962891 187.84754883 -113.66738281 188.28518555 -112.63476562 188.73608398 C-110.64586481 189.59356652 -108.655057 190.44664324 -106.66210938 191.29467773 C-105.78159912 191.67809326 -104.90108887 192.06150879 -103.99389648 192.45654297 C-101.63551185 193.47070104 -101.63551185 193.47070104 -98.69726562 193.29858398 C-96.4212211 190.51926655 -94.78176278 187.29229898 -93.00976562 184.17358398 C-92.49865234 183.31764648 -91.98753906 182.46170898 -91.4609375 181.57983398 C-87.85006036 175.36483479 -87.85006036 175.36483479 -87.69726562 168.29858398 C-89.190866 164.67126879 -90.70427909 161.86400102 -93.69726562 159.29858398 C-92.21654103 155.30700524 -90.33078553 151.72726143 -88.21289062 148.03686523 C-87.87481384 147.44616745 -87.53673706 146.85546967 -87.18841553 146.24687195 C-86.47380376 144.99965027 -85.757648 143.75331212 -85.04003906 142.5078125 C-83.96156092 140.63589635 -82.88757038 138.76146812 -81.81445312 136.88647461 C-81.11415555 135.66564339 -80.41363615 134.44493939 -79.71289062 133.22436523 C-79.3656192 132.61856125 -79.01834778 132.01275726 -78.66055298 131.38859558 C-76.73772282 128.04989116 -74.7373968 124.77789622 -72.67382812 121.52514648 C-68.70067957 114.94174745 -65.82473013 107.82316654 -62.8359375 100.75537109 C-61.81240407 98.33779104 -60.7751686 95.92641742 -59.73632812 93.51538086 C-59.07926801 91.97601286 -58.42298875 90.43631126 -57.76757812 88.89624023 C-57.45829376 88.17751236 -57.1490094 87.45878448 -56.83035278 86.71827698 C-55.58245423 83.75017327 -54.69726562 81.55261998 -54.69726562 78.29858398 C-57.8192404 79.60754118 -57.8192404 79.60754118 -59.69726562 82.29858398 C-60.35726562 82.29858398 -61.01726562 82.29858398 -61.69726562 82.29858398 C-61.69726562 82.95858398 -61.69726562 83.61858398 -61.69726562 84.29858398 C-62.35726562 84.29858398 -63.01726562 84.29858398 -63.69726562 84.29858398 C-63.69726562 84.95858398 -63.69726562 85.61858398 -63.69726562 86.29858398 C-64.35726562 86.29858398 -65.01726562 86.29858398 -65.69726562 86.29858398 C-65.69726562 86.95858398 -65.69726562 87.61858398 -65.69726562 88.29858398 C-66.35726562 88.29858398 -67.01726562 88.29858398 -67.69726562 88.29858398 C-67.69726562 88.95858398 -67.69726562 89.61858398 -67.69726562 90.29858398 C-69.30664063 91.98999023 -69.30664063 91.98999023 -71.44726562 93.86108398 C-72.49140625 94.79114258 -72.49140625 94.79114258 -73.55664062 95.73999023 C-75.67709118 97.28389492 -77.13647135 97.87755249 -79.69726562 98.29858398 C-79.69726562 98.95858398 -79.69726562 99.61858398 -79.69726562 100.29858398 C-81.34726562 100.29858398 -82.99726563 100.29858398 -84.69726562 100.29858398 C-85.02726562 99.30858398 -85.35726562 98.31858398 -85.69726562 97.29858398 C-82.33369857 92.16189053 -77.50293563 88.04935082 -72.69726562 84.29858398 C-73.68726563 82.64858398 -74.67726563 80.99858398 -75.69726562 79.29858398 C-72.77417986 75.32346977 -69.5151906 72.39347571 -65.57226562 69.48608398 C-64.4165574 68.61860641 -63.26161876 67.75010267 -62.10742188 66.88061523 C-61.53523926 66.45087402 -60.96305664 66.02113281 -60.37353516 65.57836914 C-57.05117191 63.04183722 -53.84195429 60.36276151 -50.62304688 57.69702148 C-48.69726562 56.29858398 -48.69726562 56.29858398 -46.69726562 56.29858398 C-46.69726562 55.63858398 -46.69726562 54.97858398 -46.69726562 54.29858398 C-46.11976563 54.07170898 -45.54226563 53.84483398 -44.94726562 53.61108398 C-39.21949674 50.26988547 -36.89570715 43.90625633 -34.25390625 38.11889648 C-33.47283119 36.47636728 -32.59091377 34.88268418 -31.69726562 33.29858398 C-28.69726562 32.29858398 -28.69726562 32.29858398 -25.69726562 33.29858398 C-25.39433594 32.58831055 -25.09140625 31.87803711 -24.77929688 31.14624023 C-24.36035156 30.22713867 -23.94140625 29.30803711 -23.50976562 28.36108398 C-22.90068359 26.98629883 -22.90068359 26.98629883 -22.27929688 25.58374023 C-21.75722656 24.82963867 -21.23515625 24.07553711 -20.69726562 23.29858398 C-19.50846802 23.13229492 -19.50846802 23.13229492 -18.2956543 22.96264648 C-15.53539209 22.53750873 -15.53539209 22.53750873 -14.015625 20.16552734 C-13.52900391 19.24908447 -13.04238281 18.3326416 -12.54101562 17.38842773 C-11.99316406 16.39907227 -11.4453125 15.4097168 -10.88085938 14.39038086 C-9.75684054 12.2844755 -8.63444872 10.17770092 -7.51367188 8.07006836 C-6.69189453 6.58796875 -6.69189453 6.58796875 -5.85351562 5.07592773 C-5.36689453 4.16061279 -4.88027344 3.24529785 -4.37890625 2.30224609 C-2.69726562 0.29858398 -2.69726562 0.29858398 0 0 Z " fill="#0203E9" transform="translate(383.697265625,129.701416015625)"/>
<path d="M0 0 C1.98 0 3.96 0 6 0 C6 1.32 6 2.64 6 4 C6.99 4.33 7.98 4.66 9 5 C10.60546875 6.99609375 10.60546875 6.99609375 12.1875 9.4375 C12.71730469 10.24058594 13.24710937 11.04367187 13.79296875 11.87109375 C15 14 15 14 15 16 C19.91582077 17.51953709 19.91582077 17.51953709 25 18 C24.814375 17.38125 24.62875 16.7625 24.4375 16.125 C24 14 24 14 25 12 C27.16796875 11.4765625 27.16796875 11.4765625 30 12 C32.19704504 14.54110309 33.71541848 17.43163791 35.3125 20.375 C35.76689453 21.1690625 36.22128906 21.963125 36.68945312 22.78125 C40 28.65560385 40 28.65560385 40 31 C41.093125 30.773125 42.18625 30.54625 43.3125 30.3125 C47 30 47 30 48.9375 31.4375 C49.288125 31.953125 49.63875 32.46875 50 33 C49.34 34.32 48.68 35.64 48 37 C47.34 37 46.68 37 46 37 C46 38.65 46 40.3 46 42 C46.92683594 42.20496094 47.85367188 42.40992188 48.80859375 42.62109375 C50.00613281 42.89050781 51.20367187 43.15992188 52.4375 43.4375 C53.63246094 43.70433594 54.82742188 43.97117187 56.05859375 44.24609375 C59 45 59 45 60 46 C60.1875 48.4375 60.1875 48.4375 60 51 C59.01 51.99 59.01 51.99 58 53 C58.69867188 53.17015625 59.39734375 53.3403125 60.1171875 53.515625 C61.02726563 53.75796875 61.93734375 54.0003125 62.875 54.25 C63.77992188 54.48203125 64.68484375 54.7140625 65.6171875 54.953125 C68 56 68 56 69.3203125 58.109375 C69.65675781 59.04523438 69.65675781 59.04523438 70 60 C68.875 61.5 68.875 61.5 67 63 C63.8125 63.1875 63.8125 63.1875 61 63 C63.50295784 66.75443677 64.76141474 66.69198746 69.0625 67.625 C74.92061069 68.92061069 74.92061069 68.92061069 76 70 C76.04063832 71.66617115 76.042721 73.33388095 76 75 C73.03 75.495 73.03 75.495 70 76 C74.51451793 84.69346193 79.72201787 92.66520777 85.40429688 100.6328125 C86.31598633 101.95539063 86.31598633 101.95539063 87.24609375 103.3046875 C87.79966553 104.08827637 88.3532373 104.87186523 88.92358398 105.67919922 C90.25665584 108.55336141 89.90712532 110.02194021 89 113 C86 114 86 114 83 113 C81.47819842 110.48115601 80.19442106 107.88756445 78.890625 105.25 C77.12251561 102.61408229 77.12251561 102.61408229 73.61328125 102.6640625 C70 102 70 102 68.59423828 100.54980469 C67.26675752 98.53765596 66.08451319 96.49517924 64.9375 94.375 C59.92120376 84.84717898 59.92120376 84.84717898 52 78 C52 77.34 52 76.68 52 76 C51.38125 75.731875 50.7625 75.46375 50.125 75.1875 C48 74 48 74 46 71 C43.14212105 70.08934389 43.14212105 70.08934389 39.75 69.53515625 C38.5021875 69.29216797 37.254375 69.04917969 35.96875 68.79882812 C33.98142734 68.42718895 31.9932197 68.06127016 30.00390625 67.70043945 C28.08319811 67.34743802 26.16649888 66.97283862 24.25 66.59765625 C23.10015625 66.38633057 21.9503125 66.17500488 20.765625 65.95727539 C18 65 18 65 16.609375 62.90014648 C16.40828125 62.27309814 16.2071875 61.6460498 16 61 C17.23828125 59.48828125 17.23828125 59.48828125 19 58 C20.98046875 57.85546875 20.98046875 57.85546875 23.1875 58.1875 C23.97382813 58.30351562 24.76015625 58.41953125 25.5703125 58.5390625 C29.09762183 59.20823051 32.53605508 60.05528775 36 61 C35.505 60.21625 35.01 59.4325 34.5 58.625 C33 56 33 56 33 54 C31.28103516 53.60167969 31.28103516 53.60167969 29.52734375 53.1953125 C27.99737464 52.83863258 26.46742791 52.48185663 24.9375 52.125 C24.18533203 51.95097656 23.43316406 51.77695312 22.65820312 51.59765625 C19.12421086 50.77152819 15.61883746 49.91143819 12.13671875 48.88671875 C5.04581332 46.88219131 -0.97443862 48.58699369 -7.9140625 50.44140625 C-11.02045397 51.00370243 -12.98895193 50.84510829 -16 50 C-16 48.35 -16 46.7 -16 45 C-14.02 44.505 -14.02 44.505 -12 44 C-12.82301781 41.7816499 -12.82301781 41.7816499 -15.18135071 41.20349121 C-16.14413437 40.94749146 -17.10691803 40.6914917 -18.09887695 40.42773438 C-19.18703201 40.13402954 -20.27518707 39.84032471 -21.39631653 39.53771973 C-23.17433907 39.07045471 -23.17433907 39.07045471 -24.98828125 38.59375 C-26.19816208 38.26838257 -27.40804291 37.94301514 -28.65458679 37.60778809 C-31.87876039 36.74153676 -35.10451682 35.88180314 -38.3314209 35.02581787 C-42.86888365 33.82148484 -47.40425187 32.60941586 -51.9382782 31.39221191 C-54.35323837 30.74430531 -56.7693999 30.100857 -59.18684387 29.46228027 C-60.28445541 29.16857544 -61.38206696 28.87487061 -62.51293945 28.57226562 C-63.47810989 28.31626587 -64.44328033 28.06026611 -65.43769836 27.79650879 C-67.7931505 27.06430056 -69.83801635 26.17650198 -72 25 C-72 23.35 -72 21.7 -72 20 C-66.92390371 18.31053743 -62.80849333 19.84567787 -57.8671875 21.2734375 C-56.99353546 21.51663727 -56.11988342 21.75983704 -55.21975708 22.01040649 C-52.43515292 22.78827877 -49.65518259 23.58148655 -46.875 24.375 C-44.99637313 24.90203852 -43.11746944 25.42809141 -41.23828125 25.953125 C-28.05585592 29.64804803 -28.05585592 29.64804803 -24 31 C-23.67 29.68 -23.34 28.36 -23 27 C-19.62182575 26.15545644 -17.32534757 25.89155081 -14 27 C-14 25.68 -14 24.36 -14 23 C-10.27626376 22.04630446 -7.7095072 22.03892061 -3.98828125 22.9609375 C-3.06595703 23.18523437 -2.14363281 23.40953125 -1.19335938 23.640625 C-0.24267578 23.88296875 0.70800781 24.1253125 1.6875 24.375 C3.13092773 24.72691406 3.13092773 24.72691406 4.60351562 25.0859375 C11.6560983 26.82804915 11.6560983 26.82804915 14 28 C12.41780528 25.45761841 10.83428153 22.91608077 9.25 20.375 C8.8065625 19.66214844 8.363125 18.94929688 7.90625 18.21484375 C7.24882812 17.16103516 7.24882812 17.16103516 6.578125 16.0859375 C5.9289209 15.04445557 5.9289209 15.04445557 5.26660156 13.98193359 C4.11647587 12.18225734 2.91381913 10.43557603 1.6875 8.6875 C-0.29230591 5.53447577 -0.34816536 3.65573626 0 0 Z " fill="#0102F2" transform="translate(326,438)"/>
<path d="M0 0 C0.6875 1.6875 0.6875 1.6875 1 4 C-0.99317632 8.22997711 -3.04787845 9.96337115 -7.18359375 12.04296875 C-8.69856445 12.81737305 -8.69856445 12.81737305 -10.24414062 13.60742188 C-11.29794922 14.12884766 -12.35175781 14.65027344 -13.4375 15.1875 C-14.48744141 15.72052734 -15.53738281 16.25355469 -16.61914062 16.80273438 C-24.5260858 20.80912151 -24.5260858 20.80912151 -27.22094727 21.89453125 C-29.61690736 23.38333423 -29.94436142 24.66540487 -30.78125 27.33203125 C-31.20555298 28.64554565 -31.20555298 28.64554565 -31.63842773 29.9855957 C-32.06490601 31.38491333 -32.06490601 31.38491333 -32.5 32.8125 C-32.95064819 34.22825317 -32.95064819 34.22825317 -33.41040039 35.67260742 C-34.28873615 38.44394491 -35.14666216 41.2208793 -36 44 C-36.44588114 45.42731266 -36.89240818 46.85442386 -37.33984375 48.28125 C-38.24189148 51.18321139 -39.13025009 54.08822858 -40 57 C-39.32453125 56.72285156 -38.6490625 56.44570313 -37.953125 56.16015625 C-37.06109375 55.79792969 -36.1690625 55.43570313 -35.25 55.0625 C-33.92742188 54.52302734 -33.92742188 54.52302734 -32.578125 53.97265625 C-30.37152274 53.1401654 -28.32267001 52.39889333 -26 52 C-25.01 52.495 -25.01 52.495 -24 53 C-24 54.65 -24 56.3 -24 58 C-27.04111749 59.60520934 -30.08299233 61.20897836 -33.125 62.8125 C-34.40890625 63.49022461 -34.40890625 63.49022461 -35.71875 64.18164062 C-36.55664062 64.62314453 -37.39453125 65.06464844 -38.2578125 65.51953125 C-39.07499756 65.96151855 -39.89218262 66.40350586 -40.73413086 66.85888672 C-43 68 -43 68 -46.44921875 69.12109375 C-50.78867286 72.31753698 -50.8391821 77.14845586 -51.6875 82.25 C-51.88754639 83.32507813 -52.08759277 84.40015625 -52.29370117 85.5078125 C-52.69397346 87.66414411 -53.08418586 89.82236956 -53.46386719 91.98242188 C-54.17819313 96.00294496 -54.99145774 100.00022991 -55.8125 104 C-56.20938833 105.99979091 -56.60570918 107.99969533 -57 110 C-55.35 110.33 -53.7 110.66 -52 111 C-51.30859375 112.58203125 -51.30859375 112.58203125 -51 115 C-52.28515625 118.13671875 -52.28515625 118.13671875 -54.0625 121.6875 C-57.05236109 127.98466422 -57.05624742 131.39836353 -55 138 C-57.35894194 141.20034798 -60.26581893 141.92123658 -64 143 C-64.103125 144.051875 -64.20625 145.10375 -64.3125 146.1875 C-65.01650685 150.091538 -65.9861568 151.66500227 -68 155 C-69.4442032 158.05303619 -70.78220721 161.15124742 -72.125 164.25 C-72.83384996 165.88111712 -73.54468173 167.51137492 -74.2578125 169.140625 C-74.5686377 169.85766602 -74.87946289 170.57470703 -75.19970703 171.31347656 C-76 173 -76 173 -77 174 C-78.66617115 174.04063832 -80.33388095 174.042721 -82 174 C-83.05431248 171.29804773 -83.03485146 170.10876687 -82.13549805 167.30200195 C-81.68215088 166.29097412 -81.22880371 165.27994629 -80.76171875 164.23828125 C-80.27123047 163.11873047 -79.78074219 161.99917969 -79.27539062 160.84570312 C-78.75138672 159.67974609 -78.22738281 158.51378906 -77.6875 157.3125 C-70.54632921 142.67662847 -70.54632921 142.67662847 -71.68766785 127.045578 C-72.57681827 124.78709074 -73.5068324 122.54928566 -74.44921875 120.3125 C-75.13942678 118.62791327 -75.82885661 116.94300752 -76.51757812 115.2578125 C-77.60244578 112.62106001 -78.69291213 109.98711567 -79.79711914 107.35839844 C-80.86496964 104.808123 -81.90867398 102.24901504 -82.94921875 99.6875 C-83.28451096 98.90608643 -83.61980316 98.12467285 -83.96525574 97.31958008 C-85.46280633 93.58637158 -86.1373768 91.67360214 -85.31567383 87.64453125 C-84 85 -84 85 -82 82 C-81.34 82 -80.68 82 -80 82 C-79.93409668 81.22599854 -79.86819336 80.45199707 -79.80029297 79.65454102 C-79 77 -79 77 -76.91455078 75.61303711 C-76.01720215 75.2547583 -75.11985352 74.89647949 -74.1953125 74.52734375 C-73.21997559 74.10831787 -72.24463867 73.68929199 -71.23974609 73.25756836 C-70.21187988 72.8219458 -69.18401367 72.38632324 -68.125 71.9375 C-60.44026675 68.67113223 -60.44026675 68.67113223 -55.015625 62.6875 C-54.29677729 59.49779419 -54.29677729 59.49779419 -54.2734375 56.43359375 C-54.18320312 55.63050781 -54.09296875 54.82742188 -54 54 C-52.1640625 52.59765625 -52.1640625 52.59765625 -50 52 C-49.01 52.33 -48.02 52.66 -47 53 C-43.535 41.615 -43.535 41.615 -40 30 C-44.35506163 31.08876541 -47.65903563 32.88501661 -51.5625 35.0390625 C-54 36 -54 36 -56.234375 35.80859375 C-58 35 -58 35 -59.25 32.4375 C-59.4975 31.633125 -59.745 30.82875 -60 30 C-55.88541175 25.30119029 -51.40510335 22.86998573 -45.8125 20.1875 C-44.58370117 19.57745117 -44.58370117 19.57745117 -43.33007812 18.95507812 C-37.29575893 16 -37.29575893 16 -35 16 C-34.79503906 15.21753906 -34.59007812 14.43507813 -34.37890625 13.62890625 C-34.10949219 12.61699219 -33.84007812 11.60507812 -33.5625 10.5625 C-33.29566406 9.55316406 -33.02882813 8.54382813 -32.75390625 7.50390625 C-32 5 -32 5 -31 4 C-29.33382885 3.95936168 -27.66611905 3.957279 -26 4 C-26 5.98 -26 7.96 -26 10 C-25.35450195 9.66154053 -24.70900391 9.32308105 -24.04394531 8.97436523 C-21.11896128 7.4495556 -18.18476129 5.94339939 -15.25 4.4375 C-14.23421875 3.90447266 -13.2184375 3.37144531 -12.171875 2.82226562 C-11.1921875 2.32275391 -10.2125 1.82324219 -9.203125 1.30859375 C-8.30239258 0.84251709 -7.40166016 0.37644043 -6.47363281 -0.10375977 C-3.77025166 -1.08324182 -2.64146611 -1.01615584 0 0 Z " fill="#0203E9" transform="translate(870,394)"/>
<path d="M0 0 C0.75990234 0.09853271 1.51980469 0.19706543 2.30273438 0.29858398 C2.98583984 1.95043945 2.98583984 1.95043945 3.30273438 4.29858398 C2.14697266 6.92407227 2.14697266 6.92407227 0.37304688 9.86889648 C-0.25730469 10.92979492 -0.88765625 11.99069336 -1.53710938 13.08374023 C-2.54451172 14.73696289 -2.54451172 14.73696289 -3.57226562 16.42358398 C-4.88223274 18.61364551 -6.19213205 20.8037476 -7.50195312 22.99389648 C-8.08960449 23.96343262 -8.67725586 24.93296875 -9.28271484 25.93188477 C-10.68295261 28.20745745 -10.68295261 28.20745745 -11.69726562 30.29858398 C-11.03726563 30.29858398 -10.37726563 30.29858398 -9.69726562 30.29858398 C-9.69726562 29.63858398 -9.69726562 28.97858398 -9.69726562 28.29858398 C-8.04726563 28.29858398 -6.39726562 28.29858398 -4.69726562 28.29858398 C-4.20226562 29.78358398 -4.20226562 29.78358398 -3.69726562 31.29858398 C-4.35726562 32.28858398 -5.01726562 33.27858398 -5.69726562 34.29858398 C-6.35726562 34.29858398 -7.01726562 34.29858398 -7.69726562 34.29858398 C-7.69726562 34.95858398 -7.69726562 35.61858398 -7.69726562 36.29858398 C-9.16601562 37.77905273 -9.16601562 37.77905273 -11.19726562 39.48608398 C-11.92816406 40.11514648 -12.6590625 40.74420898 -13.41210938 41.39233398 C-14.84153978 42.58474772 -16.28966656 43.75548301 -17.76367188 44.89233398 C-25.36941427 50.96502067 -29.30251604 58.84031819 -32.95898438 67.67358398 C-33.35093994 68.61959473 -33.74289551 69.56560547 -34.14672852 70.5402832 C-34.92146129 72.44051042 -35.67767948 74.34840724 -36.41381836 76.26391602 C-36.76774658 77.14418457 -37.1216748 78.02445312 -37.48632812 78.93139648 C-37.94579834 80.12079834 -37.94579834 80.12079834 -38.41455078 81.33422852 C-40.10231437 83.91887751 -41.84809647 84.28312418 -44.69726562 85.29858398 C-45.58419866 87.33964038 -45.58419866 87.33964038 -45.69726562 89.29858398 C-44.37726563 89.62858398 -43.05726563 89.95858398 -41.69726562 90.29858398 C-41.07226562 92.17358398 -41.07226562 92.17358398 -40.69726562 94.29858398 C-41.35726562 94.95858398 -42.01726562 95.61858398 -42.69726562 96.29858398 C-42.69726562 94.64858398 -42.69726562 92.99858398 -42.69726562 91.29858398 C-45.9457654 93.02084894 -45.9457654 93.02084894 -46.69726562 96.29858398 C-47.35726562 96.29858398 -48.01726562 96.29858398 -48.69726562 96.29858398 C-49.19226563 98.27858398 -49.19226563 98.27858398 -49.69726562 100.29858398 C-50.02726562 99.63858398 -50.35726562 98.97858398 -50.69726562 98.29858398 C-50.36726563 97.63858398 -50.03726563 96.97858398 -49.69726562 96.29858398 C-50.35726562 96.29858398 -51.01726562 96.29858398 -51.69726562 96.29858398 C-51.87902344 97.16870117 -51.87902344 97.16870117 -52.06445312 98.05639648 C-52.71985695 100.37862979 -53.6021861 102.09702479 -54.82226562 104.17358398 C-59.05818588 111.63222166 -63.12351543 119.26336342 -66.30273438 127.23999023 C-66.68764038 128.19675659 -66.68764038 128.19675659 -67.08032227 129.17285156 C-67.78446858 130.95302798 -68.46424025 132.74278921 -69.14257812 134.53295898 C-70.99559227 137.82927561 -72.21788063 138.13498638 -75.69726562 139.29858398 C-76.02726562 140.28858398 -76.35726563 141.27858398 -76.69726562 142.29858398 C-77.35726563 142.29858398 -78.01726562 142.29858398 -78.69726562 142.29858398 C-80.09037024 138.42884896 -79.52040644 135.27456769 -78.69726562 131.29858398 C-77.41610184 128.91063363 -76.12899539 126.74500623 -74.63867188 124.50170898 C-69.77672087 116.79358803 -66.11951338 108.77313727 -62.60961914 100.37817383 C-61.61591064 98.00352656 -60.60412318 95.63716515 -59.58984375 93.27124023 C-58.94622498 91.75475439 -58.30360682 90.23784339 -57.66210938 88.72045898 C-57.36223618 88.01741638 -57.06236298 87.31437378 -56.75340271 86.59002686 C-55.53490478 83.66089092 -54.69726562 81.50465289 -54.69726562 78.29858398 C-57.8192404 79.60754118 -57.8192404 79.60754118 -59.69726562 82.29858398 C-60.35726563 82.29858398 -61.01726562 82.29858398 -61.69726562 82.29858398 C-61.69726562 82.95858398 -61.69726562 83.61858398 -61.69726562 84.29858398 C-62.35726563 84.29858398 -63.01726562 84.29858398 -63.69726562 84.29858398 C-63.69726562 84.95858398 -63.69726562 85.61858398 -63.69726562 86.29858398 C-64.35726563 86.29858398 -65.01726562 86.29858398 -65.69726562 86.29858398 C-65.69726562 86.95858398 -65.69726562 87.61858398 -65.69726562 88.29858398 C-66.35726563 88.29858398 -67.01726562 88.29858398 -67.69726562 88.29858398 C-67.69726562 88.95858398 -67.69726562 89.61858398 -67.69726562 90.29858398 C-69.30664062 91.98999023 -69.30664062 91.98999023 -71.44726562 93.86108398 C-72.49140625 94.79114258 -72.49140625 94.79114258 -73.55664062 95.73999023 C-75.67709118 97.28389492 -77.13647135 97.87755249 -79.69726562 98.29858398 C-79.69726562 98.95858398 -79.69726562 99.61858398 -79.69726562 100.29858398 C-81.34726562 100.29858398 -82.99726563 100.29858398 -84.69726562 100.29858398 C-85.02726562 99.30858398 -85.35726563 98.31858398 -85.69726562 97.29858398 C-82.33369857 92.16189053 -77.50293563 88.04935082 -72.69726562 84.29858398 C-73.68726563 82.64858398 -74.67726563 80.99858398 -75.69726562 79.29858398 C-72.77417986 75.32346977 -69.5151906 72.39347571 -65.57226562 69.48608398 C-64.4165574 68.61860641 -63.26161876 67.75010267 -62.10742188 66.88061523 C-61.53523926 66.45087402 -60.96305664 66.02113281 -60.37353516 65.57836914 C-57.05117191 63.04183722 -53.84195429 60.36276151 -50.62304688 57.69702148 C-48.69726562 56.29858398 -48.69726562 56.29858398 -46.69726562 56.29858398 C-46.69726562 55.63858398 -46.69726562 54.97858398 -46.69726562 54.29858398 C-46.11976563 54.07170898 -45.54226563 53.84483398 -44.94726562 53.61108398 C-39.21949674 50.26988547 -36.89570715 43.90625633 -34.25390625 38.11889648 C-33.47283119 36.47636728 -32.59091377 34.88268418 -31.69726562 33.29858398 C-28.69726562 32.29858398 -28.69726562 32.29858398 -25.69726562 33.29858398 C-25.39433594 32.58831055 -25.09140625 31.87803711 -24.77929688 31.14624023 C-24.36035156 30.22713867 -23.94140625 29.30803711 -23.50976562 28.36108398 C-23.10371094 27.44456055 -22.69765625 26.52803711 -22.27929688 25.58374023 C-21.75722656 24.82963867 -21.23515625 24.07553711 -20.69726562 23.29858398 C-19.90473389 23.18772461 -19.11220215 23.07686523 -18.2956543 22.96264648 C-15.53539209 22.53750873 -15.53539209 22.53750873 -14.015625 20.16552734 C-13.28569336 18.79086304 -13.28569336 18.79086304 -12.54101562 17.38842773 C-11.99316406 16.39907227 -11.4453125 15.4097168 -10.88085938 14.39038086 C-9.75684054 12.2844755 -8.63444872 10.17770092 -7.51367188 8.07006836 C-6.69189453 6.58796875 -6.69189453 6.58796875 -5.85351562 5.07592773 C-5.12358398 3.70295532 -5.12358398 3.70295532 -4.37890625 2.30224609 C-2.69726562 0.29858398 -2.69726562 0.29858398 0 0 Z " fill="#0202ED" transform="translate(383.697265625,129.701416015625)"/>
<path d="M0 0 C1.65 0 3.3 0 5 0 C6.15728203 5.95755747 5.79793097 11.30418776 5.125 17.3125 C4.98771484 18.67084961 4.98771484 18.67084961 4.84765625 20.05664062 C4.14262062 26.71475875 4.14262062 26.71475875 3 29 C7.27343092 29.36629408 9.48812804 28.40814077 13 26 C14.5 27.375 14.5 27.375 16 29 C16 29.66 16 30.32 16 31 C17.17175781 31.12117188 18.34351563 31.24234375 19.55078125 31.3671875 C42.61050478 33.80525239 42.61050478 33.80525239 47 36 C47 37.65 47 39.3 47 41 C42.60657134 41.92512737 39.10689344 41.93845993 34.68359375 41.22265625 C33.50732422 41.03896484 32.33105469 40.85527344 31.11914062 40.66601562 C29.90419922 40.46685547 28.68925781 40.26769531 27.4375 40.0625 C25.02004821 39.67514522 22.60209438 39.29090758 20.18359375 38.91015625 C19.11681396 38.73621338 18.05003418 38.56227051 16.95092773 38.38305664 C11.81932855 37.55807871 11.81932855 37.55807871 7.05957031 39.1237793 C0.29629105 46.01007929 0.41874323 54.70638506 -0.25 63.8125 C-0.44645616 66.22558831 -0.65183408 68.63724403 -0.87225342 71.04826355 C-1.00677566 72.54054119 -1.12660304 74.03423616 -1.22979736 75.52900696 C-1.46437586 78.29285409 -1.73556985 80.54330344 -3.13793945 82.96533203 C-6.00790094 84.56004775 -8.45665507 84.29888003 -11.71484375 84.22265625 C-12.36699356 84.21366806 -13.01914337 84.20467987 -13.6910553 84.19541931 C-15.77374721 84.16542038 -17.85527963 84.11565591 -19.9375 84.0625 C-22.01607132 84.01459778 -24.09433724 83.97124694 -26.17323303 83.94029236 C-28.06222455 83.9115285 -29.95094663 83.86645055 -31.83959961 83.82055664 C-34.91455216 83.99514838 -36.36842931 84.55492658 -39 86 C-39.66 85.67 -40.32 85.34 -41 85 C-41 84.34 -41 83.68 -41 83 C-41.55985596 83.01571045 -42.11971191 83.0314209 -42.6965332 83.04760742 C-45.2350859 83.10999848 -47.77347729 83.14900218 -50.3125 83.1875 C-51.19357422 83.21263672 -52.07464844 83.23777344 -52.98242188 83.26367188 C-53.82998047 83.27333984 -54.67753906 83.28300781 -55.55078125 83.29296875 C-56.33106689 83.3086792 -57.11135254 83.32438965 -57.9152832 83.34057617 C-60.49903853 82.91847304 -61.36292167 81.98510058 -63 80 C-62.67 79.01 -62.34 78.02 -62 77 C-59.44456845 75.72228423 -57.79388434 75.98298188 -54.94140625 76.10546875 C-43.15648808 76.88718675 -43.15648808 76.88718675 -32.5625 72.86328125 C-30.3471423 70.32600438 -28.3955325 67.72726552 -26.48925781 64.95361328 C-23.4002069 60.90138617 -19.58824952 57.47679644 -15.9375 53.9375 C-14.46408192 52.49170358 -12.99380443 51.04269653 -11.52734375 49.58984375 C-10.89562256 48.96972412 -10.26390137 48.34960449 -9.61303711 47.71069336 C-6.90345298 44.83706599 -5.75489292 42.67474466 -5.375 38.8125 C-5.189375 36.9253125 -5.189375 36.9253125 -5 35 C-7.64 34.34 -10.28 33.68 -13 33 C-13 31.35 -13 29.7 -13 28 C-9.94152152 27.45627049 -7.11227195 27 -4 27 C-3.91435791 26.25314941 -3.82871582 25.50629883 -3.74047852 24.73681641 C-3.35171109 21.36574873 -2.95717962 17.99538037 -2.5625 14.625 C-2.42779297 13.449375 -2.29308594 12.27375 -2.15429688 11.0625 C-2.02216797 9.94101562 -1.89003906 8.81953125 -1.75390625 7.6640625 C-1.57323608 6.10872803 -1.57323608 6.10872803 -1.38891602 4.52197266 C-1 2 -1 2 0 0 Z " fill="#0303E6" transform="translate(467,50)"/>
<path d="M0 0 C3.63 0 7.26 0 11 0 C12.89961821 18.42109409 14.26758069 36.8831614 15.65942383 55.34790039 C15.99516247 59.80171357 16.33435286 64.25525589 16.67458439 68.70872784 C16.94105519 72.20156239 17.20573591 75.69453094 17.46990776 79.18754005 C17.59415147 80.82781736 17.71890138 82.46805642 17.84422493 84.10825157 C18.50278948 92.74124478 19.11787458 101.37678223 19.64624023 110.01879883 C19.72265165 111.17564068 19.72265165 111.17564068 19.80060673 112.35585308 C20.11563295 117.76873409 20.11563295 117.76873409 19 120 C17.35 120 15.7 120 14 120 C12.52221269 114.55909047 11.58845489 109.38692465 11.1484375 103.7734375 C11.08467926 103.02212555 11.02092102 102.2708136 10.95523071 101.49673462 C10.82286445 99.92223292 10.69361628 98.34746619 10.56738281 96.77246094 C10.37489636 94.37370851 10.17265178 91.97593148 9.96875 89.578125 C9.84057713 88.03910976 9.71295403 86.50004861 9.5859375 84.9609375 C9.52659027 84.25141937 9.46724304 83.54190125 9.40609741 82.81088257 C9.09231108 78.86299895 8.94205005 74.95991336 9 71 C8.34 71 7.68 71 7 71 C4.98949449 64.03530141 4.31272222 57.1710344 3.7109375 49.9609375 C3.60278717 48.72131256 3.49463684 47.48168762 3.38320923 46.20449829 C3.09902503 42.92917287 2.82069439 39.65341726 2.54486084 36.37738037 C2.26264555 33.05052556 1.97030442 29.7245686 1.6796875 26.3984375 C1.46037024 23.85681972 1.24160149 21.31515453 1.0234375 18.7734375 C0.92034271 17.58269623 0.81724792 16.39195496 0.71102905 15.16513062 C0.61738068 14.05022247 0.5237323 12.93531433 0.42724609 11.78662109 C0.34445404 10.81147552 0.26166199 9.83632996 0.17636108 8.83163452 C-0.00744479 5.88046733 -0.02991907 2.95610635 0 0 Z " fill="#0101F2" transform="translate(954,0)"/>
<path d="M0 0 C1.65 0 3.3 0 5 0 C6.52923092 6.14366087 7.42212939 12.11438147 7.8515625 18.42578125 C7.94719986 19.7290461 7.94719986 19.7290461 8.04476929 21.05863953 C8.17725754 22.88448498 8.30649844 24.71056876 8.43261719 26.53686523 C8.62381672 29.29542801 8.82671001 32.05294463 9.03125 34.81054688 C9.68772576 43.88360687 10.23189402 52.89640299 10 62 C10.568396 62.26643311 11.13679199 62.53286621 11.72241211 62.80737305 C15.96001012 65.02633181 19.70895476 67.99389039 23.5625 70.8125 C24.42552734 71.42931641 25.28855469 72.04613281 26.17773438 72.68164062 C27.00724609 73.28814453 27.83675781 73.89464844 28.69140625 74.51953125 C29.82364624 75.34094604 29.82364624 75.34094604 30.97875977 76.17895508 C33.28246841 78.25449111 34.64846376 80.21473378 36 83 C35.67 83.66 35.34 84.32 35 85 C31.86543753 85.52159914 29.73147685 85.44977023 26.99169922 83.76513672 C23.98654095 81.43532602 21.09044211 78.9906004 18.18945312 76.53320312 C17.46564453 75.94345703 16.74183594 75.35371094 15.99609375 74.74609375 C15.34825928 74.19622803 14.7004248 73.6463623 14.03295898 73.07983398 C11.33204981 71.64520912 9.89129385 72.26319123 7 73 C5.25 71.875 5.25 71.875 4 70 C3.88462891 69.20013672 3.76925781 68.40027344 3.65039062 67.57617188 C2.85475137 64.42467586 1.97058265 63.74428871 -0.65625 61.90625 C-1.80794678 61.08193481 -1.80794678 61.08193481 -2.98291016 60.2409668 C-3.8135498 59.66644775 -4.64418945 59.09192871 -5.5 58.5 C-7.22764263 57.2684409 -8.95418055 56.03533082 -10.6796875 54.80078125 C-11.56108398 54.17510254 -12.44248047 53.54942383 -13.35058594 52.90478516 C-17.50686183 49.91664799 -21.5679223 46.808329 -25.625 43.6875 C-26.35267578 43.130625 -27.08035156 42.57375 -27.83007812 42 C-32.85443141 38.14556859 -32.85443141 38.14556859 -34 37 C-34.04063832 35.33382885 -34.042721 33.66611905 -34 32 C-32.25561523 31.33666992 -32.25561523 31.33666992 -30 31 C-28.00805664 32.01293945 -28.00805664 32.01293945 -25.91015625 33.61328125 C-24.74190308 34.48992432 -24.74190308 34.48992432 -23.55004883 35.38427734 C-22.72915771 36.02059082 -21.9082666 36.6569043 -21.0625 37.3125 C-20.22162842 37.94881348 -19.38075684 38.58512695 -18.5144043 39.24072266 C-15.99987673 41.14813 -13.49895161 43.07225176 -11 45 C-9.62033721 46.05409983 -8.24017732 47.10754956 -6.859375 48.16015625 C-3.89479373 50.42547317 -0.94310203 52.70681098 2 55 C1.43223851 42.73336361 0.63027042 30.49637924 -0.33935547 18.25463867 C-1.51873845 3.03747691 -1.51873845 3.03747691 0 0 Z " fill="#0303E4" transform="translate(1100,621)"/>
<path d="M0 0 C1.65 0 3.3 0 5 0 C6.68481445 6.07185617 7.53401265 11.92467046 8.0703125 18.1953125 C8.15626678 19.14638885 8.24222107 20.09746521 8.33078003 21.07736206 C8.51012629 23.07556033 8.68644056 25.07403283 8.85986328 27.07275391 C9.12485965 30.12338433 9.39952361 33.17302702 9.67578125 36.22265625 C9.84952423 38.17182464 10.02272008 40.12104189 10.1953125 42.0703125 C10.27653351 42.97669464 10.35775452 43.88307678 10.44143677 44.81692505 C11.49233663 57.01532675 11.49233663 57.01532675 10 60 C9.2752477 69.89373861 10.85706197 79.81231305 12.02148438 89.61328125 C12.16005859 90.84949219 12.29863281 92.08570313 12.44140625 93.359375 C12.57232666 94.46764648 12.70324707 95.57591797 12.83813477 96.71777344 C13.01378291 100.27948325 12.60804929 103.49324017 12 107 C10.515 107.495 10.515 107.495 9 108 C6.5713475 106.15817205 6.02012019 105.09164257 5.35571289 102.06542969 C5.2293042 100.86305664 5.10289551 99.66068359 4.97265625 98.421875 C4.89882721 97.75462402 4.82499817 97.08737305 4.74893188 96.39990234 C4.50717898 94.18444207 4.28454115 91.96751597 4.0625 89.75 C3.89853858 88.1994386 3.73356318 86.64898412 3.56762695 85.09863281 C3.21702598 81.80085729 2.87489316 78.50233676 2.53808594 75.203125 C2.08457912 70.78054492 1.60507244 66.36120982 1.11701965 61.94232178 C0.72714704 58.40461626 0.34542269 54.8660619 -0.03445435 51.32727051 C-0.21882749 49.61827248 -0.40554945 47.90952611 -0.59469604 46.2010498 C-0.85939182 43.79631004 -1.11273627 41.39062494 -1.36328125 38.984375 C-1.44323334 38.27845215 -1.52318542 37.5725293 -1.6055603 36.84521484 C-2.0620121 32.31793316 -1.79857116 28.43963669 -1 24 C-0.34 24 0.32 24 1 24 C0.855625 22.91460937 0.71125 21.82921875 0.5625 20.7109375 C0.37480044 19.2656509 0.18731162 17.82033693 0 16.375 C-0.09539062 15.66214844 -0.19078125 14.94929688 -0.2890625 14.21484375 C-1.6825958 3.36519161 -1.6825958 3.36519161 0 0 Z " fill="#0303E6" transform="translate(1071,324)"/>
<path d="M0 0 C0.20086443 3.71599191 0.1519437 4.77208445 -2 8 C-3.77734375 9.10546875 -3.77734375 9.10546875 -5.9375 10.1875 C-10.83602713 12.77943911 -15.12985114 15.95826956 -19.51953125 19.328125 C-21.79299829 20.86047759 -23.32585457 21.57612613 -26 22 C-26 22.66 -26 23.32 -26 24 C-28.17138672 25.69580078 -28.17138672 25.69580078 -31.1796875 27.6953125 C-32.25347656 28.41074219 -33.32726562 29.12617188 -34.43359375 29.86328125 C-34.99804199 30.23404785 -35.56249023 30.60481445 -36.14404297 30.98681641 C-37.86627619 32.1192637 -39.58000624 33.26374735 -41.29296875 34.41015625 C-49.73332957 40 -49.73332957 40 -52 40 C-52 40.66 -52 41.32 -52 42 C-53.97001851 43.52856619 -55.93033056 44.93092477 -58 46.3125 C-58.59071289 46.71476807 -59.18142578 47.11703613 -59.79003906 47.53149414 C-63.06298616 49.74757069 -66.37441619 51.88011863 -69.75 53.9375 C-73.02775993 55.62588385 -73.02775993 55.62588385 -74 58 C-75.46882947 58.90671973 -76.97485882 59.75407865 -78.5 60.5625 C-81.44151287 62.01636635 -81.44151287 62.01636635 -84 64 C-85.99958364 64.04080783 -88.00045254 64.04254356 -90 64 C-90.21875 61.6953125 -90.21875 61.6953125 -90 59 C-88.59375 57.3671875 -88.59375 57.3671875 -86.5 55.875 C-85.28957031 55.00101562 -85.28957031 55.00101562 -84.0546875 54.109375 C-83.04664063 53.41328125 -82.03859375 52.7171875 -81 52 C-79.64815716 51.04727266 -78.29661571 50.09411758 -76.9453125 49.140625 C-74.12898964 47.17009266 -71.31132212 45.20174548 -68.4765625 43.2578125 C-67.87924316 42.8467627 -67.28192383 42.43571289 -66.66650391 42.01220703 C-65 41 -65 41 -62 40 C-62 39.34 -62 38.68 -62 38 C-61.47792969 37.731875 -60.95585938 37.46375 -60.41796875 37.1875 C-54.97106901 34.28757439 -50.0674763 30.95625665 -45.1171875 27.28125 C-40.99443845 24.26410032 -36.78452976 21.38442073 -32.55883789 18.51391602 C-28.57232049 15.79738983 -24.63773619 13.02400749 -20.73828125 10.18359375 C-19.40204712 9.21993896 -19.40204712 9.21993896 -18.03881836 8.23681641 C-16.2930869 6.97571703 -14.55525152 5.70359783 -12.82641602 4.41943359 C-5.4355288 -0.88833076 -5.4355288 -0.88833076 0 0 Z " fill="#0303E2" transform="translate(756,352)"/>
<path d="M0 0 C1.19856125 0.36975952 2.3971225 0.73951904 3.63200378 1.1204834 C6.79257822 2.09682324 9.95206141 3.07660294 13.11120605 4.05755615 C15.69137436 4.85720452 18.27314576 5.65160586 20.8549242 6.44603729 C23.94600231 7.39812417 27.03542803 8.35553898 30.125 9.3125 C31.27917923 9.66775757 32.43335846 10.02301514 33.62251282 10.38903809 C34.69430283 10.72278442 35.76609283 11.05653076 36.87036133 11.40039062 C37.81140213 11.69192017 38.75244293 11.98344971 39.72200012 12.28381348 C42.01502868 13.08132071 44.09243268 14.01305896 46.23046875 15.15625 C46.23046875 16.80625 46.23046875 18.45625 46.23046875 20.15625 C41.86631599 21.41799398 39.09678142 20.80511965 34.80371094 19.44970703 C34.18035858 19.25638794 33.55700623 19.06306885 32.9147644 18.8638916 C30.86525773 18.22513389 28.82144573 17.5698902 26.77734375 16.9140625 C25.35228183 16.46569453 23.926923 16.01826928 22.50128174 15.57174683 C19.52005979 14.63543872 16.54136226 13.69162893 13.56445312 12.74169922 C9.74188753 11.5219876 5.91540403 10.31520376 2.08723068 9.11322212 C-1.55909272 7.96780508 -5.20347065 6.81625946 -8.84765625 5.6640625 C-9.54607887 5.44375492 -10.2445015 5.22344734 -10.96408844 4.99646378 C-12.93060268 4.37487908 -14.89568569 3.74898076 -16.86035156 3.12158203 C-17.98000305 2.76548859 -19.09965454 2.40939514 -20.25323486 2.04251099 C-22.76953125 1.15625 -22.76953125 1.15625 -23.76953125 0.15625 C-23.81016957 -1.50992115 -23.81225225 -3.17763095 -23.76953125 -4.84375 C-17.97327339 -7.74187893 -5.89905666 -1.83179908 0 0 Z " fill="#0404E1" transform="translate(967.76953125,638.84375)"/>
<path d="M0 0 C0.99 0.33 1.98 0.66 3 1 C5.35024797 6.18125234 5.80087172 11.84603237 6.5078125 17.4375 C6.63815887 18.43579834 6.76850525 19.43409668 6.90280151 20.46264648 C7.17618914 22.5668492 7.4466482 24.67143424 7.71435547 26.77636719 C8.12371921 29.98994559 8.54355307 33.20202829 8.96484375 36.4140625 C9.22978937 38.46346126 9.49413257 40.51293801 9.7578125 42.5625 C9.88278107 43.51890381 10.00774963 44.47530762 10.13650513 45.46069336 C10.70992881 50.00662685 11.15191342 54.40629109 11 59 C9.1875 59.6875 9.1875 59.6875 7 60 C3.69312382 57.41740961 3.41612816 54.81633697 2.87207031 50.74047852 C2.76991211 49.87737061 2.66775391 49.0142627 2.5625 48.125 C2.31959575 46.24080987 2.07606937 44.35669986 1.83203125 42.47265625 C1.63794678 40.93182373 1.63794678 40.93182373 1.43994141 39.35986328 C0.95952283 35.69087299 0.42734704 32.03168376 -0.11328125 28.37109375 C-0.30156494 27.0773584 -0.48984863 25.78362305 -0.68383789 24.45068359 C-1.05646647 21.89161381 -1.43441775 19.33331248 -1.81811523 16.77587891 C-1.98641846 15.59300293 -2.15472168 14.41012695 -2.328125 13.19140625 C-2.55870605 11.61661499 -2.55870605 11.61661499 -2.79394531 10.01000977 C-3.01428613 6.7913108 -2.77991956 4.128528 -2 1 C-1.34 0.67 -0.68 0.34 0 0 Z " fill="#0000FB" transform="translate(997,510)"/>
<path d="M0 0 C-0.66955239 3.87881264 -1.34521813 7.75650734 -2.02636719 11.63330078 C-2.3697178 13.59482339 -2.70833374 15.55717287 -3.046875 17.51953125 C-3.26601563 18.76347656 -3.48515625 20.00742187 -3.7109375 21.2890625 C-3.90993652 22.43068848 -4.10893555 23.57231445 -4.31396484 24.74853516 C-4.98751037 27.94080536 -5.90588288 30.92915084 -7 34 C-9.3039403 31.6960597 -9.98386967 29.87126883 -11.1640625 26.84375 C-11.56367187 25.82152344 -11.96328125 24.79929687 -12.375 23.74609375 C-12.7875 22.67488281 -13.2 21.60367187 -13.625 20.5 C-14.04523437 19.42878906 -14.46546875 18.35757812 -14.8984375 17.25390625 C-18 9.26838981 -18 9.26838981 -18 7 C-15.56568361 5.82625827 -13.12795818 4.66084237 -10.6875 3.5 C-9.99720703 3.16613281 -9.30691406 2.83226562 -8.59570312 2.48828125 C-3.33984375 0 -3.33984375 0 0 0 Z " fill="#000011" transform="translate(812,470)"/>
<path d="M0 0 C0.66 0 1.32 0 2 0 C-0.45153856 8.19036747 -3.92908151 15.85022281 -7.47021484 23.61328125 C-8.5054361 25.88693932 -9.52839992 28.16585686 -10.55078125 30.4453125 C-11.21020527 31.89876993 -11.87033632 33.35190684 -12.53125 34.8046875 C-12.83446167 35.48280487 -13.13767334 36.16092224 -13.45007324 36.85958862 C-14.95903509 40.14046604 -16.40448615 42.52246405 -19 45 C-20.17131405 47.2807853 -20.17131405 47.2807853 -21.15625 49.8515625 C-21.53910156 50.78484375 -21.92195313 51.718125 -22.31640625 52.6796875 C-23.1081725 54.6499573 -23.89721806 56.62132252 -24.68359375 58.59375 C-25.06644531 59.52445312 -25.44929688 60.45515625 -25.84375 61.4140625 C-26.18599609 62.2695166 -26.52824219 63.1249707 -26.88085938 64.00634766 C-28 66 -28 66 -31 67 C-34.08335605 62.55996728 -34.08335605 62.55996728 -33.71020508 60.05322266 C-32.50193896 56.56009167 -30.57950903 53.53541188 -28.6875 50.375 C-28.29626953 49.694375 -27.90503906 49.01375 -27.50195312 48.3125 C-26.91897461 47.33410156 -26.91897461 47.33410156 -26.32421875 46.3359375 C-25.97447998 45.74345215 -25.62474121 45.1509668 -25.2644043 44.54052734 C-24 43 -24 43 -21.98901367 42.06884766 C-19.3467889 40.64898021 -18.94157419 39.32482056 -17.8515625 36.5625 C-17.48901367 35.67216064 -17.12646484 34.78182129 -16.75292969 33.86450195 C-16.38071289 32.91921631 -16.00849609 31.97393066 -15.625 31 C-12.92489524 24.40977301 -10.23357814 18.14886512 -6.3515625 12.15234375 C-3.91546207 8.27288901 -1.98324866 4.12445519 0 0 Z " fill="#000036" transform="translate(332,226)"/>
<path d="M0 0 C0.12933602 6.75421451 -0.23284249 13.28737179 -1 20 C-7.27 20 -13.54 20 -20 20 C-20 19.34 -20 18.68 -20 18 C-19.34 18 -18.68 18 -18 18 C-18 17.34 -18 16.68 -18 16 C-17.34 16 -16.68 16 -16 16 C-16 15.34 -16 14.68 -16 14 C-14.87395937 12.83983693 -13.73996391 11.68649413 -12.5703125 10.5703125 C-10.07452968 8.07452968 -7.83206713 5.36288184 -5.55078125 2.671875 C-3.70010439 0.67668684 -2.73961096 0 0 0 Z " fill="#00001B" transform="translate(460,106)"/>
<path d="M0 0 C0.99 0.33 1.98 0.66 3 1 C5.50244503 6.4189637 5.89192193 12.5103754 6.625 18.375 C6.7590625 19.37789062 6.893125 20.38078125 7.03125 21.4140625 C7.74693048 26.9934491 8.14764711 32.37598735 8 38 C7.34 38 6.68 38 6 38 C6 33.38 6 28.76 6 24 C5.34 24 4.68 24 4 24 C3.67 22.68 3.34 21.36 3 20 C2.67 25.28 2.34 30.56 2 36 C1.67 36 1.34 36 1 36 C0.40031565 31.98146509 -0.18723215 27.96135491 -0.76391602 23.93945312 C-0.96148744 22.57341556 -1.1622854 21.20784041 -1.36645508 19.84277344 C-1.66048135 17.87301308 -1.94169382 15.90135365 -2.22265625 13.9296875 C-2.39547119 12.74616699 -2.56828613 11.56264648 -2.74633789 10.34326172 C-3.00175534 6.97686469 -2.83691365 4.26696629 -2 1 C-1.34 0.67 -0.68 0.34 0 0 Z " fill="#0405D9" transform="translate(997,510)"/>
<path d="M0 0 C0.73863281 0.12632812 1.47726562 0.25265625 2.23828125 0.3828125 C3.19267388 2.92448411 3.38408018 4.02520596 2.34204102 6.58105469 C1.87596436 7.35610352 1.4098877 8.13115234 0.9296875 8.9296875 C0.43017578 9.77402344 -0.06933594 10.61835938 -0.58398438 11.48828125 C-1.11701172 12.36097656 -1.65003906 13.23367187 -2.19921875 14.1328125 C-2.72837891 15.02097656 -3.25753906 15.90914062 -3.80273438 16.82421875 C-5.11149666 19.01727987 -6.43135915 21.20280882 -7.76171875 23.3828125 C-8.42171875 22.3928125 -9.08171875 21.4028125 -9.76171875 20.3828125 C-10.75171875 20.0528125 -11.74171875 19.7228125 -12.76171875 19.3828125 C-11.38119232 14.72442074 -9.44115805 10.65635175 -6.94921875 6.5078125 C-6.61857422 5.91484375 -6.28792969 5.321875 -5.94726562 4.7109375 C-3.40272527 0.47166489 -3.40272527 0.47166489 0 0 Z " fill="#0404DC" transform="translate(383.76171875,129.6171875)"/>
<path d="M0 0 C0 0.33 0 0.66 0 1 C-5.445 0.505 -5.445 0.505 -11 0 C-10.67 0.99 -10.34 1.98 -10 3 C-7.49552484 4.21869929 -7.49552484 4.21869929 -5 5 C-8.09892436 5.99439537 -9.97220869 5.98269243 -13.07421875 5.0390625 C-14.19860352 4.70261719 -14.19860352 4.70261719 -15.34570312 4.359375 C-16.11849609 4.11703125 -16.89128906 3.8746875 -17.6875 3.625 C-18.47189453 3.39039063 -19.25628906 3.15578125 -20.06445312 2.9140625 C-25.84440023 1.15559977 -25.84440023 1.15559977 -27 0 C-27.04063832 -1.66617115 -27.042721 -3.33388095 -27 -5 C-20.54452082 -8.22773959 -6.88033865 -1.88979968 0 0 Z " fill="#0404E2" transform="translate(281,463)"/>
<path d="M0 0 C2.26171875 -0.3671875 2.26171875 -0.3671875 5 0 C7.01953125 2.5546875 7.01953125 2.5546875 8.8125 5.875 C9.41707031 6.96554687 10.02164062 8.05609375 10.64453125 9.1796875 C12 12 12 12 12 14 C11.34 14 10.68 14 10 14 C10 13.01 10 12.02 10 11 C9.01 11.33 8.02 11.66 7 12 C7.33 13.65 7.66 15.3 8 17 C6.68 17.33 5.36 17.66 4 18 C4 16.68 4 15.36 4 14 C3.34 14 2.68 14 2 14 C1.67 12.02 1.34 10.04 1 8 C-0.98 8 -2.96 8 -5 8 C-4.34 7.34 -3.68 6.68 -3 6 C-2.01 6 -1.02 6 0 6 C-0.2784375 5.071875 -0.2784375 5.071875 -0.5625 4.125 C-1 2 -1 2 0 0 Z " fill="#0404DF" transform="translate(351,450)"/>
<path d="M0 0 C4 4 4 4 4.36230469 7.27929688 C4.29946289 8.57931641 4.23662109 9.87933594 4.171875 11.21875 C4.14397385 11.93758865 4.11607269 12.65642731 4.08732605 13.39704895 C4.02511637 14.95287202 3.95374354 16.5083499 3.87423706 18.06338501 C3.66275094 22.21118311 3.51750951 26.36146626 3.36328125 30.51171875 C3.32960953 31.36847702 3.29593781 32.22523529 3.26124573 33.10795593 C2.90726809 42.50952542 2.90266308 51.90557724 2.9375 61.3125 C2.94175813 62.89973951 2.94599059 64.48697909 2.95019531 66.07421875 C2.96147228 69.71618 2.97873285 73.35808184 3 77 C2.34 77 1.68 77 1 77 C0.67 51.59 0.34 26.18 0 0 Z " fill="#000039" transform="translate(824,253)"/>
<path d="M0 0 C1.03382813 0.21140625 2.06765625 0.4228125 3.1328125 0.640625 C4.16148437 0.84171875 5.19015625 1.0428125 6.25 1.25 C7.73886719 1.56710938 7.73886719 1.56710938 9.2578125 1.890625 C10.92430524 2.2248268 12.59090968 2.55847462 14.2578125 2.890625 C12.2778125 3.880625 12.2778125 3.880625 10.2578125 4.890625 C10.2578125 5.550625 10.2578125 6.210625 10.2578125 6.890625 C10.9178125 7.220625 11.5778125 7.550625 12.2578125 7.890625 C12.2578125 8.550625 12.2578125 9.210625 12.2578125 9.890625 C6.09636472 9.47700929 0.88572659 8.50358511 -4.7421875 5.890625 C-5.0721875 4.900625 -5.4021875 3.910625 -5.7421875 2.890625 C-3.87986185 0.34758721 -3.22556112 -0.12865486 0 0 Z " fill="#0404DD" transform="translate(585.7421875,85.109375)"/>
<path d="M0 0 C0.66 0 1.32 0 2 0 C2.33715892 5.5139531 1.44112982 9.00438349 -1 13.9375 C-1.556875 15.08089844 -2.11375 16.22429687 -2.6875 17.40234375 C-3.120625 18.25957031 -3.55375 19.11679687 -4 20 C-4.66 20 -5.32 20 -6 20 C-9.11896552 15.84137931 -9.11896552 15.84137931 -8.73046875 13.09375 C-7.92236586 10.77747647 -6.90403073 8.84295938 -5.625 6.75 C-5.20476562 6.04359375 -4.78453125 5.3371875 -4.3515625 4.609375 C-3.90554688 4.07828125 -3.45953125 3.5471875 -3 3 C-2.01 3 -1.02 3 0 3 C0 2.01 0 1.02 0 0 Z " fill="#000018" transform="translate(307,273)"/>
<path d="M0 0 C0.66 0 1.32 0 2 0 C1.6875 2.375 1.6875 2.375 1 5 C0.01 5.66 -0.98 6.32 -2 7 C-1.01 8.32 -0.02 9.64 1 11 C-1.3125 13.5 -1.3125 13.5 -4 16 C-4.99 16 -5.98 16 -7 16 C-7 16.66 -7 17.32 -7 18 C-8.65 18 -10.3 18 -12 18 C-12.33 17.01 -12.66 16.02 -13 15 C-11.77734375 13.1328125 -11.77734375 13.1328125 -9.9375 11.125 C-9.29554688 10.42375 -8.65359375 9.7225 -7.9921875 9 C-6.24928113 7.25025871 -4.48520656 5.67052489 -2.5625 4.125 C-1.716875 3.42375 -0.87125 2.7225 0 2 C0 1.34 0 0.68 0 0 Z " fill="#0504DB" transform="translate(311,212)"/>
<path d="M0 0 C0.66 0.99 1.32 1.98 2 3 C0.875 4.5 0.875 4.5 -1 6 C-4.1875 6.1875 -4.1875 6.1875 -7 6 C-4.49704216 9.75443677 -3.23858526 9.69198746 1.0625 10.625 C6.92061069 11.92061069 6.92061069 11.92061069 8 13 C8.04063832 14.66617115 8.042721 16.33388095 8 18 C6.02 18.33 4.04 18.66 2 19 C1.67 19.99 1.34 20.98 1 22 C0.34 20.35 -0.32 18.7 -1 17 C-0.01 16.34 0.98 15.68 2 15 C2.33 14.01 2.66 13.02 3 12 C0.03 12 -2.94 12 -6 12 C-6 11.34 -6 10.68 -6 10 C-6.99 10 -7.98 10 -9 10 C-9.33 7.69 -9.66 5.38 -10 3 C-6.7 3.33 -3.4 3.66 0 4 C0 2.68 0 1.36 0 0 Z " fill="#0504D5" transform="translate(394,495)"/>
<path d="M0 0 C0.66 0 1.32 0 2 0 C3.20261354 11.82143521 4.24995605 23.64958633 5.125 35.5 C5.21249512 36.64307617 5.29999023 37.78615234 5.39013672 38.96386719 C5.94237083 46.65514387 6.10010829 54.29007301 6 62 C5.67 62 5.34 62 5 62 C4.15672251 53.64251778 3.87809322 45.39802254 4 37 C3.34 37 2.68 37 2 37 C1.97494385 36.12674072 1.9498877 35.25348145 1.92407227 34.35375977 C1.82912291 31.12397448 1.72987971 27.89435846 1.62768555 24.66479492 C1.58428566 23.26510801 1.54261436 21.86536641 1.50268555 20.46557617 C1.44510555 18.45738505 1.38086 16.44938851 1.31640625 14.44140625 C1.27974854 13.23170166 1.24309082 12.02199707 1.20532227 10.77563477 C1.31061734 8.09294544 1.31061734 8.09294544 0 7 C-0.04092937 4.66702567 -0.04241723 2.33294775 0 0 Z " fill="#0607C2" transform="translate(963,0)"/>
<path d="M0 0 C1.41791408 0.45445964 2.83428046 0.91374944 4.25 1.375 C5.43335938 1.75785156 5.43335938 1.75785156 6.640625 2.1484375 C8.86627958 2.95173667 10.90931672 3.89711662 13 5 C13 5.66 13 6.32 13 7 C7.61970443 8.25123153 7.61970443 8.25123153 4.6875 7.0625 C0.81205018 5.53034542 -2.88189027 5.8385055 -7 6 C-7.33 6.99 -7.66 7.98 -8 9 C-9.98 9 -11.96 9 -14 9 C-13.67 8.01 -13.34 7.02 -13 6 C-11.07421875 5.05078125 -11.07421875 5.05078125 -8.6875 4.3125 C-7.51767578 3.93544922 -7.51767578 3.93544922 -6.32421875 3.55078125 C-4 3 -4 3 0 3 C0 2.01 0 1.02 0 0 Z " fill="#010149" transform="translate(798,191)"/>
<path d="M0 0 C0.66 0 1.32 0 2 0 C2.33 2.31 2.66 4.62 3 7 C-6.22551253 12.74031891 -6.22551253 12.74031891 -12 12 C-11.06409496 10.8944811 -10.12620142 9.79064547 -9.1875 8.6875 C-8.66542969 8.07261719 -8.14335938 7.45773437 -7.60546875 6.82421875 C-7.07566406 6.22222656 -6.54585937 5.62023437 -6 5 C-5.50113281 4.42894531 -5.00226562 3.85789062 -4.48828125 3.26953125 C-3 2 -3 2 0 2 C0 1.34 0 0.68 0 0 Z " fill="#0202EC" transform="translate(679,403)"/>
<path d="M0 0 C0.99 0.99 1.98 1.98 3 3 C2.625 4.8125 2.625 4.8125 2 7 C2.32033957 9.00212229 2.65259077 11.00239695 3 13 C2.67 13.66 2.34 14.32 2 15 C1.34 15 0.68 15 0 15 C0.66 16.98 1.32 18.96 2 21 C1.34 21.66 0.68 22.32 0 23 C0 21.35 0 19.7 0 18 C-0.99 18 -1.98 18 -3 18 C-3 17.34 -3 16.68 -3 16 C-4.98 16 -6.96 16 -9 16 C-9 15.34 -9 14.68 -9 14 C-9.66 14 -10.32 14 -11 14 C-11 13.01 -11 12.02 -11 11 C-7.30099992 11.88776002 -3.65449539 12.94581864 0 14 C0 9.38 0 4.76 0 0 Z " fill="#0505B7" transform="translate(855,201)"/>
<path d="M0 0 C0.33 0 0.66 0 1 0 C1 1.65 1 3.3 1 5 C1.66 5 2.32 5 3 5 C3 12.26 3 19.52 3 27 C3.66 27 4.32 27 5 27 C5 34.59 5 42.18 5 50 C4.67 50 4.34 50 4 50 C3.42684378 43.84390582 2.85728469 37.68749324 2.29101562 31.53076172 C2.09798745 29.43757195 1.90398704 27.34447159 1.70898438 25.25146484 C1.42841317 22.23818736 1.15137203 19.22460267 0.875 16.2109375 C0.78750488 15.27945892 0.70000977 14.34798035 0.60986328 13.38827515 C0.20230785 8.90747172 -0.10432389 4.50548821 0 0 Z " fill="#0607C6" transform="translate(954,0)"/>
<path d="M0 0 C0.66 0 1.32 0 2 0 C2.06058594 1.09699219 2.12117187 2.19398438 2.18359375 3.32421875 C2.26804498 4.77865654 2.35269066 6.23308305 2.4375 7.6875 C2.47681641 8.40873047 2.51613281 9.12996094 2.55664062 9.87304688 C2.78185678 13.66707282 3.12839305 17.28651492 4 21 C5.32 21 6.64 21 8 21 C7.67257812 20.32582031 7.34515625 19.65164063 7.0078125 18.95703125 C5.79039135 15.38498546 5.804619 12.45288353 5.875 8.6875 C5.89304687 7.43324219 5.91109375 6.17898438 5.9296875 4.88671875 C5.96449219 3.45779297 5.96449219 3.45779297 6 2 C6.33 2 6.66 2 7 2 C7.3383344 4.37438249 7.67079002 6.74934959 8 9.125 C8.09539063 9.79015625 8.19078125 10.4553125 8.2890625 11.140625 C8.83611453 15.12628981 9.10022182 18.97859938 9 23 C7.1875 23.6875 7.1875 23.6875 5 24 C2.68604702 22.32816897 2.04618533 21.16448894 1.26953125 18.3984375 C0.33002665 12.18325319 -0.20952975 6.28589263 0 0 Z " fill="#0707BD" transform="translate(999,546)"/>
<path d="M0 0 C1.20220203 3.53094302 0.79532349 6.12898982 0.0625 9.75 C-0.13214844 10.73484375 -0.32679688 11.7196875 -0.52734375 12.734375 C-0.68332031 13.48203125 -0.83929687 14.2296875 -1 15 C-1.99 15 -2.98 15 -4 15 C-4 12.69 -4 10.38 -4 8 C-5.32 8 -6.64 8 -8 8 C-7.97679687 8.61488281 -7.95359375 9.22976563 -7.9296875 9.86328125 C-7.91164063 10.67152344 -7.89359375 11.47976563 -7.875 12.3125 C-7.85179687 13.11300781 -7.82859375 13.91351563 -7.8046875 14.73828125 C-8 17 -8 17 -10 20 C-10.66 19.67 -11.32 19.34 -12 19 C-11.60388039 17.03740738 -11.18238306 15.07992339 -10.75 13.125 C-10.51796875 12.03445313 -10.2859375 10.94390625 -10.046875 9.8203125 C-9 7 -9 7 -7.078125 5.5546875 C-5 5 -5 5 -2 6 C-1.34 4.02 -0.68 2.04 0 0 Z " fill="#0505CB" transform="translate(825,441)"/>
<path d="M0 0 C2 3.75 2 3.75 2 6 C1.34 6 0.68 6 0 6 C0 12.27 0 18.54 0 25 C0.99 25 1.98 25 3 25 C3 24.34 3 23.68 3 23 C4.98 23 6.96 23 9 23 C9 23.66 9 24.32 9 25 C8.2575 25.12375 7.515 25.2475 6.75 25.375 C4.02462728 25.86889456 4.02462728 25.86889456 1.875 27.125 C0 28 0 28 -3 27 C-2.69199513 23.43709646 -2.37780401 19.87476442 -2.0625 16.3125 C-1.97548828 15.30509766 -1.88847656 14.29769531 -1.79882812 13.25976562 C-1.71181641 12.28330078 -1.62480469 11.30683594 -1.53515625 10.30078125 C-1.456604 9.40528564 -1.37805176 8.50979004 -1.29711914 7.5871582 C-1.0019537 5.01701177 -0.54387764 2.52813451 0 0 Z " fill="#000039" transform="translate(473,52)"/>
<path d="M0 0 C0.94875 0.350625 1.8975 0.70125 2.875 1.0625 C-0.13531744 1.99673645 -0.99150268 2.10699911 -4.125 1.0625 C-4.125 2.0525 -4.125 3.0425 -4.125 4.0625 C-3.135 4.0625 -2.145 4.0625 -1.125 4.0625 C-1.125 5.0525 -1.125 6.0425 -1.125 7.0625 C-0.3825 7.18625 0.36 7.31 1.125 7.4375 C3.67641485 8.01736701 5.6017573 8.79958739 7.875 10.0625 C7.875 11.0525 7.875 12.0425 7.875 13.0625 C6.885 13.0625 5.895 13.0625 4.875 13.0625 C4.875 12.4025 4.875 11.7425 4.875 11.0625 C3.946875 10.959375 3.01875 10.85625 2.0625 10.75 C-1.34814712 10.01437023 -1.88244857 9.5000559 -4.125 7.0625 C-6.72415538 5.87222016 -6.72415538 5.87222016 -9.125 5.0625 C-8.795 4.4025 -8.465 3.7425 -8.125 3.0625 C-6.64 4.0525 -6.64 4.0525 -5.125 5.0625 C-5.125 3.4125 -5.125 1.7625 -5.125 0.0625 C-3.125 -0.9375 -3.125 -0.9375 0 0 Z " fill="#0404D7" transform="translate(737.125,140.9375)"/>
<path d="M0 0 C0.66 0 1.32 0 2 0 C2 5.61 2 11.22 2 17 C2.66 17 3.32 17 4 17 C5.90120099 24.12950371 6.22424141 30.63740707 6 38 C5.67 38 5.34 38 5 38 C4.67 32.39 4.34 26.78 4 21 C3.34 21 2.68 21 2 21 C-0.21211746 13.94887561 -0.20177072 7.35342179 0 0 Z " fill="#0707C5" transform="translate(959,50)"/>
<path d="M0 0 C6.17222879 1.24028238 12.06682122 2.89603589 18 5 C13.84228506 6.31538327 11.1120703 5.34433068 7 4 C8.1858237 7.37503669 9.27573689 9.64722731 12 12 C11.67 12.99 11.34 13.98 11 15 C9.5369343 13.25395451 8.0797192 11.50300547 6.625 9.75 C5.81289063 8.77546875 5.00078125 7.8009375 4.1640625 6.796875 C2.42148243 4.5447318 1.123584 2.59288614 0 0 Z " fill="#00003C" transform="translate(818,234)"/>
<path d="M0 0 C0.66 0 1.32 0 2 0 C2.33 9.57 2.66 19.14 3 29 C1.68 28.34 0.36 27.68 -1 27 C-0.01 27 0.98 27 2 27 C1.67402832 26.45182617 1.34805664 25.90365234 1.01220703 25.33886719 C-0.18670817 22.56858072 -0.22877119 20.58940683 -0.1953125 17.578125 C-0.18564453 16.04091797 -0.18564453 16.04091797 -0.17578125 14.47265625 C-0.15902344 13.40917969 -0.14226563 12.34570312 -0.125 11.25 C-0.11597656 10.17105469 -0.10695313 9.09210938 -0.09765625 7.98046875 C-0.07411305 5.32008722 -0.04122799 2.66015664 0 0 Z " fill="#00003C" transform="translate(743,116)"/>
<path d="M0 0 C0.66 0.99 1.32 1.98 2 3 C0.875 4.5 0.875 4.5 -1 6 C-4.1875 6.1875 -4.1875 6.1875 -7 6 C-5.35820641 9.12455058 -5.35820641 9.12455058 -2.8359375 9.73046875 C-2.02382813 9.88128906 -1.21171875 10.03210938 -0.375 10.1875 C0.44226563 10.34605469 1.25953125 10.50460937 2.1015625 10.66796875 C2.72804688 10.77753906 3.35453125 10.88710938 4 11 C4 11.33 4 11.66 4 12 C0.7 12 -2.6 12 -6 12 C-6 11.34 -6 10.68 -6 10 C-6.99 10 -7.98 10 -9 10 C-9.33 7.69 -9.66 5.38 -10 3 C-6.7 3.33 -3.4 3.66 0 4 C0 2.68 0 1.36 0 0 Z " fill="#0606CC" transform="translate(394,495)"/>
<path d="M0 0 C0.66 0.33 1.32 0.66 2 1 C1 3 1 3 -1.1875 4.25 C-4.69887344 6.43485458 -7.14537739 9.01260424 -10 12 C-8.68 12.66 -7.36 13.32 -6 14 C-7.98 14 -9.96 14 -12 14 C-12.26953125 11.73046875 -12.26953125 11.73046875 -12 9 C-10.13671875 7.05078125 -10.13671875 7.05078125 -7.6875 5.3125 C-6.88699219 4.73113281 -6.08648438 4.14976562 -5.26171875 3.55078125 C-3.51662536 2.3542319 -1.76054475 1.1736965 0 0 Z " fill="#0606D0" transform="translate(678,402)"/>
<path d="M0 0 C3.125 -0.5625 3.125 -0.5625 7 0 C9.76462465 2.96852322 13 6.80045287 13 11 C14.98 11 16.96 11 19 11 C18.67 11.66 18.34 12.32 18 13 C16.02 13 14.04 13 12 13 C9 7.25 9 7.25 9 5 C8.34 5 7.68 5 7 5 C7 4.01 7 3.02 7 2 C5.35 2.33 3.7 2.66 2 3 C2 2.34 2 1.68 2 1 C1.34 0.67 0.68 0.34 0 0 Z " fill="#000033" transform="translate(396,540)"/>
<path d="M0 0 C0.66 0 1.32 0 2 0 C1.67 1.98 1.34 3.96 1 6 C2.32 6.33 3.64 6.66 5 7 C5.625 8.875 5.625 8.875 6 11 C5.34 11.66 4.68 12.32 4 13 C4 11.68 4 10.36 4 9 C1.69 9.33 -0.62 9.66 -3 10 C-2.67 7.69 -2.34 5.38 -2 3 C-1.34 3 -0.68 3 0 3 C0 2.01 0 1.02 0 0 Z " fill="#0404D7" transform="translate(309,294)"/>
<path d="M0 0 C0.99 0 1.98 0 3 0 C2.43454163 3.95820859 1.19097652 6.6659053 -1 10 C-3.3431213 9.74438677 -5.67843403 9.40729228 -8 9 C-8.33 8.34 -8.66 7.68 -9 7 C-7.02 7 -5.04 7 -3 7 C-2.690625 6.21625 -2.38125 5.4325 -2.0625 4.625 C-1 2 -1 2 0 0 Z " fill="#000039" transform="translate(287,334)"/>
<path d="M0 0 C0.66 0 1.32 0 2 0 C0.06375702 6.20477864 -2.25609141 12.10825719 -5 18 C-5.33 17.34 -5.66 16.68 -6 16 C-6.66 16 -7.32 16 -8 16 C-5.33333333 10.66666667 -2.66666667 5.33333333 0 0 Z " fill="#000162" transform="translate(332,226)"/>
<path d="M0 0 C0.33 0 0.66 0 1 0 C1 2.97 1 5.94 1 9 C2.32 9.33 3.64 9.66 5 10 C5.74926071 13.66305234 6.2380014 16.42355152 5 20 C4.34 20 3.68 20 3 20 C3.33 17.03 3.66 14.06 4 11 C2.02 11 0.04 11 -2 11 C-1.34 7.37 -0.68 3.74 0 0 Z " fill="#00003D" transform="translate(814,494)"/>
<path d="M0 0 C0 0.33 0 0.66 0 1 C-2.97 1 -5.94 1 -9 1 C-9 0.34 -9 -0.32 -9 -1 C-13.29 -1 -17.58 -1 -22 -1 C-22 -1.66 -22 -2.32 -22 -3 C-16.33827232 -5.83086384 -5.96621358 -1.60628827 0 0 Z " fill="#0806C8" transform="translate(334,464)"/>
<path d="M0 0 C0.66 0 1.32 0 2 0 C4.03435531 3.72965139 5 5.66905042 5 10 C4.01 10 3.02 10 2 10 C1.67 8.02 1.34 6.04 1 4 C-0.98 4 -2.96 4 -5 4 C-4.34 3.34 -3.68 2.68 -3 2 C-2.01 2 -1.02 2 0 2 C0 1.34 0 0.68 0 0 Z " fill="#0404BA" transform="translate(351,454)"/>
<path d="M0 0 C2.97 0 5.94 0 9 0 C8.67 1.65 8.34 3.3 8 5 C9.32 5.33 10.64 5.66 12 6 C8.92545953 5.92909865 5.98877701 5.7524935 3 5 C0.9375 2.4375 0.9375 2.4375 0 0 Z " fill="#000035" transform="translate(386,500)"/>
<path d="M0 0 C1.65 0 3.3 0 5 0 C4.01 0.33 3.02 0.66 2 1 C1.67 2.98 1.34 4.96 1 7 C-4.73842251 7.20413361 -9.60539047 7.27141454 -15 5 C-15 4.34 -15 3.68 -15 3 C-10.05 3.99 -5.1 4.98 0 6 C-0.33 4.68 -0.66 3.36 -1 2 C-0.67 1.34 -0.34 0.68 0 0 Z " fill="#0706C2" transform="translate(645,92)"/>
<path d="M0 0 C1.32 0.33 2.64 0.66 4 1 C4.125 3.375 4.125 3.375 4 6 C1.8614515 8.1385485 0.86724686 8.42655063 -2 9 C-2 8.34 -2 7.68 -2 7 C-2.66 7 -3.32 7 -4 7 C-4 6.01 -4 5.02 -4 4 C-1.69 4 0.62 4 3 4 C3 3.34 3 2.68 3 2 C2.01 2 1.02 2 0 2 C0 1.34 0 0.68 0 0 Z " fill="#0506C9" transform="translate(382,483)"/>
<path d="M0 0 C2.64 0 5.28 0 8 0 C8 0.66 8 1.32 8 2 C10.97 2 13.94 2 17 2 C17 2.66 17 3.32 17 4 C19.475 4.495 19.475 4.495 22 5 C18.8151065 6.0354051 16.86968126 5.94040666 13.671875 5.00390625 C12.47304688 4.66069336 12.47304688 4.66069336 11.25 4.31054688 C10.425 4.06369141 9.6 3.81683594 8.75 3.5625 C7.48929687 3.19801758 7.48929687 3.19801758 6.203125 2.82617188 C4.13284266 2.22626051 2.06606103 1.61429181 0 1 C0 0.67 0 0.34 0 0 Z " fill="#0607C7" transform="translate(276,469)"/>
<path d="M0 0 C1.98 0 3.96 0 6 0 C6.33 1.98 6.66 3.96 7 6 C4.03 5.505 4.03 5.505 1 5 C0.505 2.525 0.505 2.525 0 0 Z " fill="#030394" transform="translate(305,330)"/>
<path d="M0 0 C3.63 0.33 7.26 0.66 11 1 C11.66 2.65 12.32 4.3 13 6 C11.58034858 5.57228451 10.1643776 5.13234457 8.75 4.6875 C7.96109375 4.44386719 7.1721875 4.20023438 6.359375 3.94921875 C4 3 4 3 0 0 Z " fill="#0303CC" transform="translate(827,226)"/>
<path d="M0 0 C0 0.66 0 1.32 0 2 C-0.99 2 -1.98 2 -3 2 C-2.71125 3.134375 -2.4225 4.26875 -2.125 5.4375 C-0.99739428 9.93986857 0.01321086 14.46496906 1 19 C-1.57966596 16.42033404 -2.33609844 13.90692108 -3.625 10.5 C-4.07101562 9.3346875 -4.51703125 8.169375 -4.9765625 6.96875 C-6 4 -6 4 -6 2 C-2.25 0 -2.25 0 0 0 Z " fill="#00003D" transform="translate(800,475)"/>
<path d="M0 0 C3.70645307 1.46859461 6.89678184 3.2630691 10.3125 5.3125 C8.3125 6.3125 8.3125 6.3125 5.1875 5.375 C4.23875 5.024375 3.29 4.67375 2.3125 4.3125 C2.3125 3.6525 2.3125 2.9925 2.3125 2.3125 C-1.3175 2.6425 -4.9475 2.9725 -8.6875 3.3125 C-7.3675 2.9825 -6.0475 2.6525 -4.6875 2.3125 C-4.6875 1.6525 -4.6875 0.9925 -4.6875 0.3125 C-2.6875 -0.6875 -2.6875 -0.6875 0 0 Z " fill="#0807C4" transform="translate(703.6875,130.6875)"/>
<path d="M0 0 C0.33 0.99 0.66 1.98 1 3 C0.01 4.485 0.01 4.485 -1 6 C-1.66 6 -2.32 6 -3 6 C-3 7.65 -3 9.3 -3 11 C-3.66 10.34 -4.32 9.68 -5 9 C-5 7.68 -5 6.36 -5 5 C-4.01 5 -3.02 5 -2 5 C-2 3.68 -2 2.36 -2 1 C-2.99 1.33 -3.98 1.66 -5 2 C-7.1875 1.0625 -7.1875 1.0625 -9 0 C-5.67465243 -1.10844919 -3.37817425 -0.84454356 0 0 Z " fill="#0906BE" transform="translate(375,469)"/>
<path d="M0 0 C2.31 0 4.62 0 7 0 C7 0.66 7 1.32 7 2 C8.19625 1.938125 9.3925 1.87625 10.625 1.8125 C14.73497595 1.79056063 17.4478261 2.86869566 21 5 C17.87820592 6.00693162 16.01030331 5.97289724 12.890625 5.00390625 C11.75947266 4.66069336 11.75947266 4.66069336 10.60546875 4.31054688 C9.43951172 3.94026367 9.43951172 3.94026367 8.25 3.5625 C7.45722656 3.31951172 6.66445313 3.07652344 5.84765625 2.82617188 C3.89564654 2.22645805 1.94743117 1.61441879 0 1 C0 0.67 0 0.34 0 0 Z " fill="#0607C4" transform="translate(255,463)"/>
<path d="M0 0 C1.40907283 2.81814566 0.50872691 4.17277204 -0.4375 7.125 C-0.72496094 8.03507812 -1.01242187 8.94515625 -1.30859375 9.8828125 C-1.65083984 10.93082031 -1.65083984 10.93082031 -2 12 C-2.33 12 -2.66 12 -3 12 C-3 9.69 -3 7.38 -3 5 C-4.65 5 -6.3 5 -8 5 C-5.44008376 2.98863724 -2.95409701 1.37154504 0 0 Z " fill="#010036" transform="translate(830,422)"/>
<path d="M0 0 C2.64 0 5.28 0 8 0 C7.58997722 11.70615034 7.58997722 11.70615034 3 16 C2.34 15.67 1.68 15.34 1 15 C1.639375 14.34 2.27875 13.68 2.9375 13 C5.58912502 9.14309088 5.68667121 6.62159967 6 2 C3.03 1.505 3.03 1.505 0 1 C0 0.67 0 0.34 0 0 Z " fill="#0507C4" transform="translate(456,83)"/>
<path d="M0 0 C4.3177458 0.50797009 8.03302114 1.19682779 12 3 C12 3.66 12 4.32 12 5 C11.01 5.33 10.02 5.66 9 6 C8.67 7.65 8.34 9.3 8 11 C7.67 11 7.34 11 7 11 C6.67 8.36 6.34 5.72 6 3 C3.03 2.505 3.03 2.505 0 2 C0 1.34 0 0.68 0 0 Z " fill="#00003A" transform="translate(302,477)"/>
<path d="M0 0 C0.33 0 0.66 0 1 0 C1.30008978 5.80173582 0.8169737 8.8167684 -2 14 C-2.70758326 17.2366963 -2.70758326 17.2366963 -3 20 C-3.66 20 -4.32 20 -5 20 C-4.35346673 13.04976736 -2.13972752 6.61822697 0 0 Z " fill="#000037" transform="translate(838,422)"/>
<path d="M0 0 C0.33 0 0.66 0 1 0 C1.22786458 2.05078125 1.45572917 4.1015625 1.68359375 6.15234375 C1.81886614 8.01140229 1.81886614 8.01140229 3 9 C3.04080783 10.99958364 3.04254356 13.00045254 3 15 C4.32 15 5.64 15 7 15 C7 15.66 7 16.32 7 17 C6.01 17.33 5.02 17.66 4 18 C1.7603304 16.2472151 1.04195772 15.16020222 0.3125 12.375 C-0.07073019 8.23611399 -0.0830557 4.15278482 0 0 Z " fill="#0708C0" transform="translate(1076,414)"/>
<path d="M0 0 C2.88737021 1.07245179 4.86871251 2.81576632 7.1875 4.8125 C5.8675 4.8125 4.5475 4.8125 3.1875 4.8125 C3.1875 4.1525 3.1875 3.4925 3.1875 2.8125 C0.71483235 3.15694881 0.71483235 3.15694881 -1.8125 3.8125 C-2.1425 4.4725 -2.4725 5.1325 -2.8125 5.8125 C-4.4625 5.8125 -6.1125 5.8125 -7.8125 5.8125 C-6.8225 5.4825 -5.8325 5.1525 -4.8125 4.8125 C-4.4403958 3.48946283 -4.10619827 2.15512065 -3.8125 0.8125 C-1.8125 -0.1875 -1.8125 -0.1875 0 0 Z " fill="#0606C2" transform="translate(616.8125,86.1875)"/>
<path d="M0 0 C2.0625 1.6875 2.0625 1.6875 4 4 C3.75 6.75 3.75 6.75 3 9 C0 10 0 10 -3 9 C-3.6875 6.9375 -3.6875 6.9375 -4 5 C-1.525 5.99 -1.525 5.99 1 7 C0.67 4.69 0.34 2.38 0 0 Z " fill="#0807BE" transform="translate(412,542)"/>
<path d="M0 0 C3.3 0.33 6.6 0.66 10 1 C10 1.99 10 2.98 10 4 C7.8125 4.8125 7.8125 4.8125 5 5 C2.1875 2.5625 2.1875 2.5625 0 0 Z " fill="#0204CD" transform="translate(804,218)"/>
<path d="M0 0 C4.62 2.31 9.24 4.62 14 7 C11 8 11 8 8.73828125 7.00390625 C7.93777344 6.52824219 7.13726563 6.05257812 6.3125 5.5625 C5.50425781 5.08941406 4.69601562 4.61632812 3.86328125 4.12890625 C3.24839844 3.75636719 2.63351562 3.38382813 2 3 C2 4.32 2 5.64 2 7 C1.34 7 0.68 7 0 7 C0 4.69 0 2.38 0 0 Z " fill="#000043" transform="translate(755,167)"/>
<path d="M0 0 C0.33 0 0.66 0 1 0 C1.33 6.6 1.66 13.2 2 20 C0.35 18.68 -1.3 17.36 -3 16 C-2.01 16 -1.02 16 0 16 C0 10.72 0 5.44 0 0 Z " fill="#000044" transform="translate(1101,657)"/>
<path d="M0 0 C0.33 0.66 0.66 1.32 1 2 C-0.38542316 5.62848922 -1.84351662 8.76527494 -4 12 C-4.66 12 -5.32 12 -6 12 C-6 12.66 -6 13.32 -6 14 C-6.66 13.67 -7.32 13.34 -8 13 C-5.36 8.71 -2.72 4.42 0 0 Z " fill="#00002E" transform="translate(299,344)"/>
<path d="M0 0 C0.33 1.32 0.66 2.64 1 4 C0.34 4 -0.32 4 -1 4 C-1.66 7.63 -2.32 11.26 -3 15 C-3.99 14.01 -4.98 13.02 -6 12 C-5.74383026 8.76832019 -4.17732167 6.42664872 -2.4375 3.75 C-1.98246094 3.04359375 -1.52742188 2.3371875 -1.05859375 1.609375 C-0.53458984 0.81273437 -0.53458984 0.81273437 0 0 Z " fill="#000038" transform="translate(304,276)"/>
<path d="M0 0 C1.39195915 4.17587745 -0.17676781 6.13474776 -2 10 C-2.33 8.68 -2.66 7.36 -3 6 C-3.33 6.33 -3.66 6.66 -4 7 C-6.0625 6.5625 -6.0625 6.5625 -8 6 C-7.34 6 -6.68 6 -6 6 C-5.67 5.01 -5.34 4.02 -5 3 C-2.4375 1.3125 -2.4375 1.3125 0 0 Z " fill="#010260" transform="translate(330,206)"/>
<path d="M0 0 C0.33 0 0.66 0 1 0 C1.25 5.625 1.25 5.625 -1 9 C-1.99 9 -2.98 9 -4 9 C-4 8.01 -4 7.02 -4 6 C-5.65 6.66 -7.3 7.32 -9 8 C-8.67 7.01 -8.34 6.02 -8 5 C-5 4 -5 4 -2 5 C-1.34 3.35 -0.68 1.7 0 0 Z " fill="#0607C7" transform="translate(360,158)"/>
<path d="M0 0 C3.63 0.33 7.26 0.66 11 1 C11 1.99 11 2.98 11 4 C7.06225823 4.36630156 5.43460229 4.30233203 2.125 2 C1.42375 1.34 0.7225 0.68 0 0 Z " fill="#0304C9" transform="translate(815,222)"/>
<path d="M0 0 C3.08236365 2.78407039 3.95206337 3.80825346 5 8 C1.7 7.34 -1.6 6.68 -5 6 C-5 5.67 -5 5.34 -5 5 C-3.35 4.67 -1.7 4.34 0 4 C0 2.68 0 1.36 0 0 Z " fill="#00003B" transform="translate(335,458)"/>
<path d="M0 0 C0.66 0 1.32 0 2 0 C2 4.29 2 8.58 2 13 C1.01 12.67 0.02 12.34 -1 12 C-0.814375 11.29875 -0.62875 10.5975 -0.4375 9.875 C0.05067424 6.66699788 -0.42345331 4.17100681 -1 1 C-0.67 0.67 -0.34 0.34 0 0 Z " fill="#00002F" transform="translate(855,234)"/>
<path d="M0 0 C0.99 0.33 1.98 0.66 3 1 C3 5.29 3 9.58 3 14 C2.01 14.495 2.01 14.495 1 15 C1.020625 14.071875 1.04125 13.14375 1.0625 12.1875 C1.15769604 8.97713989 1.15769604 8.97713989 0 6 C0.33 5.01 0.66 4.02 1 3 C0.67 2.01 0.34 1.02 0 0 Z " fill="#000035" transform="translate(856,201)"/>
<path d="M0 0 C2.64 0.33 5.28 0.66 8 1 C8 1.33 8 1.66 8 2 C6.35 2.33 4.7 2.66 3 3 C3.33 5.31 3.66 7.62 4 10 C1.16625119 6.79663178 0.4794463 4.21912747 0 0 Z " fill="#00003B" transform="translate(668,133)"/>
<path d="M0 0 C4.75 0.875 4.75 0.875 7 2 C7 2.66 7 3.32 7 4 C8.98 4.66 10.96 5.32 13 6 C13 6.66 13 7.32 13 8 C8.27626146 6.37621488 4.05818166 3.89006982 0 1 C0 0.67 0 0.34 0 0 Z " fill="#000034" transform="translate(664,115)"/>
<path d="M0 0 C0.75 1.5625 0.75 1.5625 1 4 C-0.13084437 6.50286409 -1.52139516 8.67007722 -3 11 C-3.66 11 -4.32 11 -5 11 C-3.77472971 6.94718288 -2.30119506 3.55639236 0 0 Z " fill="#000037" transform="translate(356,186)"/>
<path d="M0 0 C0.33 0.99 0.66 1.98 1 3 C-1.3125 6.1875 -1.3125 6.1875 -4 9 C-4.66 9 -5.32 9 -6 9 C-4.83857315 4.64464931 -3.92300495 2.35380297 0 0 Z " fill="#00002A" transform="translate(363,177)"/>
<path d="M0 0 C1.98 0 3.96 0 6 0 C6 0.66 6 1.32 6 2 C4.68 2 3.36 2 2 2 C2.66 4.64 3.32 7.28 4 10 C1.2027092 7.93243723 0.97307727 6.85559629 0.3125 3.3125 C0.209375 2.219375 0.10625 1.12625 0 0 Z " fill="#0606BB" transform="translate(666,131)"/>
<path d="M0 0 C0 0.66 0 1.32 0 2 C-1.98 2 -3.96 2 -6 2 C-6 2.66 -6 3.32 -6 4 C-8.31 3.67 -10.62 3.34 -13 3 C-13 2.67 -13 2.34 -13 2 C-8.49646738 0.24252386 -4.82360189 -0.19294408 0 0 Z " fill="#00003B" transform="translate(705,129)"/>
<path d="M0 0 C0.66 0 1.32 0 2 0 C0.77782954 4.04256383 -0.62754296 7.49288959 -3 11 C-3.33 11 -3.66 11 -4 11 C-4 9.35 -4 7.7 -4 6 C-3.34 6 -2.68 6 -2 6 C-2 5.01 -2 4.02 -2 3 C-1.34 3 -0.68 3 0 3 C0 2.01 0 1.02 0 0 Z " fill="#000030" transform="translate(277,355)"/>
<path d="M0 0 C2.0625 0.4375 2.0625 0.4375 4 1 C3.51917969 1.38800781 3.03835938 1.77601562 2.54296875 2.17578125 C0.54250502 4.54088647 0.51123932 6.12691453 0.3125 9.1875 C0.24675781 10.08855469 0.18101562 10.98960938 0.11328125 11.91796875 C0.07589844 12.60503906 0.03851563 13.29210937 0 14 C-0.33 14 -0.66 14 -1 14 C-1.02685938 11.85423363 -1.04633088 9.70837355 -1.0625 7.5625 C-1.07410156 6.36753906 -1.08570313 5.17257813 -1.09765625 3.94140625 C-1 1 -1 1 0 0 Z " fill="#0506D0" transform="translate(468,92)"/>
<path d="M0 0 C1.32 0 2.64 0 4 0 C4 0.66 4 1.32 4 2 C5.32 2 6.64 2 8 2 C8 4.64 8 7.28 8 10 C7.67 10 7.34 10 7 10 C6.938125 8.88625 6.938125 8.88625 6.875 7.75 C5.65352297 3.91107218 3.36994109 3.00762448 0 1 C0 0.67 0 0.34 0 0 Z " fill="#0506CC" transform="translate(1097,681)"/>
<path d="M0 0 C0.66 0.33 1.32 0.66 2 1 C1.67 1.99 1.34 2.98 1 4 C2.65 4 4.3 4 6 4 C6 4.66 6 5.32 6 6 C6.99 6.33 7.98 6.66 9 7 C3.60155422 6.65171318 3.60155422 6.65171318 1 6 C-0.5625 4.0625 -0.5625 4.0625 -1 2 C-0.67 1.34 -0.34 0.68 0 0 Z " fill="#0807C0" transform="translate(343,497)"/>
<path d="M0 0 C0.66 0.99 1.32 1.98 2 3 C1 4.5 1 4.5 -1 6 C-3.71846235 6.27345479 -6.25677199 6.13491285 -9 6 C-9.33 5.01 -9.66 4.02 -10 3 C-6.7 3.33 -3.4 3.66 0 4 C0 2.68 0 1.36 0 0 Z " fill="#0808BD" transform="translate(394,495)"/>
<path d="M0 0 C1.31157516 2.62315032 0.89649988 4.23033436 0.5625 7.125 C0.40974609 8.49011719 0.40974609 8.49011719 0.25390625 9.8828125 C0.12822266 10.93082031 0.12822266 10.93082031 0 12 C-2.430466 9.569534 -2.76271993 8.4010144 -3 5 C-1.5625 2.1875 -1.5625 2.1875 0 0 Z " fill="#0707C5" transform="translate(787,478)"/>
<path d="M0 0 C0.66 0 1.32 0 2 0 C1.52060632 4.71403788 1.03165952 8.66579301 -1 13 C-1.33 13 -1.66 13 -2 13 C-2.23509196 8.18061476 -1.45184478 4.53701494 0 0 Z " fill="#01013D" transform="translate(316,312)"/>
<path d="M0 0 C0.66 0 1.32 0 2 0 C2 0.66 2 1.32 2 2 C2.99 2 3.98 2 5 2 C5.66 4.97 6.32 7.94 7 11 C4.04250209 7.53258866 1.92151848 4.13126473 0 0 Z " fill="#0606C6" transform="translate(334,455)"/>
<path d="M0 0 C0.33 0.66 0.66 1.32 1 2 C0.01 3.485 0.01 3.485 -1 5 C-4.37462715 4.45276317 -6.08235 3.9451 -9 2 C-7.6078125 2.061875 -7.6078125 2.061875 -6.1875 2.125 C-2.84190281 2.27136339 -2.84190281 2.27136339 0 0 Z " fill="#000035" transform="translate(286,319)"/>
<path d="M0 0 C0.99 0.495 0.99 0.495 2 1 C2 2.32 2 3.64 2 5 C2.99 5.33 3.98 5.66 5 6 C5.33 7.65 5.66 9.3 6 11 C5.34 10.67 4.68 10.34 4 10 C4 9.01 4 8.02 4 7 C2.68 6.67 1.36 6.34 0 6 C0 4.02 0 2.04 0 0 Z " fill="#000035" transform="translate(289,286)"/>
<path d="M0 0 C0.66 0 1.32 0 2 0 C2 2.31 2 4.62 2 7 C2.99 7 3.98 7 5 7 C5 7.66 5 8.32 5 9 C3.02 8.34 1.04 7.68 -1 7 C-0.67 4.69 -0.34 2.38 0 0 Z " fill="#00003C" transform="translate(851,192)"/>
<path d="M0 0 C0.99 0 1.98 0 3 0 C2.67 4.29 2.34 8.58 2 13 C1.67 13 1.34 13 1 13 C1 9.7 1 6.4 1 3 C0.34 3 -0.32 3 -1 3 C-0.67 2.01 -0.34 1.02 0 0 Z " fill="#0505C1" transform="translate(459,103)"/>
<path d="M0 0 C1.58246707 -0.08153933 3.16616273 -0.13943557 4.75 -0.1875 C6.07257812 -0.23970703 6.07257812 -0.23970703 7.421875 -0.29296875 C10.44671583 0.05076316 11.75583602 1.00227459 14 3 C4.58997722 2.03644647 4.58997722 2.03644647 0 1 C0 0.67 0 0.34 0 0 Z " fill="#000036" transform="translate(586,85)"/>
<path d="M0 0 C-0.66 3.96 -1.32 7.92 -2 12 C-2.33 12 -2.66 12 -3 12 C-2.96519531 11.06027344 -2.96519531 11.06027344 -2.9296875 10.1015625 C-2.90261719 8.87566406 -2.90261719 8.87566406 -2.875 7.625 C-2.85179687 6.81289063 -2.82859375 6.00078125 -2.8046875 5.1640625 C-2.78629949 2.78657757 -2.78629949 2.78657757 -5 1 C-3 0 -3 0 0 0 Z " fill="#000044" transform="translate(812,470)"/>
<path d="M0 0 C0.33 0 0.66 0 1 0 C0.67 2.31 0.34 4.62 0 7 C1.32 7.33 2.64 7.66 4 8 C2.02 8.33 0.04 8.66 -2 9 C-1.34 6.03 -0.68 3.06 0 0 Z " fill="#00003D" transform="translate(832,442)"/>
<path d="M0 0 C0.66 0 1.32 0 2 0 C2 3.3 2 6.6 2 10 C0.68 9.67 -0.64 9.34 -2 9 C-1.67 7.88625 -1.34 6.7725 -1 5.625 C0.088643 2.30540283 0.088643 2.30540283 0 0 Z " fill="#000034" transform="translate(314,301)"/>
<path d="M0 0 C0.99 0.99 1.98 1.98 3 3 C2.85546875 5.69921875 2.85546875 5.69921875 2.1875 8.6875 C1.97480469 9.68136719 1.76210938 10.67523438 1.54296875 11.69921875 C1.36378906 12.45847656 1.18460938 13.21773437 1 14 C0.67 14 0.34 14 0 14 C0 9.38 0 4.76 0 0 Z " fill="#0606CD" transform="translate(855,201)"/>
<path d="M0 0 C2.9375 0.75 2.9375 0.75 6 2 C7 4 7 4 7 6 C6.34 6.66 5.68 7.32 5 8 C5 6.35 5 4.7 5 3 C3.35 3 1.7 3 0 3 C0 2.01 0 1.02 0 0 Z " fill="#0807A6" transform="translate(308,299)"/>
<path d="M0 0 C1.32 1.32 2.64 2.64 4 4 C3.67 4.99 3.34 5.98 3 7 C1.02 7 -0.96 7 -3 7 C-1.68 6.67 -0.36 6.34 1 6 C0.67 4.02 0.34 2.04 0 0 Z " fill="#0808BC" transform="translate(1132,699)"/>
<path d="M0 0 C-0.33 1.32 -0.66 2.64 -1 4 C-2.98 4 -4.96 4 -7 4 C-6.67 3.01 -6.34 2.02 -6 1 C-3.90006779 0.25486277 -2.22568901 0 0 0 Z " fill="#00002A" transform="translate(791,196)"/>
<path d="M0 0 C0.66 0 1.32 0 2 0 C2 0.99 2 1.98 2 3 C2.66 3 3.32 3 4 3 C4 5.31 4 7.62 4 10 C1.81024227 6.71536341 1.00193437 3.79303725 0 0 Z " fill="#0607CB" transform="translate(659,130)"/>
<path d="M0 0 C0.66 0 1.32 0 2 0 C2 0.66 2 1.32 2 2 C2.66 2.33 3.32 2.66 4 3 C4 3.66 4 4.32 4 5 C1.03 4.67 -1.94 4.34 -5 4 C-5 3.67 -5 3.34 -5 3 C-3.35 3 -1.7 3 0 3 C0 2.01 0 1.02 0 0 Z " fill="#0505D0" transform="translate(594,90)"/>
<path d="M0 0 C2.79872437 2.52788007 4.45773019 4.20411134 5 8 C2 7 2 7 0 4 C0 2.68 0 1.36 0 0 Z " fill="#0806CC" transform="translate(403,528)"/>
<path d="M0 0 C0.99 0.33 1.98 0.66 3 1 C3 1.66 3 2.32 3 3 C1.35 3.33 -0.3 3.66 -2 4 C-2.33 4.99 -2.66 5.98 -3 7 C-2.625 4.0625 -2.625 4.0625 -2 1 C-1.34 0.67 -0.68 0.34 0 0 Z " fill="#0808BD" transform="translate(997,510)"/>
<path d="M0 0 C1.5 1.375 1.5 1.375 3 3 C3 3.66 3 4.32 3 5 C0.36 4.67 -2.28 4.34 -5 4 C-5 3.67 -5 3.34 -5 3 C-3.35 3 -1.7 3 0 3 C0 2.01 0 1.02 0 0 Z " fill="#000045" transform="translate(359,494)"/>
</svg>
