<?xml version="1.0" encoding="UTF-8"?>
<svg version="1.1" xmlns="http://www.w3.org/2000/svg" width="1280" height="720">
<path d="M0 0 C422.4 0 844.8 0 1280 0 C1280 237.6 1280 475.2 1280 720 C857.6 720 435.2 720 0 720 C0 482.4 0 244.8 0 0 Z " fill="#000000" transform="translate(0,0)"/>
<path d="M0 0 C1.703125 1.2421875 1.703125 1.2421875 2.703125 3.2421875 C4.65537789 3.73259452 4.65537789 3.73259452 7.03930664 3.92822266 C8.42062523 4.0781517 8.42062523 4.0781517 9.82984924 4.23110962 C10.83088181 4.33015594 11.83191437 4.42920227 12.86328125 4.53125 C13.88288437 4.63940033 14.90248749 4.74755066 15.95298767 4.85897827 C19.22301977 5.20379487 22.49422596 5.53561545 25.765625 5.8671875 C27.97730267 6.09810625 30.18889272 6.32986595 32.40039062 6.5625 C37.83365466 7.1321728 43.26793914 7.69116977 48.703125 8.2421875 C48.703125 5.9321875 48.703125 3.6221875 48.703125 1.2421875 C50.353125 1.2421875 52.003125 1.2421875 53.703125 1.2421875 C56.54867692 7.5084561 59.18881091 13.83603619 61.703125 20.2421875 C62.693125 19.9121875 63.683125 19.5821875 64.703125 19.2421875 C67.640625 19.6171875 67.640625 19.6171875 70.703125 21.2421875 C72.41598131 24.1126623 73.60130325 27.09227355 74.703125 30.2421875 C75.30125 30.0359375 75.899375 29.8296875 76.515625 29.6171875 C78.703125 29.2421875 78.703125 29.2421875 81.703125 31.2421875 C82.390625 34.3671875 82.390625 34.3671875 82.703125 37.2421875 C86.80536085 38.25758862 86.80536085 38.25758862 90.703125 37.2421875 C92.70272512 37.2021955 94.70359742 37.19871951 96.703125 37.2421875 C98.37284157 40.74859229 99.62848594 43.9066887 100.4765625 47.71875 C101.66966531 54.53131166 101.66966531 54.53131166 105.71484375 59.70703125 C108.04549677 60.43906998 110.29171866 60.86527861 112.703125 61.2421875 C115.1842522 62.07536751 117.35048623 63.06586811 119.703125 64.2421875 C120.033125 65.2321875 120.363125 66.2221875 120.703125 67.2421875 C119.640625 68.8046875 119.640625 68.8046875 117.703125 70.2421875 C113.292972 69.997179 109.74419856 68.92943986 105.703125 67.2421875 C106.03183594 68.2425 106.36054687 69.2428125 106.69921875 70.2734375 C109.99694635 80.44192326 113.06665203 90.67770147 116.01663208 100.9519043 C116.43173377 102.39232564 116.8507264 103.83163153 117.27365112 105.26977539 C117.87453744 107.3174631 118.46049961 109.36888352 119.04296875 111.421875 C119.38706787 112.61538574 119.73116699 113.80889648 120.08569336 115.03857422 C120.69863148 118.21887237 120.59952373 120.16333154 119.703125 123.2421875 C118.713125 123.5721875 117.723125 123.9021875 116.703125 124.2421875 C113.2510082 121.9407763 113.08311474 121.15103942 112.015625 117.3046875 C111.76425781 116.42941406 111.51289062 115.55414063 111.25390625 114.65234375 C110.703125 112.2421875 110.703125 112.2421875 110.703125 109.2421875 C110.043125 109.2421875 109.383125 109.2421875 108.703125 109.2421875 C108.85910156 109.82226562 109.01507812 110.40234375 109.17578125 111 C110.36368698 115.76735677 110.95230375 119.37039038 109.703125 124.2421875 C108.218125 124.7371875 108.218125 124.7371875 106.703125 125.2421875 C103.703125 123.2421875 103.703125 123.2421875 102.98291016 121.19287109 C102.74000244 119.92950928 102.74000244 119.92950928 102.4921875 118.640625 C102.30180908 117.68639648 102.11143066 116.73216797 101.9152832 115.74902344 C101.721521 114.71551758 101.52775879 113.68201172 101.328125 112.6171875 C100.8972915 110.4426774 100.46629704 108.26819919 100.03515625 106.09375 C99.70765381 104.40620605 99.70765381 104.40620605 99.37353516 102.68457031 C98.28853025 97.11335066 97.15600552 91.55228999 96.015625 85.9921875 C95.71229248 84.46730713 95.71229248 84.46730713 95.40283203 82.91162109 C95.20931152 81.96367676 95.01579102 81.01573242 94.81640625 80.0390625 C94.64923096 79.20729492 94.48205566 78.37552734 94.30981445 77.51855469 C93.6980181 75.22302583 92.84086426 73.32122613 91.703125 71.2421875 C91.85982666 71.9127417 92.01652832 72.5832959 92.17797852 73.27416992 C92.88438915 76.32368056 93.57513964 79.37653339 94.265625 82.4296875 C94.6359082 84.01233398 94.6359082 84.01233398 95.01367188 85.62695312 C95.35688477 87.15932617 95.35688477 87.15932617 95.70703125 88.72265625 C95.92174072 89.66004639 96.1364502 90.59743652 96.35766602 91.56323242 C96.72369068 94.40166966 96.42155985 96.48855118 95.703125 99.2421875 C94.053125 99.2421875 92.403125 99.2421875 90.703125 99.2421875 C88.04229812 92.52009855 85.91800823 85.65787949 83.7890625 78.75390625 C83.115713 76.57641992 82.42387782 74.40444596 81.703125 72.2421875 C80.713125 74.8821875 79.723125 77.5221875 78.703125 80.2421875 C77.053125 80.2421875 75.403125 80.2421875 73.703125 80.2421875 C65.703125 63.39112367 65.703125 63.39112367 65.703125 56.2421875 C65.17847656 56.15146973 64.65382813 56.06075195 64.11328125 55.96728516 C55.5048013 54.36841398 47.12946999 51.96584198 38.703125 49.6171875 C36.43748886 48.9869086 34.17158076 48.35769469 31.90478516 47.7315979 C30.50402002 47.34461695 29.10392431 46.95520262 27.70458984 46.56307983 C24.25532702 45.57507171 24.25532702 45.57507171 20.703125 45.2421875 C21.07566406 46.06203125 21.44820312 46.881875 21.83203125 47.7265625 C22.30511719 48.80421875 22.77820313 49.881875 23.265625 50.9921875 C23.74128906 52.05953125 24.21695313 53.126875 24.70703125 54.2265625 C25.70121595 57.23640795 26.05156807 58.41748685 24.703125 61.2421875 C21.953125 63.1171875 21.953125 63.1171875 18.703125 64.2421875 C15.48970349 63.44723933 14.06737887 62.74600117 12.11328125 60.04321289 C11.66855469 59.15110107 11.22382812 58.25898926 10.765625 57.33984375 C10.26289062 56.36724609 9.76015625 55.39464844 9.2421875 54.39257812 C8.73429688 53.37357422 8.22640625 52.35457031 7.703125 51.3046875 C6.69477965 49.28927643 5.6743505 47.27985559 4.640625 45.27734375 C4.19589844 44.384104 3.75117187 43.49086426 3.29296875 42.57055664 C1.43791445 39.85377948 -0.5099093 38.91177574 -3.296875 37.2421875 C-3.70733446 35.22409517 -4.10288091 33.20190803 -4.42578125 31.16796875 C-5.83606706 26.43117918 -8.57736332 22.37724592 -11.28613281 18.2668457 C-14.5360127 12.99661071 -14.61467667 9.24656795 -13.296875 3.2421875 C-11.55453675 2.51521189 -9.80260155 1.81120506 -8.046875 1.1171875 C-7.07234375 0.72273438 -6.0978125 0.32828125 -5.09375 -0.078125 C-2.296875 -0.7578125 -2.296875 -0.7578125 0 0 Z " fill="#0202EF" transform="translate(739.296875,32.7578125)"/>
<path d="M0 0 C1.65 0 3.3 0 5 0 C7.43046191 6.32837252 8.59060025 12.23784552 9 19 C10.65 19.33 12.3 19.66 14 20 C13.90416626 21.57551636 13.90416626 21.57551636 13.80639648 23.18286133 C13.81577682 29.35436148 15.55420343 35.13813423 17.09765625 41.07421875 C17.57603181 42.97172717 18.05439558 44.86923865 18.53205776 46.76692677 C19.53710707 50.74728512 20.55862046 54.72344798 21.57879639 58.69995117 C22.42192614 61.9881672 23.26104545 65.27727205 24.08921814 68.56929016 C24.7094596 71.03135653 25.33899488 73.49110431 25.97877502 75.94816589 C26.25914108 77.06314957 26.53950714 78.17813324 26.82836914 79.3269043 C27.07929825 80.30427048 27.33022736 81.28163666 27.58876038 82.28862 C28.03125838 85.20609233 27.84197508 87.18360202 27 90 C25.37109375 91.80078125 25.37109375 91.80078125 23.4375 93.3125 C22.79683594 93.82425781 22.15617187 94.33601563 21.49609375 94.86328125 C21.00238281 95.23839844 20.50867188 95.61351562 20 96 C18.11132812 95.34619141 18.11132812 95.34619141 16 94 C14.96679688 91.54833984 14.96679688 91.54833984 14.21875 88.4609375 C13.93620361 87.33083252 13.65365723 86.20072754 13.36254883 85.03637695 C13.07790771 83.82812256 12.7932666 82.61986816 12.5 81.375 C12.19666748 80.14547607 11.89333496 78.91595215 11.58081055 77.64916992 C10.97853073 75.20284107 10.38292325 72.75485857 9.79443359 70.30517578 C8.98270811 66.92805849 8.14174977 63.55955865 7.28808594 60.19287109 C6.82206479 58.35031724 6.36600378 56.50525339 5.91015625 54.66015625 C5.24286934 51.97668916 4.56331379 49.29810701 3.87109375 46.62109375 C3.68377686 45.89043701 3.49645996 45.15978027 3.3034668 44.40698242 C2.94543114 43.01163835 2.58385017 41.61719713 2.21801758 40.22387695 C1.39315274 36.99062332 1 34.37260201 1 31 C0.2446698 31.00888245 -0.5106604 31.01776489 -1.28887939 31.0269165 C-8.41021087 31.10709389 -15.53132325 31.16797985 -22.65298843 31.20724869 C-26.31426511 31.2281161 -29.97516858 31.25641706 -33.63623047 31.30175781 C-37.16998711 31.34524763 -40.70338499 31.36914348 -44.23738861 31.37950897 C-46.24051252 31.39048737 -48.24349226 31.42170876 -50.24639893 31.45318604 C-51.46736267 31.45348816 -52.68832642 31.45379028 -53.94628906 31.45410156 C-55.55845306 31.46742523 -55.55845306 31.46742523 -57.20318604 31.48101807 C-60.67616588 30.88370767 -61.87022965 29.75357526 -64 27 C-64 26.34 -64 25.68 -64 25 C-64.66 25 -65.32 25 -66 25 C-66.66 24.01 -67.32 23.02 -68 22 C-70.1283291 21.45629822 -70.1283291 21.45629822 -72.5 21.375 C-76.84210526 21.07894737 -76.84210526 21.07894737 -79 20 C-79 18.35 -79 16.7 -79 15 C-76.57023923 13.78511961 -75.20382241 13.93812412 -72.49609375 14.05078125 C-71.54444336 14.08872803 -70.59279297 14.1266748 -69.61230469 14.16577148 C-68.04077637 14.2384021 -68.04077637 14.2384021 -66.4375 14.3125 C-64.79442871 14.38416382 -64.79442871 14.38416382 -63.11816406 14.45727539 C-41.37576746 15.44707729 -19.64579623 16.68520495 2 19 C1.65775391 17.69675781 1.65775391 17.69675781 1.30859375 16.3671875 C1.02113281 15.21476562 0.73367188 14.06234375 0.4375 12.875 C0.14746094 11.73804688 -0.14257812 10.60109375 -0.44140625 9.4296875 C-1.01056927 5.93510616 -0.78666101 3.42796653 0 0 Z " fill="#0102F0" transform="translate(397,306)"/>
<path d="M0 0 C2.125 0.375 2.125 0.375 4 1 C4.47003557 7.26819606 2.86867661 11.81836164 0.51953125 17.5859375 C0.15491287 18.50881561 -0.20970551 19.43169373 -0.58537292 20.38253784 C-1.77457324 23.38475039 -2.98048678 26.37990958 -4.1875 29.375 C-5.01156275 31.44068873 -5.83463586 33.50677251 -6.65673828 35.57324219 C-7.9011851 38.6999469 -9.14685581 41.82611903 -10.39758301 44.95031738 C-12.9704477 51.3813372 -15.4859597 57.83096213 -17.94921875 64.3046875 C-18.81892999 66.57507823 -19.68958142 68.84510631 -20.56045532 71.11505127 C-21.10103682 72.53193337 -21.6371953 73.95051134 -22.16879272 75.37078857 C-22.89948176 77.31996888 -23.64684207 79.26193023 -24.3984375 81.203125 C-24.80755371 82.28239258 -25.21666992 83.36166016 -25.63818359 84.47363281 C-27.1471843 87.27304824 -28.01305433 88.03592019 -31 89 C-33.75212119 88.96986729 -36.27104753 88.45482541 -39 88 C-39.33 86.02 -39.66 84.04 -40 82 C-40.66 82 -41.32 82 -42 82 C-42.03158203 82.62696777 -42.06316406 83.25393555 -42.09570312 83.89990234 C-42.71934999 93.34815242 -44.34883363 102.5768381 -46.01123047 111.88525391 C-46.50496837 114.65284966 -46.98938188 117.42196612 -47.47265625 120.19140625 C-47.78331414 121.95322031 -48.09449261 123.71494267 -48.40625 125.4765625 C-48.55106812 126.30354645 -48.69588623 127.1305304 -48.84509277 127.98257446 C-49.88419966 133.76839933 -49.88419966 133.76839933 -51 136 C-53.31 135.67 -55.62 135.34 -58 135 C-58.86643462 130.81737263 -58.99599955 127.544342 -58.22729492 123.34936523 C-57.93655342 121.72254066 -57.93655342 121.72254066 -57.63993835 120.06285095 C-57.42231339 118.90644608 -57.20468842 117.7500412 -56.98046875 116.55859375 C-56.7618367 115.35815933 -56.54320465 114.15772491 -56.31794739 112.9209137 C-55.85438198 110.3875543 -55.38589903 107.85509048 -54.9128418 105.32348633 C-54.18986127 101.4501504 -53.48334552 97.57408259 -52.77929688 93.69726562 C-52.32649024 91.23419659 -51.87274575 88.77129974 -51.41796875 86.30859375 C-51.20641647 85.15016464 -50.9948642 83.99173553 -50.77690125 82.79820251 C-50.5736171 81.71680496 -50.37033295 80.63540741 -50.16088867 79.52124023 C-49.98466476 78.57337143 -49.80844086 77.62550262 -49.62687683 76.64891052 C-48.98001201 73.9155394 -48.26318017 71.51223645 -47 69 C-45.515 68.505 -45.515 68.505 -44 68 C-41.10067643 70.39509338 -40.49831724 72.31245243 -40 76 C-39.34 76 -38.68 76 -38 76 C-37.95609131 75.25806396 -37.91218262 74.51612793 -37.86694336 73.75170898 C-37.29036109 65.1725059 -36.20590249 56.74079055 -34.89819336 48.24975586 C-34.55934202 46.04192377 -34.2314367 43.83264133 -33.90429688 41.62304688 C-33.68814831 40.19781819 -33.47137428 38.7726842 -33.25390625 37.34765625 C-33.06127197 36.07929932 -32.8686377 34.81094238 -32.67016602 33.50415039 C-32.03741243 30.19562137 -31.14720357 27.16263511 -30 24 C-28.35 24 -26.7 24 -25 24 C-23.53955406 29.78251928 -24.49588305 34.87074586 -25.43359375 40.6484375 C-25.59038101 41.66096588 -25.74716827 42.67349426 -25.90870667 43.71670532 C-26.40951427 46.93758378 -26.92331458 50.15623291 -27.4375 53.375 C-27.7801571 55.56366758 -28.12196365 57.7524685 -28.46289062 59.94140625 C-29.29874503 65.29585501 -30.14526468 70.64853459 -31 76 C-30.75580322 75.35957764 -30.51160645 74.71915527 -30.26000977 74.05932617 C-26.00259716 62.94116621 -21.64617267 51.86179432 -17.29760742 40.77905273 C-15.93675873 37.31061071 -14.57673133 33.84184745 -13.21679688 30.37304688 C-12.34119459 28.14060588 -11.46554517 25.90818336 -10.58984375 23.67578125 C-10.18869858 22.65261307 -9.78755341 21.62944489 -9.37425232 20.57527161 C-8.61533692 18.64160233 -7.85459404 16.70864901 -7.09176636 14.77651978 C-6.35180269 12.89468513 -5.62005255 11.00960385 -4.89578247 9.12167358 C-4.37224686 7.77210068 -4.37224686 7.77210068 -3.83813477 6.39526367 C-3.37818871 5.19591438 -3.37818871 5.19591438 -2.90895081 3.97233582 C-2 2 -2 2 0 0 Z " fill="#0303E4" transform="translate(394,86)"/>
<path d="M0 0 C1.703125 1.2421875 1.703125 1.2421875 2.703125 3.2421875 C4.62088983 3.69359401 4.62088983 3.69359401 6.921875 3.83984375 C7.77136719 3.91912109 8.62085938 3.99839844 9.49609375 4.08007812 C10.38941406 4.15419922 11.28273438 4.22832031 12.203125 4.3046875 C13.96388071 4.45840427 15.72432373 4.61576089 17.484375 4.77734375 C18.6609668 4.87607788 18.6609668 4.87607788 19.86132812 4.97680664 C21.703125 5.2421875 21.703125 5.2421875 22.703125 6.2421875 C25.55841107 6.6425705 28.40048987 6.9940102 31.265625 7.3046875 C32.07193359 7.39556641 32.87824219 7.48644531 33.70898438 7.58007812 C35.70659877 7.80466199 37.7048106 8.02391986 39.703125 8.2421875 C39.703125 8.9021875 39.703125 9.5621875 39.703125 10.2421875 C41.023125 10.5721875 42.343125 10.9021875 43.703125 11.2421875 C41.84515159 13.10016091 38.7709225 12.37268081 36.2890625 12.375 C34.31099609 12.37693359 34.31099609 12.37693359 32.29296875 12.37890625 C31.60058105 12.37681152 30.90819336 12.3747168 30.19482422 12.37255859 C28.10767155 12.36726247 26.02073922 12.37247513 23.93359375 12.37890625 C22.59374953 12.37824446 21.25390545 12.37696122 19.9140625 12.375 C18.09334229 12.37330811 18.09334229 12.37330811 16.23583984 12.37158203 C12.66173554 12.24067151 9.23177054 11.81117806 5.703125 11.2421875 C7.32333758 15.01509574 8.95011094 18.78513979 10.578125 22.5546875 C11.03832031 23.62654297 11.49851562 24.69839844 11.97265625 25.80273438 C12.41738281 26.83076172 12.86210938 27.85878906 13.3203125 28.91796875 C13.72878418 29.86583252 14.13725586 30.81369629 14.55810547 31.7902832 C15.70721517 34.41140122 15.70721517 34.41140122 17.703125 37.2421875 C20.26595242 37.97184116 20.26595242 37.97184116 22.703125 38.2421875 C21.383125 40.5521875 20.063125 42.8621875 18.703125 45.2421875 C19.363125 45.2421875 20.023125 45.2421875 20.703125 45.2421875 C21.5712158 47.15258802 22.42214283 49.07079487 23.265625 50.9921875 C23.74128906 52.05953125 24.21695313 53.126875 24.70703125 54.2265625 C25.70121595 57.23640795 26.05156807 58.41748685 24.703125 61.2421875 C21.953125 63.1171875 21.953125 63.1171875 18.703125 64.2421875 C15.48970349 63.44723933 14.06737887 62.74600117 12.11328125 60.04321289 C11.66855469 59.15110107 11.22382812 58.25898926 10.765625 57.33984375 C10.26289062 56.36724609 9.76015625 55.39464844 9.2421875 54.39257812 C8.73429688 53.37357422 8.22640625 52.35457031 7.703125 51.3046875 C6.69477965 49.28927643 5.6743505 47.27985559 4.640625 45.27734375 C4.19589844 44.384104 3.75117187 43.49086426 3.29296875 42.57055664 C1.43791445 39.85377948 -0.5099093 38.91177574 -3.296875 37.2421875 C-3.70733446 35.22409517 -4.10288091 33.20190803 -4.42578125 31.16796875 C-5.83606706 26.43117918 -8.57736332 22.37724592 -11.28613281 18.2668457 C-14.5360127 12.99661071 -14.61467667 9.24656795 -13.296875 3.2421875 C-11.55453675 2.51521189 -9.80260155 1.81120506 -8.046875 1.1171875 C-7.07234375 0.72273438 -6.0978125 0.32828125 -5.09375 -0.078125 C-2.296875 -0.7578125 -2.296875 -0.7578125 0 0 Z " fill="#0202F0" transform="translate(739.296875,32.7578125)"/>
<path d="M0 0 C10.6462108 0.4410573 21.26545721 1.27344908 31.875 2.25 C33.11733398 2.34708252 34.35966797 2.44416504 35.63964844 2.54418945 C37.39196777 2.71567505 37.39196777 2.71567505 39.1796875 2.890625 C40.75339111 3.03032715 40.75339111 3.03032715 42.35888672 3.17285156 C45 4 45 4 46.72241211 6.15600586 C48.12104938 9.26946384 49.23578113 12.35704447 50.26171875 15.61328125 C50.65810547 16.86044922 51.05449219 18.10761719 51.46289062 19.39257812 C51.87123294 20.69917526 52.27943432 22.00581644 52.6875 23.3125 C53.1068356 24.63885737 53.5267518 25.96503133 53.94726562 27.29101562 C54.97056618 30.52558634 55.98791691 33.76190536 57 37 C46.81719266 34.72910785 36.68740675 32.24233456 26.59994507 29.57910156 C25.28615994 29.23544469 23.97055902 28.89865426 22.65322876 28.56884766 C20.77699105 28.09734232 18.90783074 27.59794664 17.0390625 27.09765625 C15.94803223 26.81414307 14.85700195 26.53062988 13.73291016 26.23852539 C10.34426205 24.70282664 9.57152104 23.31980368 8 20 C7.64526611 19.2778833 7.29053223 18.5557666 6.92504883 17.81176758 C5.8836875 15.48032634 4.8434939 13.14854948 3.8125 10.8125 C3.26045898 9.58370117 3.26045898 9.58370117 2.69726562 8.33007812 C2.34986328 7.54697266 2.00246094 6.76386719 1.64453125 5.95703125 C1.32846924 5.24522705 1.01240723 4.53342285 0.68676758 3.80004883 C0 2 0 2 0 0 Z " fill="#000009" transform="translate(745,44)"/>
<path d="M0 0 C2.59090643 0.99650247 3.76858576 1.56288421 5.08984375 4.05859375 C5.36957031 4.84363281 5.64929688 5.62867188 5.9375 6.4375 C7.3594149 10.22893491 7.3594149 10.22893491 10.6875 12.4375 C11.450625 12.953125 12.21375 13.46875 13 14 C13.17651367 15.7644043 13.17651367 15.7644043 13.16796875 18.07421875 C13.80389647 26.2130737 18.02812341 33.19256792 21.625 40.375 C22.70659819 42.54541987 23.78323044 44.71768796 24.84555054 46.89761353 C25.50277846 48.2455837 26.17115143 49.58819208 26.85195923 50.92440796 C29.06737286 55.45787088 29.06737286 55.45787088 28.69677734 58.43994141 C28.35187256 59.21217041 28.35187256 59.21217041 28 60 C26.35 60 24.7 60 23 60 C18.59350528 51.28766653 14.26544352 42.56192596 10.2265625 33.671875 C9.47537705 32.03553472 8.68650061 30.41508168 7.8359375 28.828125 C7 27 7 27 7 24 C-1.39937481 28.5053913 -9.65769795 33.23539893 -17.875 38.0625 C-18.50562347 38.43239044 -19.13624695 38.80228088 -19.78598022 39.18338013 C-32.85538083 46.85456347 -45.7529699 54.78528026 -58.5625 62.8828125 C-59.28268311 63.33664307 -60.00286621 63.79047363 -60.74487305 64.25805664 C-62.05858395 65.08686256 -63.3702003 65.91900509 -64.67895508 66.75561523 C-76.36224848 74.13647929 -76.36224848 74.13647929 -81 73.75 C-81.99 73.37875 -81.99 73.37875 -83 73 C-83 71.02 -83 69.04 -83 67 C-82.33806641 66.62415771 -81.67613281 66.24831543 -80.99414062 65.86108398 C-63.75845608 56.05257974 -46.77173148 45.9150339 -30.11938477 35.13525391 C-25.1175752 31.90825246 -20.18681939 28.93299961 -14.8125 26.375 C-10.82214533 24.43457506 -6.98056571 22.46604052 -3.25 20.0625 C0 18 0 18 2 18 C1.72285156 17.25234375 1.44570313 16.5046875 1.16015625 15.734375 C0.61681641 14.25710938 0.61681641 14.25710938 0.0625 12.75 C-0.47697266 11.28820312 -0.47697266 11.28820312 -1.02734375 9.796875 C-2.664 5.09066667 -2.664 5.09066667 -3 3 C-1.5625 1.25 -1.5625 1.25 0 0 Z " fill="#0303E4" transform="translate(439,460)"/>
<path d="M0 0 C0.6875 1.8125 0.6875 1.8125 1 4 C-1.19711669 6.68075586 -3.95177554 8.37407114 -6.859375 10.21484375 C-8.28636719 11.12073242 -8.28636719 11.12073242 -9.7421875 12.04492188 C-10.73476562 12.66947266 -11.72734375 13.29402344 -12.75 13.9375 C-13.72710937 14.55818359 -14.70421875 15.17886719 -15.7109375 15.81835938 C-23.61174084 20.81758737 -23.61174084 20.81758737 -27.64453125 23.08984375 C-31.8285159 25.47164642 -35.87689636 28.04010861 -39.9375 30.625 C-41.63001475 31.69822201 -43.32272616 32.77113395 -45.015625 33.84375 C-45.85544922 34.37613281 -46.69527344 34.90851562 -47.56054688 35.45703125 C-53.0554389 38.93258345 -58.57561676 42.36776373 -64.09228516 45.80859375 C-65.94194706 46.96374477 -67.78966968 48.12192667 -69.63671875 49.28125 C-75.89807035 53.20822434 -82.17325671 57.11079426 -88.47265625 60.9765625 C-89.04411377 61.3273587 -89.61557129 61.67815491 -90.2043457 62.0395813 C-93.06042558 63.79257074 -95.91768276 65.54355814 -98.77685547 67.29150391 C-100.37037842 68.26869385 -100.37037842 68.26869385 -101.99609375 69.265625 C-103.01944824 69.89146484 -104.04280273 70.51730469 -105.09716797 71.16210938 C-108.50134143 73.31741785 -111.7631329 75.63866841 -114.98461914 78.05761719 C-117.65549916 79.30650839 -119.22711348 78.80576005 -122 78 C-123 75 -123 75 -122 72 C-120.3996582 70.7800293 -120.3996582 70.7800293 -118.30078125 69.57421875 C-117.51558105 69.11499023 -116.73038086 68.65576172 -115.92138672 68.18261719 C-115.0604541 67.68922852 -114.19952148 67.19583984 -113.3125 66.6875 C-111.46590991 65.60548511 -109.62091059 64.52075173 -107.77734375 63.43359375 C-106.81940918 62.86882324 -105.86147461 62.30405273 -104.87451172 61.72216797 C-100.31516654 58.99058814 -95.84559321 56.12377771 -91.375 53.25 C-83.24146061 48.03490603 -75.04967012 42.92480871 -66.8125 37.875 C-56.92477856 31.81163117 -47.08797446 25.67625598 -37.29736328 19.45751953 C-34.86577366 17.91484259 -32.43134438 16.37673451 -29.99609375 14.83984375 C-29.16601807 14.31575928 -28.33594238 13.7916748 -27.48071289 13.25170898 C-25.85206984 12.22477108 -24.22238172 11.19948836 -22.59155273 10.17602539 C-19.20737586 8.04857391 -15.8391481 5.91245095 -12.5390625 3.65625 C-11.57742187 3.0065625 -10.61578125 2.356875 -9.625 1.6875 C-8.83351563 1.13449219 -8.04203125 0.58148437 -7.2265625 0.01171875 C-4.41880705 -1.26408592 -2.90072518 -0.8763675 0 0 Z " fill="#0303E3" transform="translate(199,599)"/>
<path d="M0 0 C6.4670527 -0.36605959 6.4670527 -0.36605959 8.76123047 1.2097168 C10 3 10 3 10.03564453 5.15551758 C9.86145996 6.03876709 9.68727539 6.9220166 9.5078125 7.83203125 C9.29672852 8.90662598 9.08564453 9.9812207 8.86816406 11.08837891 C6.99807781 19.6514202 4.94457764 28.17093477 2.875 36.6875 C2.13047877 39.7605216 1.38644075 42.83365983 0.64253235 45.90682983 C0.1443235 47.96444528 -0.35446494 50.02192047 -0.85383606 52.07925415 C-2.40183658 58.47143839 -3.89988777 64.87313559 -5.36328125 71.28515625 C-5.88929351 73.56043523 -6.41693349 75.835328 -6.94549561 78.11001587 C-7.27182812 79.52940645 -7.59240928 80.95013238 -7.90704346 82.37216187 C-8.33846691 84.31918384 -8.79166875 86.26134265 -9.24609375 88.203125 C-9.49029053 89.28239258 -9.7344873 90.36166016 -9.98608398 91.47363281 C-11 94 -11 94 -13.10961914 95.36230469 C-13.73344482 95.57274414 -14.35727051 95.78318359 -15 96 C-17.94147563 93.56625267 -17.94147563 93.56625267 -18.1905365 91.15646362 C-17.00988671 82.34236415 -15.35496961 73.61610722 -13.69140625 64.8828125 C-13.36111877 63.13552647 -13.03103906 61.38820116 -12.70115662 59.64083862 C-12.01226121 55.99762987 -11.32010123 52.35505998 -10.62573242 48.71289062 C-9.73659136 44.04704525 -8.85688491 39.37947671 -7.97972202 34.71136665 C-7.30190449 31.11093559 -6.61853885 27.51157447 -5.93354607 23.91250229 C-5.60676224 22.19127251 -5.2818426 20.4696877 -4.95883369 18.74774551 C-4.50765903 16.34648659 -4.04888732 13.94680013 -3.58813477 11.54736328 C-3.45663528 10.83874649 -3.3251358 10.1301297 -3.18965149 9.40003967 C-2.5254918 5.98453736 -1.77486163 3.0114108 0 0 Z " fill="#0203EA" transform="translate(825,324)"/>
<path d="M0 0 C3.2890948 2.61342804 3.47579284 6.23855749 4.265625 10.2265625 C4.43835938 11.02835937 4.61109375 11.83015625 4.7890625 12.65625 C5.21304591 14.63483925 5.61633244 16.61784306 6.015625 18.6015625 C7.005625 15.6315625 7.995625 12.6615625 9.015625 9.6015625 C10.665625 9.6015625 12.315625 9.6015625 14.015625 9.6015625 C15.32929333 15.01283206 14.57790912 19.36859455 13.578125 24.7265625 C11.61051486 36.32749449 11.48284148 45.87479955 14.45703125 57.375 C15.04670435 60.7810838 14.77957631 63.252319 14.015625 66.6015625 C12.02994792 66.56901042 10.04427083 66.53645833 8.05859375 66.50390625 C5.81257039 66.51893033 5.81257039 66.51893033 3.015625 67.6015625 C1.46484375 66.6015625 1.46484375 66.6015625 0.015625 64.6015625 C0.12639632 61.82329802 0.38768637 59.32784804 0.828125 56.6015625 C1.03915946 55.05132094 1.24620074 53.50053049 1.44921875 51.94921875 C1.54960449 51.19785645 1.64999023 50.44649414 1.75341797 49.67236328 C2.9670252 40.0878041 1.03823831 31.82004841 -1.4453125 22.63134766 C-2.29651132 19.42624487 -3.0593479 16.21007254 -3.796875 12.9765625 C-4.05082031 11.89117187 -4.30476562 10.80578125 -4.56640625 9.6875 C-5.01744033 6.35743532 -4.835991 3.84626703 -3.984375 0.6015625 C-1.984375 -0.3984375 -1.984375 -0.3984375 0 0 Z " fill="#0202ED" transform="translate(788.984375,358.3984375)"/>
<path d="M0 0 C8.19000291 1.69214066 16.33797702 3.57591622 24.48046875 5.48144531 C27.66638745 6.22498897 30.85502524 6.95597441 34.04394531 7.68652344 C36.09881111 8.16492492 38.15350474 8.64406661 40.20800781 9.12402344 C41.14681793 9.33771576 42.08562805 9.55140808 43.05288696 9.77157593 C49.31264223 11.25387535 55.13828589 13.30354148 61.04394531 15.85058594 C61.04394531 17.50058594 61.04394531 19.15058594 61.04394531 20.85058594 C56.89138225 21.97639433 53.93365357 21.64402332 49.7565918 20.71069336 C47.88456337 20.29982735 47.88456337 20.29982735 45.97471619 19.88066101 C44.6214064 19.57282832 43.26818267 19.26461704 41.91503906 18.95605469 C40.51945407 18.64480653 39.12370435 18.33429616 37.72779846 18.02449036 C34.80708247 17.3740443 31.8879954 16.71685634 28.9699707 16.05444336 C25.23427221 15.20666063 21.49571578 14.3724156 17.75594997 13.54278088 C14.87508275 12.90271786 11.99546421 12.25718425 9.1162281 11.60982704 C7.73824021 11.30035731 6.35995967 10.99218769 4.98138237 10.68535423 C3.05369937 10.25508877 1.12775833 9.81704137 -0.7980957 9.37866211 C-1.89332047 9.13137863 -2.98854523 8.88409515 -4.11695862 8.62931824 C-6.63025333 7.93994961 -8.6911913 7.11894281 -10.95605469 5.85058594 C-11.14355469 3.47558594 -11.14355469 3.47558594 -10.95605469 0.85058594 C-6.80231875 -1.91857135 -4.76389812 -0.89600852 0 0 Z " fill="#0303E4" transform="translate(832.9560546875,520.1494140625)"/>
<path d="M0 0 C0 1.65 0 3.3 0 5 C-0.66 5 -1.32 5 -2 5 C-2 5.66 -2 6.32 -2 7 C-2.8189978 7.44315552 -2.8189978 7.44315552 -3.65454102 7.89526367 C-15.48925306 14.30639886 -27.27049242 20.80092292 -38.96899414 27.45776367 C-40.74569373 28.46785476 -42.52469587 29.47390821 -44.30615234 30.47558594 C-46.20648914 31.55096231 -48.09658164 32.64454053 -49.97900391 33.75097656 C-50.95144043 34.31010742 -51.92387695 34.86923828 -52.92578125 35.4453125 C-53.80274658 35.95852051 -54.67971191 36.47172852 -55.58325195 37.00048828 C-58.27739237 38.11472314 -59.33126261 38.04612338 -62 37 C-62.23779297 34.68334961 -62.23779297 34.68334961 -62 32 C-60.42236328 30.41235352 -60.42236328 30.41235352 -58.1953125 29.06640625 C-57.3693457 28.56125488 -56.54337891 28.05610352 -55.69238281 27.53564453 C-51.1231823 24.92952636 -46.52302852 22.40042702 -41.875 19.9375 C-30.46874165 13.83153429 -19.19444129 7.51198845 -7.95751953 1.10058594 C-4.68819138 -0.73754468 -3.61465285 -1.08439586 0 0 Z " fill="#0303E3" transform="translate(430,45)"/>
<path d="M0 0 C25.74 0 51.48 0 78 0 C78.495 1.485 78.495 1.485 79 3 C77.45193665 4.81558512 76.50403808 5.88256131 74.14428711 6.43237305 C73.4456958 6.45855713 72.74710449 6.48474121 72.02734375 6.51171875 C71.22401611 6.5473291 70.42068848 6.58293945 69.59301758 6.61962891 C68.71669678 6.64202637 67.84037598 6.66442383 66.9375 6.6875 C66.01283936 6.72020996 65.08817871 6.75291992 64.13549805 6.78662109 C47.61457239 7.30517211 31.08265593 7.15499727 14.5625 6.6875 C13.4485083 6.66510254 12.3345166 6.64270508 11.18676758 6.61962891 C10.15704834 6.58401855 9.1273291 6.5484082 8.06640625 6.51171875 C7.15834229 6.48553467 6.25027832 6.45935059 5.31469727 6.43237305 C2.56559688 5.91885582 1.61587476 5.26062446 0 3 C0 2.01 0 1.02 0 0 Z " fill="#0202ED" transform="translate(459,0)"/>
<path d="M0 0 C2.49710876 0.85263021 3.70529616 1.48543254 5.0302887 3.79893494 C5.27883102 4.52520584 5.52737335 5.25147675 5.78344727 5.99975586 C6.07377335 6.82499252 6.36409943 7.65022919 6.66322327 8.50047302 C6.96127365 9.39621536 7.25932404 10.2919577 7.56640625 11.21484375 C7.88657211 12.14035538 8.20673798 13.065867 8.53660583 14.01942444 C9.55906943 16.9875769 10.56052774 19.96237613 11.5625 22.9375 C12.24026452 24.90733914 12.91928725 26.87674584 13.59960938 28.84570312 C14.25633953 30.76002897 14.91197229 32.67473171 15.56640625 34.58984375 C15.86648087 35.46736801 16.16655548 36.34489227 16.47572327 37.24900818 C17.34247178 39.82536271 18.18037169 42.40827886 19 45 C19.47057327 46.47981857 19.47057327 46.47981857 19.95065308 47.98953247 C20.24400543 48.97082123 20.53735779 49.95210999 20.83959961 50.96313477 C21.11025742 51.85533218 21.38091522 52.7475296 21.65977478 53.66676331 C22 56 22 56 20 59 C17.73120117 58.58691406 17.73120117 58.58691406 15 57 C13.32971614 54.02817473 12.35114738 50.84332133 11.30078125 47.609375 C10.97965866 46.672005 10.65853607 45.73463501 10.3276825 44.76885986 C9.30446418 41.76837562 8.30827857 38.75968846 7.3125 35.75 C6.6313166 33.73768486 5.94839349 31.72595772 5.26367188 29.71484375 C3.73346 25.20790127 2.21748186 20.69662679 0.72622681 16.17663574 C0.10604612 14.3178398 -0.54326619 12.46880608 -1.19848633 10.62207031 C-2.20062074 7.3436897 -2.13626996 4.40674894 -2 1 C-1.34 0.67 -0.68 0.34 0 0 Z " fill="#0304E1" transform="translate(844,212)"/>
<path d="M0 0 C1.54686745 -0.01441132 1.54686745 -0.01441132 3.12498474 -0.02911377 C4.24268753 -0.03336365 5.36039032 -0.03761353 6.51196289 -0.04199219 C7.65621231 -0.04769226 8.80046173 -0.05339233 9.97938538 -0.05926514 C12.40291415 -0.06872337 14.82645583 -0.07525238 17.25 -0.07910156 C20.96580286 -0.08881798 24.68105531 -0.11983877 28.39672852 -0.15136719 C30.74763668 -0.1578959 33.09854881 -0.16314689 35.44946289 -0.16699219 C37.12298073 -0.18551239 37.12298073 -0.18551239 38.83030701 -0.20440674 C39.86470413 -0.20140564 40.89910126 -0.19840454 41.96484375 -0.1953125 C43.331464 -0.20078094 43.331464 -0.20078094 44.72569275 -0.20635986 C47.46775315 0.22772115 48.34048118 1.02816022 50.04711914 3.16113281 C49.71711914 4.15113281 49.38711914 5.14113281 49.04711914 6.16113281 C46.5593836 7.40500058 44.87732749 7.29474236 42.09423828 7.30639648 C41.06299332 7.31277634 40.03174835 7.31915619 38.96925354 7.32572937 C37.85155075 7.32684219 36.73384796 7.32795502 35.58227539 7.32910156 C34.43802597 7.33242996 33.29377655 7.33575836 32.11485291 7.33918762 C29.6913188 7.3442575 27.26777769 7.34659593 24.84423828 7.34643555 C21.1285456 7.34862168 17.41314986 7.36677604 13.69750977 7.38574219 C11.34659933 7.38867611 8.99568747 7.39066091 6.64477539 7.39160156 C5.52909683 7.39878708 4.41341827 7.4059726 3.26393127 7.41337585 C2.22953415 7.41029922 1.19513702 7.4072226 0.12939453 7.40405273 C-0.78168564 7.40547775 -1.69276581 7.40690277 -2.63145447 7.40837097 C-4.95288086 7.16113281 -4.95288086 7.16113281 -7.95288086 5.16113281 C-7.57788086 3.22363281 -7.57788086 3.22363281 -6.95288086 1.16113281 C-4.46837453 -0.08112035 -2.7795504 0.02084928 0 0 Z " fill="#0102F1" transform="translate(507.952880859375,304.8388671875)"/>
<path d="M0 0 C0.99 0.495 0.99 0.495 2 1 C1.67 1.99 1.34 2.98 1 4 C1.56847656 3.94199219 2.13695312 3.88398438 2.72265625 3.82421875 C8.16090445 3.506458 11.25698514 4.19683968 15.58984375 7.515625 C17 9 17 9 19 13 C39.79 13.33 60.58 13.66 82 14 C81.67 15.98 81.34 17.96 81 20 C80.505 18.02 80.505 18.02 80 16 C79.2446698 16.00888245 78.4893396 16.01776489 77.71112061 16.0269165 C70.58978913 16.10709389 63.46867675 16.16797985 56.34701157 16.20724869 C52.68573489 16.2281161 49.02483142 16.25641706 45.36376953 16.30175781 C41.83001289 16.34524763 38.29661501 16.36914348 34.76261139 16.37950897 C32.75948748 16.39048737 30.75650774 16.42170876 28.75360107 16.45318604 C27.53263733 16.45348816 26.31167358 16.45379028 25.05371094 16.45410156 C23.44154694 16.46742523 23.44154694 16.46742523 21.79681396 16.48101807 C18.32383412 15.88370767 17.12977035 14.75357526 15 12 C15 11.34 15 10.68 15 10 C14.34 10 13.68 10 13 10 C12.34 9.01 11.68 8.02 11 7 C8.8716709 6.45629822 8.8716709 6.45629822 6.5 6.375 C2.15789474 6.07894737 2.15789474 6.07894737 0 5 C0 3.35 0 1.7 0 0 Z " fill="#0707C4" transform="translate(318,321)"/>
<path d="M0 0 C20.79 0.33 41.58 0.66 63 1 C67 17 67 17 66 21 C63.32072659 16.98108988 63.84398752 14.75838077 64 10 C63.34 10 62.68 10 62 10 C62 7.69 62 5.38 62 3 C61.26750534 3.00666183 60.53501068 3.01332367 59.78031921 3.02018738 C52.87943197 3.08028233 45.9785838 3.12596617 39.07750225 3.15543652 C35.52950064 3.17109693 31.98171513 3.19234151 28.43383789 3.22631836 C24.35561033 3.26513007 20.27760999 3.27970602 16.19921875 3.29296875 C14.92414963 3.30845261 13.64908051 3.32393646 12.33537292 3.33988953 C11.15437515 3.34011612 9.97337738 3.34034271 8.7565918 3.34057617 C7.19439156 3.35056892 7.19439156 3.35056892 5.60063171 3.36076355 C3 3 3 3 0 0 Z " fill="#000038" transform="translate(335,336)"/>
<path d="M0 0 C1.54686745 -0.01441132 1.54686745 -0.01441132 3.12498474 -0.02911377 C4.24268753 -0.03336365 5.36039032 -0.03761353 6.51196289 -0.04199219 C7.65621231 -0.04769226 8.80046173 -0.05339233 9.97938538 -0.05926514 C12.40291415 -0.06872337 14.82645583 -0.07525238 17.25 -0.07910156 C20.96580286 -0.08881798 24.68105531 -0.11983877 28.39672852 -0.15136719 C30.74763668 -0.1578959 33.09854881 -0.16314689 35.44946289 -0.16699219 C37.12298073 -0.18551239 37.12298073 -0.18551239 38.83030701 -0.20440674 C39.86470413 -0.20140564 40.89910126 -0.19840454 41.96484375 -0.1953125 C43.331464 -0.20078094 43.331464 -0.20078094 44.72569275 -0.20635986 C47.46775315 0.22772115 48.34048118 1.02816022 50.04711914 3.16113281 C49.71711914 4.15113281 49.38711914 5.14113281 49.04711914 6.16113281 C48.38711914 6.16113281 47.72711914 6.16113281 47.04711914 6.16113281 C47.04711914 4.84113281 47.04711914 3.52113281 47.04711914 2.16113281 C29.88711914 2.16113281 12.72711914 2.16113281 -4.95288086 2.16113281 C-4.95288086 3.48113281 -4.95288086 4.80113281 -4.95288086 6.16113281 C-5.94288086 5.83113281 -6.93288086 5.50113281 -7.95288086 5.16113281 C-7.57788086 3.22363281 -7.57788086 3.22363281 -6.95288086 1.16113281 C-4.46837453 -0.08112035 -2.7795504 0.02084928 0 0 Z " fill="#0708C0" transform="translate(507.952880859375,304.8388671875)"/>
<path d="M0 0 C17.82 0 35.64 0 54 0 C54 0.66 54 1.32 54 2 C54.99 2 55.98 2 57 2 C57 3.98 57 5.96 57 8 C56.34 8 55.68 8 55 8 C55 6.35 55 4.7 55 3 C36.52 3 18.04 3 -1 3 C-0.67 2.01 -0.34 1.02 0 0 Z " fill="#000035" transform="translate(502,303)"/>
<path d="M0 0 C2.49627828 1.67558405 2.93459967 2.97371519 3.93359375 5.77734375 C5.35988481 9.59409875 5.35988481 9.59409875 8.74609375 11.77734375 C9.48859375 12.29296875 10.23109375 12.80859375 10.99609375 13.33984375 C11.44177536 16.70721594 11.28122614 19.96260896 10.99609375 23.33984375 C10.66609375 23.33984375 10.33609375 23.33984375 9.99609375 23.33984375 C9.99609375 20.36984375 9.99609375 17.39984375 9.99609375 14.33984375 C8.55234375 14.36046875 7.10859375 14.38109375 5.62109375 14.40234375 C1.24609375 14.46484375 1.24609375 14.46484375 -1.00390625 13.33984375 C-2.109375 11.4140625 -2.109375 11.4140625 -3.19140625 9.02734375 C-3.73861328 7.85751953 -3.73861328 7.85751953 -4.296875 6.6640625 C-5.08959127 4.05817201 -5.04541268 2.83615282 -4.00390625 0.33984375 C-2.00390625 -0.66015625 -2.00390625 -0.66015625 0 0 Z " fill="#0404DF" transform="translate(441.00390625,460.66015625)"/>
<path d="M0 0 C0.33 0 0.66 0 1 0 C1 4.62 1 9.24 1 14 C0.34 14 -0.32 14 -1 14 C-1 17.3 -1 20.6 -1 24 C-0.34 24 0.32 24 1 24 C1 27.3 1 30.6 1 34 C1.66 34 2.32 34 3 34 C3 33.34 3 32.68 3 32 C3.66 32 4.32 32 5 32 C5.33 34.31 5.66 36.62 6 39 C5.34 38.67 4.68 38.34 4 38 C3.34 40.64 2.68 43.28 2 46 C-2.62 46.33 -7.24 46.66 -12 47 C-12 46.34 -12 45.68 -12 45 C-3.57142857 43.71428571 -3.57142857 43.71428571 1 45 C0.59250666 39.95995078 0.06687583 35.0590107 -1.0625 30.125 C-3.17141966 19.96095863 -1.82651044 10.11103991 0 0 Z " fill="#000038" transform="translate(802,380)"/>
<path d="M0 0 C1.65 0 3.3 0 5 0 C3.68 0.33 2.36 0.66 1 1 C1 3.64 1 6.28 1 9 C-0.65 9 -2.3 9 -4 9 C-4 9.99 -4 10.98 -4 12 C-1.03 12.495 -1.03 12.495 2 13 C2 13.33 2 13.66 2 14 C-4.44283279 14.10402152 -10.66459122 13.73459309 -17.0625 13 C-17.92810547 12.90460937 -18.79371094 12.80921875 -19.68554688 12.7109375 C-21.79084969 12.47830736 -23.89549956 12.23978031 -26 12 C-26 11.67 -26 11.34 -26 11 C-16.1 10.505 -16.1 10.505 -6 10 C-6.99 9.67 -7.98 9.34 -9 9 C-9 8.34 -9 7.68 -9 7 C-9.8353125 7.01740234 -9.8353125 7.01740234 -10.6875 7.03515625 C-15.89778343 7.09676433 -20.8437951 6.74999344 -26 6 C-26 5.67 -26 5.34 -26 5 C-17.22779709 4.6810108 -8.68175521 5.88363194 0 7 C0 4.69 0 2.38 0 0 Z " fill="#0707C3" transform="translate(788,34)"/>
<path d="M0 0 C2 1 2 1 2.9296875 3.67578125 C4.90291184 11.26698728 6.67662932 18.8776251 8.25 26.5625 C8.51272705 27.82864136 8.51272705 27.82864136 8.78076172 29.12036133 C9.64573751 33.48400306 10.20305326 37.52557643 10 42 C9.67 42 9.34 42 9 42 C7.57741188 38.17679443 6.75957724 35.08718695 7 31 C6.34 31 5.68 31 5 31 C4.87753906 29.71867187 4.75507812 28.43734375 4.62890625 27.1171875 C4.06465769 22.03596498 3.05019088 17.11048424 1.9375 12.125 C1.56883677 10.4615507 1.20283273 8.79750921 0.83984375 7.1328125 C0.67863037 6.40980957 0.51741699 5.68680664 0.35131836 4.94189453 C0 3 0 3 0 0 Z " fill="#000068" transform="translate(830,101)"/>
<path d="M0 0 C0.68620031 1.32338632 1.34786461 2.65949948 2 4 C2.37125 4.721875 2.7425 5.44375 3.125 6.1875 C4.35411435 10.1382247 4.16096648 13.89535484 4 18 C4.66 18 5.32 18 6 18 C6.02887512 21.64581687 6.04675585 25.29160463 6.0625 28.9375 C6.07087891 29.97841797 6.07925781 31.01933594 6.08789062 32.09179688 C6.09111328 33.08115234 6.09433594 34.07050781 6.09765625 35.08984375 C6.10289307 36.00628662 6.10812988 36.92272949 6.11352539 37.86694336 C6 40 6 40 5 41 C4.76807135 42.51469448 4.58784762 44.03754562 4.4375 45.5625 C4.35371094 46.38878906 4.26992188 47.21507812 4.18359375 48.06640625 C4.12300781 48.70449219 4.06242188 49.34257812 4 50 C5.32 50.33 6.64 50.66 8 51 C6.515 51.495 6.515 51.495 5 52 C3.44921875 51 3.44921875 51 2 49 C2.11077132 46.22173552 2.37206137 43.72628554 2.8125 41 C3.02353446 39.44975844 3.23057574 37.89896799 3.43359375 36.34765625 C3.53397949 35.59629395 3.63436523 34.84493164 3.73779297 34.07080078 C4.79707189 25.70506167 3.67722627 18.60748573 1.42333984 10.56811523 C0.4135454 6.94661291 -0.23259 3.76505055 0 0 Z " fill="#0707C3" transform="translate(787,374)"/>
<path d="M0 0 C0.33 0 0.66 0 1 0 C1.02685938 2.14576637 1.04633088 4.29162645 1.0625 6.4375 C1.07410156 7.63246094 1.08570313 8.82742187 1.09765625 10.05859375 C1 13 1 13 0 14 C-0.23363881 15.84891946 -0.41303635 17.70488031 -0.5625 19.5625 C-0.64628906 20.57441406 -0.73007812 21.58632812 -0.81640625 22.62890625 C-0.87699219 23.41136719 -0.93757813 24.19382813 -1 25 C-0.34 25 0.32 25 1 25 C-0.66153012 30.85659906 -2.47041916 36.4590134 -5 42 C-6.37072369 37.88782893 -5.46591919 34.35603111 -4.78515625 30.17578125 C-4.65056503 29.31438034 -4.51597382 28.45297943 -4.37730408 27.56547546 C-3.94572143 24.81338156 -3.50423728 22.0629804 -3.0625 19.3125 C-2.76822694 17.44736858 -2.47459913 15.58213523 -2.18164062 13.71679688 C-1.46191004 9.1433147 -0.73329517 4.57132606 0 0 Z " fill="#00003D" transform="translate(368,122)"/>
<path d="M0 0 C-1.32 0.33 -2.64 0.66 -4 1 C-3.45118943 7.35219042 -2.83488387 13.67873638 -2 20 C-9.09727428 20.10808032 -15.96094956 19.93854006 -23 19 C-23 18.67 -23 18.34 -23 18 C-16.73 18 -10.46 18 -4 18 C-4.66 16.02 -5.32 14.04 -6 12 C-6.1953125 8.7890625 -6.1953125 8.7890625 -6.125 5.625 C-6.10695313 4.56539063 -6.08890625 3.50578125 -6.0703125 2.4140625 C-6.04710937 1.61742187 -6.02390625 0.82078125 -6 0 C-3 -1 -3 -1 0 0 Z " fill="#00003A" transform="translate(401,305)"/>
<path d="M0 0 C0.33 0 0.66 0 1 0 C1.02685938 2.14576637 1.04633088 4.29162645 1.0625 6.4375 C1.07410156 7.63246094 1.08570313 8.82742187 1.09765625 10.05859375 C1 13 1 13 0 14 C-0.23481693 16.18292774 -0.41363323 18.37203174 -0.5625 20.5625 C-0.64628906 21.76003906 -0.73007812 22.95757812 -0.81640625 24.19140625 C-0.87699219 25.11824219 -0.93757813 26.04507813 -1 27 C-1.66 27 -2.32 27 -3 27 C-3.33 27.99 -3.66 28.98 -4 30 C-4 28.68 -4 27.36 -4 26 C-4.66 26 -5.32 26 -6 26 C-5.67 23.03 -5.34 20.06 -5 17 C-4.67 17.99 -4.34 18.98 -4 20 C-3.34 20 -2.68 20 -2 20 C-1.93941406 19.14277344 -1.87882812 18.28554687 -1.81640625 17.40234375 C-1.38856464 11.56395127 -0.940837 5.77942728 0 0 Z " fill="#0606C9" transform="translate(358,142)"/>
<path d="M0 0 C0.99 0 1.98 0 3 0 C3 1.65 3 3.3 3 5 C-9.05482249 4.41346574 -21.00791473 3.35585596 -33 2 C-33 1.67 -33 1.34 -33 1 C-26.4 1 -19.8 1 -13 1 C-13 1.66 -13 2.32 -13 3 C-8.71 3 -4.42 3 0 3 C0 2.01 0 1.02 0 0 Z " fill="#000036" transform="translate(785,36)"/>
<path d="M0 0 C0.99 0 1.98 0 3 0 C5.1519437 3.22791555 5.20086443 4.28400809 5 8 C4.34 6.68 3.68 5.36 3 4 C3.15670166 4.74161377 3.31340332 5.48322754 3.47485352 6.24731445 C4.1787522 9.60075192 4.87075655 12.95653507 5.5625 16.3125 C5.80935547 17.47974609 6.05621094 18.64699219 6.31054688 19.84960938 C6.53935547 20.96787109 6.76816406 22.08613281 7.00390625 23.23828125 C7.21861572 24.26993408 7.4333252 25.30158691 7.65454102 26.36450195 C8 29 8 29 7 32 C7 31.34 7 30.68 7 30 C6.34 30 5.68 30 5 30 C4.65820312 26.92382812 4.65820312 26.92382812 4.31640625 23.84765625 C4.18113386 21.98859771 4.18113386 21.98859771 3 21 C2.8132196 19.67178382 2.67619172 18.33645776 2.5625 17 C2.15451255 12.88064286 1.38860056 8.9623293 0.40234375 4.9453125 C0 3 0 3 0 0 Z " fill="#0708C3" transform="translate(828,98)"/>
<path d="M0 0 C1.47906892 -0.02689216 2.95827483 -0.04634621 4.4375 -0.0625 C5.26121094 -0.07410156 6.08492187 -0.08570313 6.93359375 -0.09765625 C9 0 9 0 10 1 C11.51469448 1.23192865 13.03754562 1.41215238 14.5625 1.5625 C15.38878906 1.64628906 16.21507812 1.73007812 17.06640625 1.81640625 C17.70449219 1.87699219 18.34257813 1.93757812 19 2 C19 2.66 19 3.32 19 4 C20.299375 3.979375 21.59875 3.95875 22.9375 3.9375 C24.29165633 3.91600546 25.64756083 3.92851801 27 4 C27.33 4.33 27.66 4.66 28 5 C30.32817964 5.36760731 32.6618385 5.70241581 35 6 C35 6.66 35 7.32 35 8 C27.28854454 7.34844387 19.95745735 5.73113675 12.4375 3.9375 C11.23802734 3.65583984 10.03855469 3.37417969 8.80273438 3.08398438 C5.8673532 2.39399438 2.93319129 1.69922991 0 1 C0 0.67 0 0.34 0 0 Z " fill="#000036" transform="translate(845,523)"/>
<path d="M0 0 C0.33 0 0.66 0 1 0 C1.33 1.65 1.66 3.3 2 5 C10.25 6.98 18.5 8.96 27 11 C27 11.33 27 11.66 27 12 C25.52093108 12.02689216 24.04172517 12.04634621 22.5625 12.0625 C21.32693359 12.07990234 21.32693359 12.07990234 20.06640625 12.09765625 C18 12 18 12 17 11 C15.65252916 10.76924918 14.29622435 10.58846937 12.9375 10.4375 C11.638125 10.293125 10.33875 10.14875 9 10 C9 9.34 9 8.68 9 8 C6.36 8 3.72 8 1 8 C0.87625 7.360625 0.7525 6.72125 0.625 6.0625 C0.41875 5.381875 0.2125 4.70125 0 4 C-0.66 3.67 -1.32 3.34 -2 3 C-1.34 2.01 -0.68 1.02 0 0 Z " fill="#000034" transform="translate(821,521)"/>
<path d="M0 0 C0.33 0 0.66 0 1 0 C1 3.96 1 7.92 1 12 C0.34 12 -0.32 12 -1 12 C-1 14.97 -1 17.94 -1 21 C0.32 21 1.64 21 3 21 C3.33 19.02 3.66 17.04 4 15 C4.88492145 17.47778006 5.11637742 18.66056586 4.25 21.1875 C3 23 3 23 0 24 C-1.51171875 22.78125 -1.51171875 22.78125 -3 21 C-3.14453125 18.90625 -3.14453125 18.90625 -2.8125 16.5 C-2.69648437 15.62601562 -2.58046875 14.75203125 -2.4609375 13.8515625 C-1.71225251 9.21986721 -0.90162542 4.60441719 0 0 Z " fill="#0807C0" transform="translate(810,396)"/>
<path d="M0 0 C3.2122385 2.53236666 3.44518925 6.13034035 4.19921875 9.9609375 C4.36357422 10.72921875 4.52792969 11.4975 4.69726562 12.2890625 C5.00416487 13.72540068 5.30403548 15.16327212 5.59448242 16.60302734 C6.0171712 18.61185019 6.50199392 20.597594 7.01171875 22.5859375 C6.02171875 22.2559375 5.03171875 21.9259375 4.01171875 21.5859375 C2.29528243 17.00877399 1.6803132 12.55366559 1.2578125 7.69921875 C1.01247467 5.59242878 0.5700047 3.62991002 0.01171875 1.5859375 C-1.30828125 1.9159375 -2.62828125 2.2459375 -3.98828125 2.5859375 C-3.98828125 1.9259375 -3.98828125 1.2659375 -3.98828125 0.5859375 C-1.98828125 -0.4140625 -1.98828125 -0.4140625 0 0 Z " fill="#0707BE" transform="translate(788.98828125,358.4140625)"/>
<path d="M0 0 C0.639375 0.144375 1.27875 0.28875 1.9375 0.4375 C5.93844788 1.17236798 9.95504896 1.58581111 14 2 C13.67 2.99 13.34 3.98 13 5 C11.35 5 9.7 5 8 5 C8 4.34 8 3.68 8 3 C6.35 3 4.7 3 3 3 C3.33 3.66 3.66 4.32 4 5 C4.04022391 7.3329866 4.04320247 9.66706666 4 12 C2.09681116 9.14521674 1.5380901 7.58058692 0.875 4.3125 C0.70742188 3.50425781 0.53984375 2.69601563 0.3671875 1.86328125 C0.24601563 1.24839844 0.12484375 0.63351563 0 0 Z " fill="#00003A" transform="translate(845,100)"/>
<path d="M0 0 C0.66 0 1.32 0 2 0 C2.33 1.98 2.66 3.96 3 6 C5.64 6 8.28 6 11 6 C11.33 6.66 11.66 7.32 12 8 C8.7 8 5.4 8 2 8 C1.67 9.32 1.34 10.64 1 12 C0.34 12 -0.32 12 -1 12 C-0.67 8.04 -0.34 4.08 0 0 Z " fill="#000035" transform="translate(352,168)"/>
<path d="M0 0 C0.81210937 0.55300781 0.81210937 0.55300781 1.640625 1.1171875 C1.310625 1.7771875 0.980625 2.4371875 0.640625 3.1171875 C-0.6278125 3.08625 -0.6278125 3.08625 -1.921875 3.0546875 C-5.47830277 3.11934982 -8.85031003 3.5557371 -12.359375 4.1171875 C-12.359375 7.0871875 -12.359375 10.0571875 -12.359375 13.1171875 C-13.019375 12.7871875 -13.679375 12.4571875 -14.359375 12.1171875 C-14.029375 9.1471875 -13.699375 6.1771875 -13.359375 3.1171875 C-11.61703675 2.39021189 -9.86510155 1.68620506 -8.109375 0.9921875 C-7.13484375 0.59773438 -6.1603125 0.20328125 -5.15625 -0.203125 C-2.359375 -0.8828125 -2.359375 -0.8828125 0 0 Z " fill="#0808BE" transform="translate(739.359375,32.8828125)"/>
<path d="M0 0 C0.33 0.99 0.66 1.98 1 3 C1.66 3 2.32 3 3 3 C3 4.32 3 5.64 3 7 C2.34 7 1.68 7 1 7 C1.15597656 7.60328125 1.31195312 8.2065625 1.47265625 8.828125 C1.66730469 9.62734375 1.86195313 10.4265625 2.0625 11.25 C2.25972656 12.03890625 2.45695313 12.8278125 2.66015625 13.640625 C3.01497267 16.10394822 2.76877544 17.65604132 2 20 C-0.32480169 16.30878426 -0.46554225 12.55391075 -0.6875 8.3125 C-0.73455078 7.62349609 -0.78160156 6.93449219 -0.83007812 6.22460938 C-0.9344038 4.48527802 -0.97267894 2.74224308 -1 1 C-0.67 0.67 -0.34 0.34 0 0 Z " fill="#0707C4" transform="translate(847,135)"/>
<path d="M0 0 C0.66 0 1.32 0 2 0 C3.31626692 3.61973402 4 6.09567131 4 10 C4.66 10 5.32 10 6 10 C5.1654738 12.50357861 4.20628008 14.66785852 3 17 C1.71682108 13.15046324 1.93356363 10.05261865 2 6 C1.34 6 0.68 6 0 6 C0 4.02 0 2.04 0 0 Z " fill="#04058E" transform="translate(816,92)"/>
<path d="M0 0 C1.77226453 0.28284018 3.542788 0.57660498 5.3125 0.875 C6.29863281 1.03742188 7.28476562 1.19984375 8.30078125 1.3671875 C11 2 11 2 14 4 C11.69 4.33 9.38 4.66 7 5 C6.67 5.99 6.34 6.98 6 8 C3.9375 8.6875 3.9375 8.6875 2 9 C3.875 4.125 3.875 4.125 5 3 C2.525 2.01 2.525 2.01 0 1 C0 0.67 0 0.34 0 0 Z " fill="#0506D0" transform="translate(756,69)"/>
<path d="M0 0 C1.72298379 3.44596758 2.74049657 6.30437687 3.6875 10 C3.95949219 11.03125 4.23148437 12.0625 4.51171875 13.125 C4.98122716 15.88946552 4.93214283 17.39750728 4 20 C1.32072659 15.98108988 1.84398752 13.75838077 2 9 C1.34 9 0.68 9 0 9 C0 6.03 0 3.06 0 0 Z " fill="#00003C" transform="translate(403,361)"/>
<path d="M0 0 C0.66 0 1.32 0 2 0 C3.32 4.62 4.64 9.24 6 14 C4.35 14.33 2.7 14.66 1 15 C0.505 7.575 0.505 7.575 0 0 Z " fill="#000048" transform="translate(848,142)"/>
<path d="M0 0 C1.65 0 3.3 0 5 0 C5 0.66 5 1.32 5 2 C6.19625 1.938125 7.3925 1.87625 8.625 1.8125 C12.73497595 1.79056063 15.4478261 2.86869566 19 5 C14.96927678 6.59401397 11.8478037 5.37091031 7.8125 4.1875 C6.56082031 3.83042969 5.30914063 3.47335938 4.01953125 3.10546875 C1 2 1 2 0 0 Z " fill="#000039" transform="translate(755,67)"/>
<path d="M0 0 C0 0.66 0 1.32 0 2 C-0.99 2 -1.98 2 -3 2 C-3.309375 2.639375 -3.61875 3.27875 -3.9375 3.9375 C-5 6 -5 6 -6 7 C-4.68 7.66 -3.36 8.32 -2 9 C-5.75 10.125 -5.75 10.125 -8 9 C-8.375 6.75 -8.375 6.75 -8 4 C-3.02702703 0 -3.02702703 0 0 0 Z " fill="#0706CB" transform="translate(376,73)"/>
<path d="M0 0 C0.66 0.33 1.32 0.66 2 1 C3.58470855 6.19432248 4.28533749 11.57858775 4 17 C3.67 17 3.34 17 3 17 C1.57741188 13.17679443 0.75957724 10.08718695 1 6 C0.34 6 -0.32 6 -1 6 C-0.67 4.02 -0.34 2.04 0 0 Z " fill="#00003C" transform="translate(836,126)"/>
<path d="M0 0 C0.33 0 0.66 0 1 0 C1.02689216 1.47906892 1.04634621 2.95827483 1.0625 4.4375 C1.07410156 5.26121094 1.08570313 6.08492188 1.09765625 6.93359375 C1 9 1 9 0 10 C-0.36760731 12.32817964 -0.70241581 14.6618385 -1 17 C-1.66 17 -2.32 17 -3 17 C-2.48517081 11.147205 -1.54642808 5.6702363 0 0 Z " fill="#000038" transform="translate(832,339)"/>
<path d="M0 0 C3.00092657 2.25069493 3.21031306 4.94640878 4 8.5 C3.01 7.84 2.02 7.18 1 6.5 C1 5.18 1 3.86 1 2.5 C-0.32 2.5 -1.64 2.5 -3 2.5 C-3 4.15 -3 5.8 -3 7.5 C-3.33 7.5 -3.66 7.5 -4 7.5 C-4 5.19 -4 2.88 -4 0.5 C-2 -0.5 -2 -0.5 0 0 Z " fill="#0706BE" transform="translate(846,212.5)"/>
<path d="M0 0 C0.33 0.99 0.66 1.98 1 3 C1.66 3 2.32 3 3 3 C3 4.98 3 6.96 3 9 C1.68 9 0.36 9 -1 9 C-0.67 6.03 -0.34 3.06 0 0 Z " fill="#060592" transform="translate(353,159)"/>
<path d="M0 0 C1.84187025 2.76280538 2.72248277 4.80707826 3.6875 7.9375 C3.95949219 8.79214844 4.23148438 9.64679688 4.51171875 10.52734375 C5.02075548 13.10510574 4.84888744 14.54449337 4 17 C3.505 14.525 3.505 14.525 3 12 C2.34 12 1.68 12 1 12 C0.67 8.04 0.34 4.08 0 0 Z " fill="#0607C3" transform="translate(836,71)"/>
<path d="M0 0 C0.66 0 1.32 0 2 0 C2 0.66 2 1.32 2 2 C2.66 2 3.32 2 4 2 C3.67 4.64 3.34 7.28 3 10 C2.34 9.67 1.68 9.34 1 9 C0.5859375 6.93359375 0.5859375 6.93359375 0.375 4.4375 C0.30023437 3.61121094 0.22546875 2.78492188 0.1484375 1.93359375 C0.09945312 1.29550781 0.05046875 0.65742188 0 0 Z " fill="#00003C" transform="translate(793,368)"/>
<path d="M0 0 C0.78375 0.804375 1.5675 1.60875 2.375 2.4375 C4.71982856 4.98690417 4.71982856 4.98690417 7 6 C7 9.3 7 12.6 7 16 C6.67 16 6.34 16 6 16 C6 13.03 6 10.06 6 7 C4.68 7 3.36 7 2 7 C0 4 0 4 0 0 Z " fill="#0507B2" transform="translate(445,468)"/>
<path d="M0 0 C0.66 0 1.32 0 2 0 C1.27991594 4.60853797 -0.31295939 8.67237409 -2 13 C-3.24964981 9.25105057 -2.75598428 6.84864723 -2 3 C-1.34 2.01 -0.68 1.02 0 0 Z " fill="#000034" transform="translate(389,90)"/>
<path d="M0 0 C0.99 0 1.98 0 3 0 C3 1.65 3 3.3 3 5 C0.36 5 -2.28 5 -5 5 C-5 4.34 -5 3.68 -5 3 C-3.35 3 -1.7 3 0 3 C0 2.01 0 1.02 0 0 Z " fill="#01014A" transform="translate(785,36)"/>
<path d="M0 0 C5.21979128 -0.1799928 9.07262981 0.02905192 14 2 C14 2.66 14 3.32 14 4 C12.22773547 3.71715982 10.457212 3.42339502 8.6875 3.125 C7.20830078 2.88136719 7.20830078 2.88136719 5.69921875 2.6328125 C3 2 3 2 0 0 Z " fill="#000036" transform="translate(782,75)"/>
<path d="M0 0 C0.99 0 1.98 0 3 0 C5.1519437 3.22791555 5.20086443 4.28400809 5 8 C4.34 6.68 3.68 5.36 3 4 C2.67 5.98 2.34 7.96 2 10 C1.67 10 1.34 10 1 10 C0.67 6.7 0.34 3.4 0 0 Z " fill="#0305D4" transform="translate(828,98)"/>
<path d="M0 0 C2 3 2 3 2 7 C-0.375 8.8125 -0.375 8.8125 -3 10 C-3.66 9.67 -4.32 9.34 -5 9 C-4.34 8.01 -3.68 7.02 -3 6 C-2.01 6 -1.02 6 0 6 C0 4.02 0 2.04 0 0 Z " fill="#000037" transform="translate(439,471)"/>
<path d="M0 0 C1.67542976 0.28604898 3.34385343 0.61781233 5 1 C6.125 4.75 6.125 4.75 5 7 C4.34 7 3.68 7 3 7 C3 5.35 3 3.7 3 2 C1.68 1.67 0.36 1.34 -1 1 C-0.67 0.67 -0.34 0.34 0 0 Z " fill="#0908AE" transform="translate(194,598)"/>
<path d="M0 0 C0 0.66 0 1.32 0 2 C-0.99 2 -1.98 2 -3 2 C-3 2.66 -3 3.32 -3 4 C-3.66 4 -4.32 4 -5 4 C-5 4.66 -5 5.32 -5 6 C-6.65 6 -8.3 6 -10 6 C-7.35570758 3.077361 -4.105808 0 0 0 Z " fill="#000031" transform="translate(430,493)"/>
<path d="M0 0 C1.32 0 2.64 0 4 0 C3.67 1.98 3.34 3.96 3 6 C2.01 5.67 1.02 5.34 0 5 C0 3.35 0 1.7 0 0 Z " fill="#0001FA" transform="translate(843,215)"/>
<path d="M0 0 C0 0.66 0 1.32 0 2 C-0.99 2 -1.98 2 -3 2 C-3 2.66 -3 3.32 -3 4 C-6 6 -6 6 -8.1875 5.625 C-8.785625 5.41875 -9.38375 5.2125 -10 5 C-8.71186658 4.16121545 -7.41936744 3.32913217 -6.125 2.5 C-5.40570313 2.0359375 -4.68640625 1.571875 -3.9453125 1.09375 C-2 0 -2 0 0 0 Z " fill="#000034" transform="translate(420,499)"/>
<path d="M0 0 C0.66 0 1.32 0 2 0 C2.33 2.97 2.66 5.94 3 9 C2.01 9.495 2.01 9.495 1 10 C0.67 6.7 0.34 3.4 0 0 Z " fill="#000052" transform="translate(834,117)"/>
<path d="M0 0 C0.33 0.99 0.66 1.98 1 3 C1.66 3 2.32 3 3 3 C3 4.32 3 5.64 3 7 C1.68 6.67 0.36 6.34 -1 6 C-1.042721 4.33388095 -1.04063832 2.66617115 -1 1 C-0.67 0.67 -0.34 0.34 0 0 Z " fill="#030498" transform="translate(847,135)"/>
<path d="M0 0 C0.33 0.99 0.66 1.98 1 3 C3.97 3.495 3.97 3.495 7 4 C7 4.33 7 4.66 7 5 C4.03 5 1.06 5 -2 5 C-2.33 4.01 -2.66 3.02 -3 2 C-2.01 1.34 -1.02 0.68 0 0 Z " fill="#0405D8" transform="translate(783,43)"/>
<path d="M0 0 C2.97 0 5.94 0 9 0 C9.33 0.99 9.66 1.98 10 3 C9.67 3.66 9.34 4.32 9 5 C8.34 5 7.68 5 7 5 C7 3.68 7 2.36 7 1 C4.69 1 2.38 1 0 1 C0 0.67 0 0.34 0 0 Z " fill="#0806C6" transform="translate(548,306)"/>
</svg>
