<?xml version="1.0" encoding="UTF-8"?>
<svg version="1.1" xmlns="http://www.w3.org/2000/svg" width="1280" height="720">
<path d="M0 0 C422.4 0 844.8 0 1280 0 C1280 237.6 1280 475.2 1280 720 C857.6 720 435.2 720 0 720 C0 482.4 0 244.8 0 0 Z " fill="#3D0000" transform="translate(0,0)"/>
<path d="M0 0 C0.99 0.33 1.98 0.66 3 1 C3 8.59 3 16.18 3 24 C-1.95 24 -6.9 24 -12 24 C-12.495 21.525 -12.495 21.525 -13 19 C-11.68 19 -10.36 19 -9 19 C-9 19.66 -9 20.32 -9 21 C-8.34 21 -7.68 21 -7 21 C-7.77479736 18.00847418 -7.77479736 18.00847418 -9 15 C-11.75078884 14.08307039 -13.35948913 13.89113917 -16.1875 13.9375 C-17.445625 13.958125 -18.70375 13.97875 -20 14 C-20 13.01 -20 12.02 -20 11 C-18.68 11 -17.36 11 -16 11 C-16 10.34 -16 9.68 -16 9 C-15.071875 8.566875 -14.14375 8.13375 -13.1875 7.6875 C-10.05906998 6.29625171 -10.05906998 6.29625171 -8.625 4.3125 C-5.80508351 2.03487514 -2.50855252 2.82744824 1 3 C0.67 2.01 0.34 1.02 0 0 Z " fill="#4C0409" transform="translate(1277,696)"/>
<path d="M0 0 C1.32 0.33 2.64 0.66 4 1 C4 1.66 4 2.32 4 3 C5.11375 2.95875 6.2275 2.9175 7.375 2.875 C11 3 11 3 13 5 C14.64991582 5.70710678 16.31562256 6.37943989 18 7 C18 8.32 18 9.64 18 11 C13.38 11 8.76 11 4 11 C4 10.01 4 9.02 4 8 C1.03 7.505 1.03 7.505 -2 7 C-2 5.35 -2 3.7 -2 2 C-1.34 2 -0.68 2 0 2 C0 1.34 0 0.68 0 0 Z " fill="#45020D" transform="translate(1234,709)"/>
<path d="M0 0 C0 1.65 0 3.3 0 5 C-2.31 5.33 -4.62 5.66 -7 6 C-7.33 7.98 -7.66 9.96 -8 12 C-8.66 12 -9.32 12 -10 12 C-10 9.36 -10 6.72 -10 4 C-10.66 4 -11.32 4 -12 4 C-12 3.34 -12 2.68 -12 2 C-8.09971775 -0.60018816 -4.52565431 -0.15085514 0 0 Z " fill="#4A0202" transform="translate(1280,616)"/>
<path d="M0 0 C0 0.99 0 1.98 0 3 C-0.66 3 -1.32 3 -2 3 C-2.33 4.98 -2.66 6.96 -3 9 C-1.68 9 -0.36 9 1 9 C1 9.66 1 10.32 1 11 C-0.32 11 -1.64 11 -3 11 C-4.78969026 13.42672567 -4.78969026 13.42672567 -6 16 C-6 13.37886292 -5.68707555 11.49064888 -5 9 C-5.99 9 -6.98 9 -8 9 C-7.38722388 6.03824877 -6.74627478 4.61941217 -5 2 C-2.375 0.8125 -2.375 0.8125 0 0 Z M6 4 C6 4.99 6 5.98 6 7 C4.35 7.66 2.7 8.32 1 9 C1 8.01 1 7.02 1 6 C4 4 4 4 6 4 Z " fill="#450605" transform="translate(1253,650)"/>
<path d="M0 0 C1.65 0.33 3.3 0.66 5 1 C5 1.66 5 2.32 5 3 C5.99 2.67 6.98 2.34 8 2 C7.67 3.65 7.34 5.3 7 7 C6.360625 7.103125 5.72125 7.20625 5.0625 7.3125 C4.381875 7.539375 3.70125 7.76625 3 8 C2.67 8.99 2.34 9.98 2 11 C1.01 11.33 0.02 11.66 -1 12 C-2.3609623 9.2780754 -1.70366248 7.8168043 -1.0625 4.875 C-0.86785156 3.96492187 -0.67320313 3.05484375 -0.47265625 2.1171875 C-0.31667969 1.41851563 -0.16070313 0.71984375 0 0 Z " fill="#490603" transform="translate(1266,670)"/>
<path d="M0 0 C0.6875 2.3125 0.6875 2.3125 1 5 C-0.0625 6.8125 -0.0625 6.8125 -2 8 C-5.1875 8.1875 -5.1875 8.1875 -8 8 C-8 5.69 -8 3.38 -8 1 C-5.07175348 0.02391783 -3.04386724 -0.08226668 0 0 Z " fill="#4E0101" transform="translate(8,306)"/>
<path d="M0 0 C4.95 0 9.9 0 15 0 C14.34 1.32 13.68 2.64 13 4 C11.58376784 4.05447047 10.16691809 4.09300508 8.75 4.125 C7.96109375 4.14820313 7.1721875 4.17140625 6.359375 4.1953125 C3.79268059 3.9828378 2.2083933 3.28654105 0 2 C0 1.34 0 0.68 0 0 Z " fill="#2A0000" transform="translate(1061,0)"/>
<path d="M0 0 C0.99 0.33 1.98 0.66 3 1 C3 4.3 3 7.6 3 11 C2.01 11 1.02 11 0 11 C-0.66 10.01 -1.32 9.02 -2 8 C-2.66 8 -3.32 8 -4 8 C-4 6.68 -4 5.36 -4 4 C-2.35 3.67 -0.7 3.34 1 3 C0.67 2.01 0.34 1.02 0 0 Z " fill="#53070C" transform="translate(1277,696)"/>
<path d="M0 0 C0 0.99 0 1.98 0 3 C-0.66 3 -1.32 3 -2 3 C-2.33 3.99 -2.66 4.98 -3 6 C-4.65 6 -6.3 6 -8 6 C-8.495 3.525 -8.495 3.525 -9 1 C-5.57367167 -0.61798838 -3.61944899 -1.34053666 0 0 Z " fill="#500203" transform="translate(1267,582)"/>
<path d="M0 0 C1.4540625 0.0309375 1.4540625 0.0309375 2.9375 0.0625 C3.2675 1.3825 3.5975 2.7025 3.9375 4.0625 C0.80251708 5.92026765 -1.43721432 6.26390476 -5.0625 6.0625 C-3.98897059 0.08140756 -3.98897059 0.08140756 0 0 Z " fill="#4F0101" transform="translate(1211.0625,243.9375)"/>
<path d="M0 0 C2.31 0 4.62 0 7 0 C7 1.98 7 3.96 7 6 C1.25 5.125 1.25 5.125 -1 4 C-0.67 2.68 -0.34 1.36 0 0 Z " fill="#290000" transform="translate(1273,166)"/>
<path d="M0 0 C0.66 0 1.32 0 2 0 C2 1.32 2 2.64 2 4 C3.32 4.33 4.64 4.66 6 5 C7.125 10.75 7.125 10.75 6 13 C5.34 13 4.68 13 4 13 C3.67 11.02 3.34 9.04 3 7 C2.01 7 1.02 7 0 7 C0 4.69 0 2.38 0 0 Z " fill="#480806" transform="translate(0,677)"/>
<path d="M0 0 C0.99 0 1.98 0 3 0 C3.33 0.99 3.66 1.98 4 3 C4.66 3.66 5.32 4.32 6 5 C4 7 4 7 1.375 7.125 C0.59125 7.08375 -0.1925 7.0425 -1 7 C-0.67 4.69 -0.34 2.38 0 0 Z " fill="#480204" transform="translate(1210,713)"/>
<path d="M0 0 C0.99 0 1.98 0 3 0 C3 0.99 3 1.98 3 3 C3.66 3 4.32 3 5 3 C4.6875 4.875 4.6875 4.875 4 7 C3.01 7.66 2.02 8.32 1 9 C-0.61949011 6.42786866 -1.04408751 5.32330841 -0.625 2.25 C-0.41875 1.5075 -0.2125 0.765 0 0 Z " fill="#480403" transform="translate(1239,591)"/>
<path d="M0 0 C1.32 0 2.64 0 4 0 C4.625 2.375 4.625 2.375 5 5 C4.34 5.66 3.68 6.32 3 7 C2.01 7 1.02 7 0 7 C-0.38133299 5.0085944 -0.71325582 3.00720923 -1 1 C-0.67 0.67 -0.34 0.34 0 0 Z " fill="#4B0804" transform="translate(126,637)"/>
<path d="M0 0 C2.16874252 0.50603992 3.99967627 0.99983813 6 2 C6 2.99 6 3.98 6 5 C4.02 5.66 2.04 6.32 0 7 C-1.125 2.25 -1.125 2.25 0 0 Z " fill="#530302" transform="translate(225,622)"/>
<path d="M0 0 C-0.6875 2.4375 -0.6875 2.4375 -2 5 C-4.625 5.8125 -4.625 5.8125 -7 6 C-7.33 4.68 -7.66 3.36 -8 2 C-4.91190305 0.23537317 -3.76687864 0 0 0 Z " fill="#4E0303" transform="translate(116,250)"/>
<path d="M0 0 C1.65 0 3.3 0 5 0 C5.5625 1.9375 5.5625 1.9375 6 4 C5 5 5 5 1.9375 5.0625 C0.4834375 5.0315625 0.4834375 5.0315625 -1 5 C-0.67 3.35 -0.34 1.7 0 0 Z " fill="#280100" transform="translate(187,157)"/>
<path d="M0 0 C2.31 0 4.62 0 7 0 C7.33 0.99 7.66 1.98 8 3 C7 4 7 4 3.4375 4.0625 C2.303125 4.041875 1.16875 4.02125 0 4 C0 2.68 0 1.36 0 0 Z " fill="#4B0303" transform="translate(1144,36)"/>
<path d="M0 0 C2.97 0.495 2.97 0.495 6 1 C5.75 3.375 5.75 3.375 5 6 C2.9375 7.3125 2.9375 7.3125 1 8 C1 7.01 1 6.02 1 5 C0.68911632 3.32900023 0.35919668 1.66128463 0 0 Z " fill="#4A0202" transform="translate(127,469)"/>
<path d="M0 0 C2.475 0.99 2.475 0.99 5 2 C5 2.66 5 3.32 5 4 C2.09399739 5.25664978 0.20395416 6 -3 6 C-3 5.34 -3 4.68 -3 4 C-2.01 3.34 -1.02 2.68 0 2 C0 1.34 0 0.68 0 0 Z M-3 6 C-3 6.66 -3 7.32 -3 8 C-4.32 8.33 -5.64 8.66 -7 9 C-7.33 8.34 -7.66 7.68 -8 7 C-5 6 -5 6 -3 6 Z " fill="#510705" transform="translate(1267,635)"/>
<path d="M0 0 C2.5 1.75 2.5 1.75 5 4 C5 5.32 5 6.64 5 8 C3.02 7.34 1.04 6.68 -1 6 C-1.042721 4.33388095 -1.04063832 2.66617115 -1 1 C-0.67 0.67 -0.34 0.34 0 0 Z " fill="#2C0000" transform="translate(49,8)"/>
<path d="M0 0 C1.32 0 2.64 0 4 0 C4.33 0.99 4.66 1.98 5 3 C5.66 3 6.32 3 7 3 C7 4.65 7 6.3 7 8 C6.34 8 5.68 8 5 8 C5 7.01 5 6.02 5 5 C4.34 5 3.68 5 3 5 C3 4.34 3 3.68 3 3 C2.01 3.33 1.02 3.66 0 4 C-0.33 3.34 -0.66 2.68 -1 2 C-0.67 1.34 -0.34 0.68 0 0 Z " fill="#490705" transform="translate(17,205)"/>
<path d="M0 0 C1.67542976 0.28604898 3.34385343 0.61781233 5 1 C5 2.32 5 3.64 5 5 C3.35 5 1.7 5 0 5 C-0.5625 3.0625 -0.5625 3.0625 -1 1 C-0.67 0.67 -0.34 0.34 0 0 Z " fill="#4A0518" transform="translate(1247,715)"/>
<path d="M0 0 C2.475 0.99 2.475 0.99 5 2 C4.67 3.32 4.34 4.64 4 6 C2.68 6.33 1.36 6.66 0 7 C0 4.69 0 2.38 0 0 Z " fill="#4E0101" transform="translate(0,46)"/>
<path d="M0 0 C2.475 0.495 2.475 0.495 5 1 C4.67 2.32 4.34 3.64 4 5 C2.68 5.33 1.36 5.66 0 6 C0 4.02 0 2.04 0 0 Z " fill="#280000" transform="translate(0,102)"/>
<path d="M0 0 C2.31 0 4.62 0 7 0 C7.33 0.99 7.66 1.98 8 3 C5.03 3 2.06 3 -1 3 C-0.67 2.01 -0.34 1.02 0 0 Z " fill="#520704" transform="translate(268,717)"/>
<path d="M0 0 C0.66 0.33 1.32 0.66 2 1 C2 2.65 2 4.3 2 6 C0.68 6.33 -0.64 6.66 -2 7 C-2.66 5.35 -3.32 3.7 -4 2 C-2.125 0.9375 -2.125 0.9375 0 0 Z " fill="#4C0502" transform="translate(78,394)"/>
<path d="M0 0 C0.66 0 1.32 0 2 0 C1.75 2.875 1.75 2.875 1 6 C-1.0625 7.375 -1.0625 7.375 -3 8 C-3 4.40142046 -2.04169485 2.90548882 0 0 Z " fill="#2B0000" transform="translate(1208,154)"/>
<path d="M0 0 C2 2 2 2 2.125 4.625 C2.08375 5.40875 2.0425 6.1925 2 7 C0.35 7 -1.3 7 -3 7 C-1.125 1.125 -1.125 1.125 0 0 Z " fill="#4A0303" transform="translate(5,275)"/>
<path d="M0 0 C2.375 -0.1875 2.375 -0.1875 5 0 C5.66 0.99 6.32 1.98 7 3 C3.71303767 3.79953138 2.28976808 4.09658936 -1 3 C-0.67 2.01 -0.34 1.02 0 0 Z " fill="#490104" transform="translate(98,162)"/>
<path d="M0 0 C2.9375 0.375 2.9375 0.375 6 1 C6.33 1.66 6.66 2.32 7 3 C4.525 4.485 4.525 4.485 2 6 C1.34 4.02 0.68 2.04 0 0 Z " fill="#4A0504" transform="translate(100,501)"/>
<path d="M0 0 C2.97 0.495 2.97 0.495 6 1 C5.67 2.32 5.34 3.64 5 5 C3.68 4.67 2.36 4.34 1 4 C0.67 2.68 0.34 1.36 0 0 Z " fill="#490404" transform="translate(1245,497)"/>
<path d="M0 0 C2.0625 0.4375 2.0625 0.4375 4 1 C3.67 2.32 3.34 3.64 3 5 C1.68 4.67 0.36 4.34 -1 4 C-1 1 -1 1 0 0 Z " fill="#510503" transform="translate(52,424)"/>
<path d="M0 0 C1.9375 0.3125 1.9375 0.3125 4 1 C4.33 1.99 4.66 2.98 5 4 C1.98968256 4.93423645 1.13349732 5.04449911 -2 4 C-1.34 2.68 -0.68 1.36 0 0 Z " fill="#2C0000" transform="translate(1253,263)"/>
<path d="M0 0 C1.98 0.99 1.98 0.99 4 2 C4 3.32 4 4.64 4 6 C2.68 6 1.36 6 0 6 C0 4.02 0 2.04 0 0 Z " fill="#550302" transform="translate(18,714)"/>
<path d="M0 0 C0.99 0 1.98 0 3 0 C3.33 1.32 3.66 2.64 4 4 C2.35 4.66 0.7 5.32 -1 6 C-1.042721 4.33388095 -1.04063832 2.66617115 -1 1 C-0.67 0.67 -0.34 0.34 0 0 Z " fill="#2C0000" transform="translate(56,610)"/>
<path d="M0 0 C2.97 0.495 2.97 0.495 6 1 C5.67 2.32 5.34 3.64 5 5 C3.68 4.67 2.36 4.34 1 4 C0.67 2.68 0.34 1.36 0 0 Z " fill="#2C0000" transform="translate(135,193)"/>
<path d="M0 0 C0.33 1.32 0.66 2.64 1 4 C-0.65 4.66 -2.3 5.32 -4 6 C-4.66 5.34 -5.32 4.68 -6 4 C-5.67 3.34 -5.34 2.68 -5 2 C-3.35 2 -1.7 2 0 2 C0 1.34 0 0.68 0 0 Z " fill="#4B0202" transform="translate(1240,110)"/>
<path d="M0 0 C2.64 0 5.28 0 8 0 C6.6875 2 6.6875 2 5 4 C4.01 4 3.02 4 2 4 C1.34 2.68 0.68 1.36 0 0 Z " fill="#270000" transform="translate(59,0)"/>
<path d="M0 0 C0.99 0.33 1.98 0.66 3 1 C3 1.66 3 2.32 3 3 C3.99 3.33 4.98 3.66 6 4 C4.02 4.66 2.04 5.32 0 6 C-1.125 2.25 -1.125 2.25 0 0 Z " fill="#4E0604" transform="translate(56,693)"/>
<path d="M0 0 C-0.99 1.98 -1.98 3.96 -3 6 C-3.33 5.01 -3.66 4.02 -4 3 C-4.99 3 -5.98 3 -7 3 C-7 2.34 -7 1.68 -7 1 C-4.53721199 -0.231394 -2.7204945 -0.07159196 0 0 Z " fill="#2B0000" transform="translate(105,348)"/>
<path d="M0 0 C0 1.65 0 3.3 0 5 C-1.32 5.33 -2.64 5.66 -4 6 C-4 4.35 -4 2.7 -4 1 C-2 0 -2 0 0 0 Z " fill="#4E0305" transform="translate(4,27)"/>
<path d="M0 0 C1.32 1.32 2.64 2.64 4 4 C3.67 4.66 3.34 5.32 3 6 C2.01 6 1.02 6 0 6 C0 5.34 0 4.68 0 4 C-0.66 4 -1.32 4 -2 4 C-1.34 2.68 -0.68 1.36 0 0 Z " fill="#470304" transform="translate(86,16)"/>
<path d="M0 0 C1.32 0.66 2.64 1.32 4 2 C2.02 4.97 2.02 4.97 0 8 C-0.98120464 4.94736336 -0.98120464 3.05263664 0 0 Z " fill="#470506" transform="translate(135,13)"/>
<path d="M0 0 C1 2 1 2 0.25 4.5625 C-1 7 -1 7 -4 8 C-4 6.68 -4 5.36 -4 4 C-3.34 4 -2.68 4 -2 4 C-1.34 2.68 -0.68 1.36 0 0 Z " fill="#440706" transform="translate(1241,699)"/>
<path d="M0 0 C0 0.99 0 1.98 0 3 C0.66 3 1.32 3 2 3 C1.67 3.99 1.34 4.98 1 6 C-0.98 5.01 -2.96 4.02 -5 3 C-2.25 0 -2.25 0 0 0 Z " fill="#490704" transform="translate(48,680)"/>
<path d="M0 0 C1.65 0 3.3 0 5 0 C4.625 1.9375 4.625 1.9375 4 4 C3.01 4.495 3.01 4.495 2 5 C2 4.34 2 3.68 2 3 C1.01 3 0.02 3 -1 3 C-0.67 2.01 -0.34 1.02 0 0 Z " fill="#2B0000" transform="translate(120,675)"/>
<path d="M0 0 C1.65 0.33 3.3 0.66 5 1 C4.67 1.99 4.34 2.98 4 4 C2.35 3.67 0.7 3.34 -1 3 C-0.67 2.01 -0.34 1.02 0 0 Z " fill="#450C05" transform="translate(15,574)"/>
<path d="M0 0 C0 1.65 0 3.3 0 5 C-0.99 5.33 -1.98 5.66 -3 6 C-3.495 3.525 -3.495 3.525 -4 1 C-1 0 -1 0 0 0 Z " fill="#480403" transform="translate(1239,685)"/>
<path d="M0 0 C1.32 0.66 2.64 1.32 4 2 C3.67 2.99 3.34 3.98 3 5 C0.525 4.01 0.525 4.01 -2 3 C-1.34 2.01 -0.68 1.02 0 0 Z " fill="#460505" transform="translate(112,138)"/>
<path d="M0 0 C1.98 0.99 1.98 0.99 4 2 C4 2.66 4 3.32 4 4 C4.66 4.33 5.32 4.66 6 5 C4 5 2 5 0 5 C0 3.35 0 1.7 0 0 Z " fill="#4D0404" transform="translate(106,34)"/>
<path d="M0 0 C1.65 0.33 3.3 0.66 5 1 C3.75 2.5625 3.75 2.5625 2 4 C-0.1875 3.6875 -0.1875 3.6875 -2 3 C-1.34 2.01 -0.68 1.02 0 0 Z " fill="#270100" transform="translate(139,8)"/>
<path d="M0 0 C1.65 0 3.3 0 5 0 C4.67 1.32 4.34 2.64 4 4 C2.68 4 1.36 4 0 4 C0 2.68 0 1.36 0 0 Z " fill="#58070A" transform="translate(145,716)"/>
<path d="M0 0 C0.66 0 1.32 0 2 0 C2 0.66 2 1.32 2 2 C2.99 2.33 3.98 2.66 5 3 C4.01 4.485 4.01 4.485 3 6 C2.34 6 1.68 6 1 6 C0.67 4.02 0.34 2.04 0 0 Z " fill="#550504" transform="translate(11,508)"/>
<path d="M0 0 C0.99 0 1.98 0 3 0 C3 1.32 3 2.64 3 4 C1.35 4 -0.3 4 -2 4 C-1.34 2.68 -0.68 1.36 0 0 Z " fill="#200000" transform="translate(1277,336)"/>
</svg>
