<?xml version="1.0" encoding="UTF-8"?>
<svg version="1.1" xmlns="http://www.w3.org/2000/svg" width="1076" height="312">
<path d="M0 0 C355.08 0 710.16 0 1076 0 C1076 102.96 1076 205.92 1076 312 C720.92 312 365.84 312 0 312 C0 209.04 0 106.08 0 0 Z " fill="#FEFEFE" transform="translate(0,0)"/>
<path d="M0 0 C1.25241206 -0.0045988 2.50482413 -0.00919759 3.79518807 -0.01393574 C5.19270271 -0.00892026 6.5902167 -0.00371799 7.98773003 0.00165081 C9.46628619 0.00006348 10.94484163 -0.00239936 12.42339504 -0.0056656 C16.49648492 -0.01209757 20.56947588 -0.00599675 24.64255929 0.00209868 C29.03111804 0.00866164 33.41966548 0.0037303 37.80822563 0.00021648 C46.40884888 -0.004832 55.00943376 0.00082405 63.61005224 0.01006678 C73.61619936 0.02043482 83.62233812 0.02038103 93.6284896 0.01989421 C111.475041 0.01939327 129.32157449 0.02856419 147.16811943 0.04307842 C164.50471129 0.05717072 181.84128739 0.06424904 199.17788506 0.06358624 C200.2458759 0.06354628 201.31386674 0.06350632 202.41422094 0.06346516 C203.48032535 0.0634248 204.54642976 0.06338445 205.64484036 0.06334287 C225.35621113 0.06265387 245.06757517 0.0685377 264.77894375 0.07749609 C271.76211489 0.08051831 278.74528479 0.08157634 285.7284565 0.08202839 C294.23112792 0.08270898 302.73378801 0.08715207 311.23645462 0.0963612 C315.57877469 0.10099303 319.92108023 0.10401961 324.26340294 0.10276699 C328.23188884 0.10167767 332.20034251 0.10515502 336.16882168 0.11241551 C337.61086563 0.11423944 339.05291288 0.11434896 340.49495699 0.11264823 C342.44228676 0.11060445 344.38962024 0.11521999 346.33694458 0.12025452 C347.42245767 0.12095894 348.50797076 0.12166337 349.62637818 0.12238914 C352.04263115 0.24888897 352.04263115 0.24888897 353.04263115 1.24888897 C353.04263115 3.55888897 353.04263115 5.86888897 353.04263115 8.24888897 C233.58263115 8.24888897 114.12263115 8.24888897 -8.95736885 8.24888897 C-8.95736885 6.26888897 -8.95736885 4.28888897 -8.95736885 2.24888897 C-5.46758671 -0.07763246 -4.12158461 -0.00082508 0 0 Z " fill="#161616" transform="translate(373.957368850708,140.7511110305786)"/>
<path d="M0 0 C1.25302876 -0.0039821 2.50605752 -0.00796419 3.79705685 -0.01206696 C5.19526059 -0.00636049 6.59346358 -0.00046929 7.99166584 0.00558662 C9.47093429 0.00471498 10.95020244 0.00296475 12.42946893 0.00040829 C16.50449358 -0.00407727 20.5794137 0.00395497 24.65442502 0.01396441 C29.04500639 0.02257927 33.43558158 0.01968015 37.82616901 0.01815987 C45.43651642 0.01710977 53.0468296 0.0233994 60.65716839 0.03463554 C71.66051654 0.05087069 82.66384809 0.05609651 93.66720692 0.05861153 C111.51823325 0.06299175 129.36924134 0.07630973 147.22025776 0.09521675 C164.56368131 0.11356708 181.9070999 0.12772773 199.2505312 0.13623238 C200.85336557 0.13702055 200.85336557 0.13702055 202.48858043 0.13782464 C207.849066 0.14043466 213.20955161 0.14296209 218.57003725 0.14544845 C263.05998342 0.16619115 307.54990969 0.20142558 352.03983784 0.24609566 C352.36983784 0.90609566 352.69983784 1.56609566 353.03983784 2.24609566 C351.90787525 2.24552608 351.90787525 2.24552608 350.75304472 2.24494499 C306.06966377 2.22258787 261.38628342 2.20541971 216.702898 2.19503033 C211.34288054 2.19377956 205.98286309 2.19248524 200.62284565 2.19116402 C199.02215837 2.19077055 199.02215837 2.19077055 197.38913397 2.19036914 C180.08929182 2.18601271 162.78945297 2.17812531 145.48961277 2.16894286 C127.75066866 2.15960557 110.01172629 2.15403989 92.27277982 2.15200716 C81.31871527 2.15063209 70.36466006 2.14628236 59.41059838 2.13817919 C51.90847291 2.13291081 44.40635231 2.13129157 36.90422513 2.13259428 C32.56990062 2.13323751 28.23559249 2.13222178 23.90127087 2.12689018 C19.93878522 2.12205132 15.97632711 2.12176025 12.01384024 2.12519676 C10.57505185 2.12562197 9.13626178 2.12433033 7.6974767 2.12121248 C5.75210003 2.1172396 3.80671305 2.11994308 1.8613348 2.12304783 C0.23575207 2.12247825 0.23575207 2.12247825 -1.42267072 2.12189716 C-3.95367484 2.07495486 -3.95367484 2.07495486 -5.96016216 3.24609566 C-5.96016216 4.23609566 -5.96016216 5.22609566 -5.96016216 6.24609566 C112.50983784 6.24609566 230.97983784 6.24609566 353.03983784 6.24609566 C353.03983784 6.90609566 353.03983784 7.56609566 353.03983784 8.24609566 C233.57983784 8.24609566 114.11983784 8.24609566 -8.96016216 8.24609566 C-8.96016216 6.26609566 -8.96016216 4.28609566 -8.96016216 2.24609566 C-5.46906583 -0.0813019 -4.1232296 -0.00288237 0 0 Z " fill="#717171" transform="translate(373.96016216278076,140.75390434265137)"/>
</svg>
